<svg xmlns="http://www.w3.org/2000/svg" width="551" height="383.48" viewBox="0 0 551 383.48"><defs><style>.cls-1{fill:#e6e6e6;}.cls-2{fill:#fff;}.cls-3{fill:#54ad9e;}</style></defs><g id="レイヤー_2" data-name="レイヤー 2"><g id="f2f1e99e-1651-46a6-b45f-af903ca31f8b"><rect class="cls-1" y="40.37" width="551" height="343.11"/><rect class="cls-2" x="36.95" y="106.47" width="100.92" height="65.6"/><rect class="cls-2" x="162.34" y="106.47" width="100.92" height="65.6"/><rect class="cls-2" x="287.74" y="106.47" width="100.92" height="65.6"/><rect class="cls-2" x="413.14" y="106.47" width="100.92" height="65.6"/><rect class="cls-2" x="36.95" y="199.31" width="100.92" height="65.6"/><rect class="cls-2" x="162.34" y="199.31" width="100.92" height="65.6"/><rect class="cls-2" x="287.74" y="199.31" width="100.92" height="65.6"/><rect class="cls-2" x="413.14" y="199.31" width="100.92" height="65.6"/><rect class="cls-2" x="36.95" y="292.15" width="100.92" height="65.6"/><rect class="cls-2" x="162.34" y="292.15" width="100.92" height="65.6"/><rect class="cls-2" x="287.74" y="292.15" width="100.92" height="65.6"/><rect class="cls-2" x="413.14" y="292.15" width="100.92" height="65.6"/><circle class="cls-2" cx="144.31" cy="65.6" r="15.14"/><circle class="cls-2" cx="394.58" cy="65.6" r="15.14"/><rect class="cls-1" x="138.25" width="12.11" height="69.63"/><rect class="cls-1" x="388.53" width="12.11" height="69.63"/><path class="cls-3" d="M486.41,139.26a22.73,22.73,0,1,1-3.52-12.19A22.76,22.76,0,0,1,486.41,139.26Z"/><path class="cls-2" d="M482.89,127.07l-22.47,22.46c-1.41-2.18-9.27-12.34-9.27-12.34a30,30,0,0,1,3.22-2.84l6.52,8.69,19.37-19.36A22.77,22.77,0,0,1,482.89,127.07Z"/><path class="cls-3" d="M235.62,232.11a22.74,22.74,0,1,1-3.52-12.19A22.76,22.76,0,0,1,235.62,232.11Z"/><path class="cls-2" d="M232.1,219.92l-22.47,22.46c-1.41-2.19-9.28-12.35-9.28-12.35a32.06,32.06,0,0,1,3.22-2.84l6.53,8.7,19.37-19.37A22.35,22.35,0,0,1,232.1,219.92Z"/><path class="cls-3" d="M110.23,232.11a22.77,22.77,0,1,1-3.53-12.19A22.76,22.76,0,0,1,110.23,232.11Z"/><path class="cls-2" d="M106.7,219.92,84.24,242.38C82.82,240.19,75,230,75,230a31,31,0,0,1,3.22-2.84l6.52,8.7,19.37-19.37A22.35,22.35,0,0,1,106.7,219.92Z"/></g></g></svg>