<svg xmlns="http://www.w3.org/2000/svg" xmlns:xlink="http://www.w3.org/1999/xlink" width="970" height="624.26" viewBox="0 0 970 624.26"><defs><style>.cls-1,.cls-26{opacity:0.5;}.cls-2{fill:url(#名称未設定グラデーション_10);}.cls-3{fill:#54ad9e;}.cls-4{opacity:0.3;}.cls-13,.cls-22,.cls-26,.cls-4,.cls-7{isolation:isolate;}.cls-5{fill:url(#名称未設定グラデーション_10-2);}.cls-6{fill:#f55f44;}.cls-18,.cls-22,.cls-7{opacity:0.1;}.cls-8{fill:url(#名称未設定グラデーション_10-3);}.cls-9{fill:url(#名称未設定グラデーション_10-4);}.cls-10{fill:url(#名称未設定グラデーション_10-5);}.cls-11{fill:url(#名称未設定グラデーション_10-6);}.cls-12{fill:#f99f8f;}.cls-13,.cls-20{fill:#fff;}.cls-13{opacity:0.15;}.cls-14{fill:#fda57d;}.cls-15{fill:url(#名称未設定グラデーション_10-7);}.cls-16{fill:#4d8af0;}.cls-17{fill:#ffd180;}.cls-19{fill:url(#名称未設定グラデーション_10-8);}.cls-21,.cls-26{fill:#58555d;}.cls-22{fill:url(#名称未設定グラデーション_9);}.cls-23{fill:url(#名称未設定グラデーション_10-9);}.cls-24{fill:#333;}.cls-25{fill:#3ad29f;}</style><linearGradient id="名称未設定グラデーション_10" x1="600" y1="108.53" x2="600" y2="634.25" gradientTransform="matrix(1, 0, 0, -1, -115, 724.81)" gradientUnits="userSpaceOnUse"><stop offset="0" stop-color="gray" stop-opacity="0.25"/><stop offset="0.54" stop-color="gray" stop-opacity="0.12"/><stop offset="1" stop-color="gray" stop-opacity="0.1"/></linearGradient><linearGradient id="名称未設定グラデーション_10-2" x1="1623.28" y1="2428.29" x2="1623.28" y2="2642.53" gradientTransform="matrix(0.95, -0.32, -0.32, -0.95, -355.54, 3240.83)" xlink:href="#名称未設定グラデーション_10"/><linearGradient id="名称未設定グラデーション_10-3" x1="1636.93" y1="2567.32" x2="1636.93" y2="2594.66" gradientTransform="matrix(0.82, -0.58, -0.58, -0.82, 491.35, 3324.37)" xlink:href="#名称未設定グラデーション_10"/><linearGradient id="名称未設定グラデーション_10-4" x1="1668.82" y1="2498.98" x2="1668.82" y2="2526.32" gradientTransform="matrix(1, 0, 0, -1, -1257.97, 2821.75)" xlink:href="#名称未設定グラデーション_10"/><linearGradient id="名称未設定グラデーション_10-5" x1="1564.03" y1="2526.32" x2="1564.03" y2="2553.66" gradientTransform="matrix(0.82, -0.58, -0.58, -0.82, 491.35, 3324.36)" xlink:href="#名称未設定グラデーション_10"/><linearGradient id="名称未設定グラデーション_10-6" x1="1591.36" y1="2457.98" x2="1591.36" y2="2485.32" gradientTransform="matrix(0.82, -0.58, -0.58, -0.82, 491.34, 3324.36)" xlink:href="#名称未設定グラデーション_10"/><linearGradient id="名称未設定グラデーション_10-7" x1="752.7" y1="444.45" x2="752.7" y2="581.78" xlink:href="#名称未設定グラデーション_10"/><linearGradient id="名称未設定グラデーション_10-8" x1="676.63" y1="361.95" x2="676.63" y2="597.47" xlink:href="#名称未設定グラデーション_10"/><linearGradient id="名称未設定グラデーション_9" x1="670.36" y1="478.48" x2="670.36" y2="488.6" gradientTransform="matrix(1, 0, 0, -1, -115, 724.81)" gradientUnits="userSpaceOnUse"><stop offset="0" stop-color="#fff"/><stop offset="1"/></linearGradient><linearGradient id="名称未設定グラデーション_10-9" x1="612.65" y1="100.55" x2="612.65" y2="724.81" xlink:href="#名称未設定グラデーション_10"/></defs><g id="レイヤー_2" data-name="レイヤー 2"><g id="c8a8ddad-a781-47c5-a247-afce95df410f"><g class="cls-1"><path class="cls-2" d="M918.84,194.64H786V143.81a53.24,53.24,0,0,0-53.24-53.24H124.53a48.29,48.29,0,0,0-48.3,48.3h0v55.8h-20A56.21,56.21,0,0,0,0,250.81v252a56.2,56.2,0,0,0,52,56v57h56.78V559h71.5v57.31h56.78V559h511v57.31h56.78V559h47.32v56.78H909V559h10.23A50.77,50.77,0,0,0,970,508.23h0V245.81a51.15,51.15,0,0,0-51.15-51.17ZM776,417v42.58H564.32a27.58,27.58,0,0,0,3.49-13.43V417Z"/></g><rect class="cls-3" x="68.12" y="537.68" width="54.67" height="68.34"/><rect class="cls-3" x="738.37" y="538.19" width="54.67" height="68.34"/><rect class="cls-3" x="838.6" y="537.68" width="54.67" height="68.34"/><rect class="cls-3" x="191.64" y="538.19" width="54.67" height="68.34"/><rect class="cls-4" x="68.12" y="537.68" width="54.67" height="68.34"/><rect class="cls-4" x="738.37" y="538.19" width="54.67" height="68.34"/><rect class="cls-4" x="838.6" y="537.68" width="54.67" height="68.34"/><rect class="cls-4" x="191.64" y="538.19" width="54.67" height="68.34"/><path class="cls-3" d="M765.2,200.53H902.74A49.25,49.25,0,0,1,952,249.79h0V502.48a48.87,48.87,0,0,1-48.87,48.87H765.2V200.53Z"/><path class="cls-4" d="M765.2,200.53H902.74A49.25,49.25,0,0,1,952,249.79h0V502.48a48.87,48.87,0,0,1-48.87,48.87H765.2V200.53Z"/><path class="cls-3" d="M137.91,100.3H401.22V414.67H91.4V146.8A46.51,46.51,0,0,1,137.91,100.3Z"/><path class="cls-4" d="M139.41,100.3H401.22V414.67H91.4V148.3a48,48,0,0,1,48-48Z"/><path class="cls-3" d="M209.2,100.3H464.5V414.67H154.68V154.81a54.5,54.5,0,0,1,54.51-54.51Z"/><path class="cls-3" d="M463,100.3H723.55a51.26,51.26,0,0,1,51.27,51.27h0v263.1H463V100.3Z"/><path class="cls-3" d="M851.77,200.53h51A49.25,49.25,0,0,1,952,249.79V502.48a48.87,48.87,0,0,1-48.87,48.87H851.77V200.53Z"/><rect class="cls-3" x="223.02" y="455.67" width="628.74" height="95.68"/><rect class="cls-5" x="267.65" y="218.97" width="185.66" height="195.43" rx="57.05" transform="translate(-74.22 113.53) rotate(-16.25)"/><rect class="cls-6" x="270.61" y="227.88" width="173.13" height="182.24" rx="53.2" transform="translate(-75 112.69) rotate(-16.25)"/><rect class="cls-7" x="270.61" y="227.88" width="173.13" height="182.24" rx="53.2" transform="translate(-75 112.69) rotate(-16.25)"/><rect class="cls-6" x="273.91" y="225.56" width="173.13" height="182.24" rx="53.2" transform="translate(-74.22 113.52) rotate(-16.25)"/><circle class="cls-8" cx="345.45" cy="271.54" r="13.67"/><circle class="cls-9" cx="410.85" cy="309.09" r="13.67" transform="translate(-103.02 292.63) rotate(-35.12)"/><circle class="cls-10" cx="309.4" cy="347.01" r="13.67"/><circle class="cls-11" cx="371.07" cy="387.18" r="13.67"/><circle class="cls-12" cx="345.45" cy="271.54" r="9.11"/><circle class="cls-12" cx="410.85" cy="309.09" r="9.11"/><circle class="cls-12" cx="309.4" cy="347.01" r="9.11"/><circle class="cls-12" cx="371.07" cy="387.18" r="9.11"/><path class="cls-3" d="M72.13,200.53h201V551.35h-201A54.13,54.13,0,0,1,18,497.23V254.66A54.12,54.12,0,0,1,72.13,200.53Z"/><path class="cls-4" d="M72.51,200.53H222.7A50.44,50.44,0,0,1,273.14,251V500.91a50.44,50.44,0,0,1-50.44,50.44H72.51A54.51,54.51,0,0,1,18,496.84V255A54.51,54.51,0,0,1,72.51,200.53Z"/><path class="cls-7" d="M173.41,200.53H261.2a17,17,0,0,1,17,17V534.35a17,17,0,0,1-17,17H173.41V200.53Z"/><path class="cls-3" d="M168.35,200.53h87.79a17,17,0,0,1,17,17V534.35a17,17,0,0,1-17,17H168.35V200.53Z"/><rect class="cls-3" x="250.36" y="382.78" width="314.37" height="86.57"/><rect class="cls-3" x="565.24" y="383.28" width="314.37" height="86.57"/><rect class="cls-13" x="250.36" y="382.78" width="314.37" height="86.57" rx="26.6"/><circle class="cls-3" cx="601.43" cy="205.34" r="18.22"/><circle class="cls-4" cx="601.43" cy="205.34" r="18.22"/><circle class="cls-3" cx="318.96" cy="205.34" r="18.22"/><circle class="cls-4" cx="318.96" cy="205.34" r="18.22"/><ellipse class="cls-14" cx="309.84" cy="102.32" rx="4.56" ry="6.83"/><rect class="cls-13" x="565.24" y="383.28" width="314.37" height="86.57" rx="26.6"/><g class="cls-1"><path class="cls-15" d="M672.44,208c-2.09-11.49-4.23-23.11-9-33.8a74.16,74.16,0,0,0-23.75-29.56,8,8,0,0,0-5.36-1.6h0c-3,.26-3.92,2.1-4.39,4-.06.23-.11.45-.15.68-1.18,5.83-.39,11.59,1.32,17.27,2.13,7.09,5.7,14,8.67,20.86a139.06,139.06,0,0,1,10.53,38.6,53,53,0,0,1,.43,5.38,31.74,31.74,0,0,1-.08,3.23,19.08,19.08,0,0,1-1.42,6.13l-.45,1a6.15,6.15,0,0,1-.52.92c-1.82,3-4.66,5.14-7.44,7.25s-5.93,4.36-9.25,5.5h.11a13.62,13.62,0,0,1-4.82.79c-5.13-.16-10.6-4.29-15.76-3.32h0l-.58.13c-5.28,1.43-9.33,9.73-9.37,15h0v1.22a1.21,1.21,0,0,0,.05.42c0,.14.06.53.1.78a3.4,3.4,0,0,0,.1.46c0,.15.09.45.15.67s.09.31.14.46.13.41.2.61.12.3.18.44.16.38.25.56l.22.42c.1.17.19.35.3.52l.26.4.34.48.29.37.39.44.32.34.43.41.35.31.47.38.37.29.51.35.38.26.56.33.39.22.63.31.37.18c.3.14.61.27.92.39l.45.17.72.26.52.16.59.18.58.15.56.14.62.13.54.11.65.11.52.08.67.09.5.06.7.06h5.1l.88-.07h.17a29.06,29.06,0,0,0,7.31-1.61c7.47-2.83,13.81-8,19.68-13.43,11.64-10.75,22.64-24.09,23.57-39.91C674.52,219.47,673.47,213.71,672.44,208Z"/></g><rect class="cls-7" x="528.94" y="204.22" width="94.27" height="27.29"/><rect class="cls-3" x="528.94" y="204.22" width="94.27" height="24.81"/><circle class="cls-3" cx="583.52" cy="192.65" r="14.88"/><path class="cls-16" d="M555.46,215.55l-.18-.18a2.74,2.74,0,0,0,.53-3.84,2.66,2.66,0,0,0-.53-.53l.16-.2A3,3,0,0,1,556,215a3.32,3.32,0,0,1-.53.53Z"/><path class="cls-7" d="M555.46,215.55l-.18-.18a2.74,2.74,0,0,0,.53-3.84,2.66,2.66,0,0,0-.53-.53l.16-.2A3,3,0,0,1,556,215a3.32,3.32,0,0,1-.53.53Z"/><path class="cls-16" d="M555.28,215.55a3,3,0,0,1-.53-4.21,2.66,2.66,0,0,1,.53-.53l.16.2a2.74,2.74,0,0,0-.53,3.84,3,3,0,0,0,.53.53Z"/><path class="cls-17" d="M631.51,295.61c6.83-2.59,12.62-7.32,18-12.28,10.64-9.82,20.68-22,21.54-36.47.31-5.28-.64-10.54-1.59-15.75-1.91-10.5-3.86-21.12-8.19-30.88a67.75,67.75,0,0,0-21.7-27,7.23,7.23,0,0,0-4.91-1.46c-3,.27-3.76,2.33-4.16,4.3-2.43,12,4.24,23.64,9.12,34.84a127,127,0,0,1,9.62,35.27c.63,5.16.86,10.74-1.86,15.18-1.66,2.72-4.26,4.7-6.8,6.62-3.8,2.87-8,5.88-12.76,5.74s-10.08-4.23-15-2.91-8.53,8.89-8.56,13.74C604.2,297.69,622.37,299.07,631.51,295.61Z"/><g class="cls-18"><path d="M647.36,261.36c-1.66,2.72-4.26,4.7-6.8,6.62a32,32,0,0,1-8.46,5c4.32-.29,8.19-3,11.7-5.69,2.54-1.92,5.14-3.91,6.8-6.62,2.71-4.43,2.49-10,1.86-15.18a127,127,0,0,0-9.62-35.27c-4.88-11.21-11.56-22.86-9.12-34.84a5.19,5.19,0,0,1,2-3.62,6.86,6.86,0,0,0-1.11,0c-3,.27-3.76,2.33-4.16,4.3-2.43,12,4.24,23.64,9.12,34.84a127,127,0,0,1,9.62,35.27C649.85,251.34,650.08,256.92,647.36,261.36Z"/><path d="M607.52,283.89c0-4.48,3.19-11.29,7.48-13.33a7.58,7.58,0,0,0-2.17.25c-4.83,1.31-8.53,8.89-8.56,13.74-.06,12.26,15.73,14.26,25.28,11.69C620.06,297.62,607.46,294.81,607.52,283.89Z"/></g><g class="cls-1"><path class="cls-19" d="M537.87,147.2s27.24-5.45,40.86,0c0,0,8.17-19.07,16.34-19.07s10.89,30,10.89,30l10.89,43.58s51.75,92.61,0,141.63S483.4,337.86,483.4,302.45s16.34-108.94,16.34-108.94,16.34-59.92,21.79-65.37S537.87,147.2,537.87,147.2Z"/></g><path class="cls-17" d="M538.79,151s26.18-5.24,39.27,0c0,0,7.85-18.33,15.71-18.33s10.47,28.8,10.47,28.8l10.47,41.89s49.75,89,0,136.15-128.3-5.24-128.3-39.27S502.12,195.5,502.12,195.5s15.71-57.6,21-62.84S538.79,151,538.79,151Z"/><g class="cls-18"><path class="cls-20" d="M633,252.29a207.1,207.1,0,0,0-18.32-48.93l1.65,6.62A207.32,207.32,0,0,1,633,252.29Z"/><path class="cls-20" d="M491.12,293.18c0-34,12.67-91.06,12.67-91.06s15.71-57.6,20.95-62.84,15.71,18.33,15.71,18.33,26.18-5.24,39.27,0c0,0,7.86-18.33,15.71-18.33,3,0,5.31,4.34,6.93,9.65-1.6-7.77-4.32-16.27-8.58-16.27-7.85,0-15.71,18.33-15.71,18.33-13.09-5.24-39.27,0-39.27,0s-10.47-23.56-15.71-18.33-21,62.84-21,62.84-12.67,57-12.67,91.06C489.46,289.64,491.12,294.16,491.12,293.18Z"/></g><circle class="cls-21" cx="589.85" cy="196.81" r="5.24"/><circle class="cls-21" cx="529.63" cy="196.81" r="5.24"/><ellipse class="cls-21" cx="561.05" cy="202.05" rx="7.85" ry="5.24"/><rect class="cls-17" x="605.27" y="192.83" width="24.14" height="2.62" transform="translate(-27.41 138.44) rotate(-12.52)"/><rect class="cls-17" x="605.31" y="203.31" width="26.7" height="2.62" transform="translate(-28.06 124.85) rotate(-11.27)"/><rect class="cls-17" x="496.89" y="174.85" width="2.62" height="28.2" transform="translate(137.75 581.35) rotate(-68.2)"/><rect class="cls-17" x="493.01" y="182.23" width="2.62" height="34.44" transform="translate(221.99 657.67) rotate(-81.25)"/><path class="cls-7" d="M554.52,235.55a120.81,120.81,0,0,1-20.45-1.74,113.1,113.1,0,0,1-36.92-13.27l.91-4.23a124.52,124.52,0,0,0,37,13c18.85,3.23,51.27,2.26,84.22-15.92l2.2,4C597.56,230.61,572.38,235.55,554.52,235.55Z"/><path class="cls-6" d="M619.28,212.42c-33,18.18-65.38,19.15-84.22,15.92a124.52,124.52,0,0,1-37-13l-2.42,3.86a126.4,126.4,0,0,0,38.43,13.61,120.94,120.94,0,0,0,20.46,1.75c17.86,0,43-4.93,67-18.13ZM555.37,234.2a.51.51,0,1,1,.51-.51.51.51,0,0,1-.51.51Z"/><path class="cls-22" d="M550.3,241.28h0a5.07,5.07,0,0,0,5.06,5.06h0a5.07,5.07,0,0,0,5.06-5.06h0a5.06,5.06,0,0,0-5.06-5.06h0A5.06,5.06,0,0,0,550.3,241.28Zm5.06-2.53a.84.84,0,1,1,.84-.84.85.85,0,0,1-.84.84Z"/><path class="cls-16" d="M550.81,241.28h0a4.56,4.56,0,0,0,4.56,4.56h0a4.56,4.56,0,0,0,4.56-4.56h0a4.56,4.56,0,0,0-4.56-4.56h0A4.56,4.56,0,0,0,550.81,241.28Zm4.56-2.28a.76.76,0,1,1,.76-.76.76.76,0,0,1-.76.76Z"/><path class="cls-17" d="M612.57,213.94c-69.69,41-109.85,3-109.85,3Z"/><path class="cls-23" d="M803.75,415.37c-4.27-12.11-50,22-50,22l-10.57-.63L722.84,417.9,737,403.7,617.8,301.45a30,30,0,0,0-23.31-7l-99.13,12.36c-.43-5.68-3.93-12.43-8.88-19.32C476.31,270.81,454.9,252,447,245.29l-12.12-81.48,10.27-15.41a52.59,52.59,0,0,1-5.6-1.88l2.17-3.26-.8-.22,1-1.18h-.12l25.58-29.6a11.22,11.22,0,0,0-.84-15.55l-57.25-43.5a31.5,31.5,0,0,0,2.44-13.1c.45-8.64-3.42-17.41-16.39-23.9a126.1,126.1,0,0,0-25.08-8.86A82.22,82.22,0,0,0,326.9,8c-.23-.29-.48-.58-.74-.88-17.62-20.14-40.73,8.8-41.63,10L194.21,117.57A18.35,18.35,0,0,0,198.73,142l47.81,35.85-.15.31,2.7,2c-2,4-4.79,6.7-8.44,7.11L248,191a8.49,8.49,0,0,1-3.9,1.47l33.52,16.76c0,17.42,1.8,97.17,30.12,136.32A72.42,72.42,0,0,0,318,358.81s2.41-1.31,6.81-3.43l5.06,10.13a59.24,59.24,0,0,0,61.37,32.15l157.35-22.48-1.67,5,.9-.13-51,153,8.42,2.81-.16.3,1.19.51-10.61,20-33.39,25.68s97.59,48.79,107.86,41.09-36-41.09-36-41.09l-2.57-10.27,11.23-23.71,9.41,3.14,75.62-151.24h0l2.57-5.14,51.18,64L696,444.71l1.56,1.58.13-.13,20,20.24L732.18,506S808,427.48,803.75,415.37Zm-397-294.1-1-1.16c-6.1,7.63-16.89,16.86-28.92,23.11v-8.41l.57-.5v-3.66A55.51,55.51,0,0,0,393.1,74.3l33.22,25.51ZM294,26.44l-.8-.8.81.8ZM267.45,79.92c-.22,2.66-.31,5.35-.27,8a83.62,83.62,0,0,0,.65,11.73c1.71,13.59,6.58,24.7,16.61,30,8.74,4.6,14.49,4.35,18.15,1.21l.4.36a39.52,39.52,0,0,0,4.06,15.28,161.68,161.68,0,0,1-52.81-21.27s.06.68.13,1.9l-13.74-13.74Z"/><polygon class="cls-14" points="518.17 507.28 495.72 549.69 530.64 564.65 553.09 517.26 518.17 507.28"/><path class="cls-24" d="M530.64,564.65l2.49,10s44.9,32.43,34.92,39.91-104.77-39.91-104.77-39.91l32.43-24.95Z"/><polygon class="cls-7" points="550.7 521.66 515.37 509.89 504.86 529.73 539.78 544.7 550.7 521.66"/><polygon class="cls-14" points="677.69 427.84 711.41 461.98 736.16 433.15 697.68 397.52 677.69 427.84"/><polygon class="cls-7" points="699.07 399.18 679.08 429.51 691.86 442.44 717.79 416.51 699.07 399.18"/><path class="cls-24" d="M736.16,433.14l10.27.61s44.4-33.11,48.55-21.35-69.49,88-69.49,88L711.42,462Z"/><path class="cls-14" d="M416.45,177.88l51.82-60a10.9,10.9,0,0,0-.82-15.11L354.69,17.31,341,38.67l87.39,67.27-37.1,40.68Z"/><path class="cls-7" d="M410.5,125.63l-18.13,19.88,25.19,31.3,26-30.06A75.8,75.8,0,0,1,410.5,125.63Z"/><path class="cls-14" d="M266,190.9l-58.67-44a17.84,17.84,0,0,1-4.39-23.76l87.79-97.69,18,18L248,119.1,283.9,155Z"/><path class="cls-7" d="M253.59,182l9.6,7.2,18-35.9-22.6-22.53C259.07,138.45,260.42,168.14,253.59,182Z"/><polygon class="cls-16" points="550.69 365.15 496.83 526.72 550.69 544.67 640.44 365.15 568.64 347.2 550.69 365.15"/><polygon class="cls-7" points="548.19 370.14 545.5 378.22 602.05 370.14 624.14 397.76 637.95 370.14 566.14 352.19 548.19 370.14"/><path class="cls-14" d="M290.61,25.56s23-29.66,40.47-9.7-27.44,22.45-27.44,22.45Z"/><path class="cls-16" d="M317.32,329.25,334.67,364a57.56,57.56,0,0,0,59.61,31.23l210.26-30L676.35,455,730.2,401.1,614.35,301.8A29.21,29.21,0,0,0,591.71,295Z"/><path class="cls-7" d="M264.56,135.6s4.73,58.3-13.22,60.3l35.9,18s-2,105.71,35.9,143.61c0,0,69.81-37.9,143.61-35.9s-18-71.81-18-71.81l-12.12-81.72,10-15a75,75,0,0,1-34.92-22.45h0C401.71,143.1,378.85,160,359,160h-8.58c-29.56,0-61-6-85.91-21.9Z"/><path class="cls-25" d="M261.23,130.61S266,188.91,248,190.9l35.9,18s-2,105.71,35.9,143.61c0,0,69.81-37.9,143.61-35.9s-18-71.81-18-71.81l-12.12-81.72,10-15a75,75,0,0,1-34.92-22.45h0c-10,12.47-32.86,29.38-52.69,29.38H347.1c-29.56,0-61-8.47-85.91-24.4Z"/><path class="cls-14" d="M308.52,114.17v20a38.32,38.32,0,0,0,11.22,27.08l42.64,42.64,14.19-28.39a35.66,35.66,0,0,0,3.76-15.92V114.17Z"/><path class="cls-7" d="M309.07,137.26c0,.74,0,1.47.07,2.21a53.84,53.84,0,0,0,71.74-.06V117.22H309.07Z"/><circle class="cls-14" cx="344.42" cy="96.23" r="53.85"/><path class="cls-7" d="M308.52,81h89.76s35.9-35.9,0-53.85a122.46,122.46,0,0,0-24.36-8.6c-54.59-13.84-106.5,31.31-99.48,87.19,1.66,13.2,6.39,24,16.13,29.11C328.46,154.81,308.52,81,308.52,81Z"/><path class="cls-24" d="M308.52,78.55h89.76s35.9-35.9,0-53.85a122.46,122.46,0,0,0-24.36-8.6c-54.59-13.84-106.5,31.31-99.48,87.19,1.66,13.2,6.39,24,16.13,29.11C328.46,152.35,308.52,78.55,308.52,78.55Z"/><ellipse class="cls-14" cx="311.12" cy="96.93" rx="4.99" ry="8.73"/><polygon class="cls-7" points="283.68 207.94 286.18 200.45 293.66 205.44 283.68 207.94"/><path class="cls-7" d="M445.55,244.81s-27.16,13-34.65,25.5"/><polygon class="cls-7" points="433.35 163.04 430.86 170.52 425.87 163.04 433.35 163.04"/><path class="cls-24" d="M308.52,78.55h89.76s35.9-35.9,0-53.85a122.46,122.46,0,0,0-24.36-8.6c-54.59-13.84-106.5,31.31-99.48,87.19,1.66,13.2,6.39,24,16.13,29.11C328.46,152.35,308.52,78.55,308.52,78.55Z"/><path class="cls-7" d="M550,280.17s18.21,39.59-5.7,43-13-33.16-13-33.16-2.39-10.85-8.21-11.46"/><path class="cls-7" d="M572,279.21s-21.65,37.82,1.86,43.3,15.89-31.87,15.89-31.87,3.34-10.59,9.2-10.69"/><path class="cls-17" d="M547.89,279.06s18.21,39.59-5.7,43-13-33.16-13-33.16S526.8,278,521,277.41"/><path class="cls-17" d="M573.69,277.54s-21.69,37.83,1.86,43.27,15.89-31.87,15.89-31.87,3.34-10.59,9.2-10.69"/><rect class="cls-26" x="534.52" y="313.83" width="0.41" height="7.73"/><rect class="cls-26" x="541.14" y="313.83" width="0.41" height="7.73"/><rect class="cls-26" x="537.55" y="311.37" width="0.41" height="10.81"/><rect class="cls-26" x="577.52" y="312.18" width="0.41" height="7.73"/><rect class="cls-26" x="584.14" y="312.18" width="0.41" height="7.73"/><rect class="cls-26" x="580.55" y="309.71" width="0.41" height="10.81"/></g></g></svg>