<svg width="282" height="361" viewBox="0 0 282 361" fill="none" xmlns="http://www.w3.org/2000/svg">
<path d="M233.051 113.571C232.293 112.911 231.524 112.252 230.744 111.604C227.353 108.769 223.826 106.096 220.163 103.584C206.824 91.1372 197.695 74.8426 194.048 56.9666C193.045 67.1731 190.248 77.1223 185.786 86.3563C178.17 102.07 166.07 115.176 151.013 124.019C151.419 119.624 151.639 115.23 151.639 110.835C151.649 100.157 150.447 89.5121 148.057 79.105C140.791 47.7388 122.982 19.8156 97.6057 0C97.7376 2.49767 97.8035 5.00998 97.8035 7.53695C97.8488 44.5735 83.2341 80.1227 57.1523 106.418C54.0101 108.733 50.9741 111.175 48.0443 113.746C45.488 115.988 43.016 118.313 40.6282 120.723C20.8075 140.77 7.46916 166.31 2.34384 194.031C-2.78148 221.752 0.542815 250.374 11.8854 276.182C23.228 301.99 42.0652 323.794 65.9529 338.764C89.8406 353.734 117.676 361.179 145.847 360.134C174.019 359.088 201.226 349.6 223.938 332.9C246.65 316.2 263.819 293.06 273.217 266.482C282.615 239.904 283.809 211.115 276.643 183.85C269.476 156.585 254.281 132.104 233.029 113.582L233.051 113.571Z" fill="#F5800B"/>
</svg>
