<svg width="283" height="385" viewBox="0 0 283 385" fill="none" xmlns="http://www.w3.org/2000/svg">
<path d="M265.088 308.958L11.9028 353.601C5.32957 354.76 0.940501 361.028 2.09954 367.602L3.06872 373.098C4.22775 379.671 10.496 384.06 17.0692 382.901L270.255 338.258C276.828 337.099 281.217 330.831 280.058 324.257L279.089 318.761C277.93 312.188 271.661 307.799 265.088 308.958Z" fill="#F5800B"/>
<path d="M11.9019 338.255L265.087 382.898C271.661 384.057 277.929 379.668 279.088 373.095L280.057 367.599C281.216 361.025 276.827 354.757 270.254 353.598L17.0683 308.955C10.4951 307.796 4.22684 312.185 3.0678 318.758L2.09862 324.255C0.939586 330.828 5.32866 337.096 11.9019 338.255Z" fill="#F5800B"/>
<path d="M233.477 113.571C232.719 112.911 231.95 112.252 231.17 111.604C227.779 108.769 224.252 106.096 220.59 103.584C207.25 91.1372 198.122 74.8426 194.474 56.9666C193.471 67.1731 190.674 77.1223 186.212 86.3563C178.596 102.07 166.496 115.176 151.439 124.019C151.845 119.624 152.065 115.23 152.065 110.835C152.075 100.157 150.874 89.5121 148.484 79.105C141.218 47.7388 123.409 19.8156 98.0321 0C98.164 2.49767 98.2299 5.00998 98.2299 7.53695C98.2752 44.5735 83.6605 80.1227 57.5787 106.418C54.4365 108.733 51.4005 111.175 48.4706 113.746C45.9144 115.988 43.4423 118.313 41.0545 120.723C21.2339 140.77 7.89556 166.31 2.77023 194.031C-2.35509 221.752 0.969207 250.374 12.3118 276.182C23.6543 301.99 42.4916 323.794 66.3793 338.764C90.267 353.734 118.102 361.179 146.274 360.134C174.445 359.088 201.652 349.6 224.364 332.9C247.077 316.2 264.246 293.06 273.644 266.482C283.042 239.904 284.235 211.115 277.069 183.85C269.903 156.585 254.708 132.104 233.455 113.582L233.477 113.571Z" fill="#F5800B"/>
</svg>
