<?xml version="1.0" encoding="utf-8"?>
<!-- Generator: Adobe Illustrator 24.3.0, SVG Export Plug-In . SVG Version: 6.00 Build 0)  -->
<svg version="1.1" id="レイヤー_1" xmlns="http://www.w3.org/2000/svg" xmlns:xlink="http://www.w3.org/1999/xlink" x="0px"
	 y="0px" viewBox="0 0 87 127.5" style="enable-background:new 0 0 87 127.5;" xml:space="preserve">
<style type="text/css">
	.st0{fill:#F9FAFA;}
	.st1{fill:#54AD9E;}
	.st2{fill:#E7F3F1;}
	.st3{enable-background:new    ;}
</style>
<g id="レイヤー_2_1_">
	<g id="レイヤー_6">
		<path d="M16.5,0h54c4.4,0,8,3.6,8,8v111.5c0,4.4-3.6,8-8,8h-54c-4.4,0-8-3.6-8-8V8C8.5,3.6,12.1,0,16.5,0z"/>
		<path class="st0" d="M18.5,5.5h50c3.3,0,6,2.7,6,6v105c0,3.3-2.7,6-6,6h-50c-3.3,0-6-2.7-6-6v-105C12.5,8.2,15.2,5.5,18.5,5.5z"/>
		<path d="M28.5,0.5h30c1.7,0,3,1.3,3,3v3c0,1.7-1.3,3-3,3h-30c-1.7,0-3-1.3-3-3v-3C25.5,1.8,26.8,0.5,28.5,0.5z"/>
		<path class="st1" d="M5,59.5h77c2.8,0,5,2.2,5,5v24c0,2.8-2.2,5-5,5H5c-2.8,0-5-2.2-5-5v-24C0,61.7,2.2,59.5,5,59.5z"/>
		<path class="st1" d="M36.8,21.5h14.5c3.5,0,6.3,2.8,6.3,6.3v14.5c0,3.5-2.8,6.3-6.3,6.3H36.8c-3.5,0-6.3-2.8-6.3-6.3V27.8
			C30.5,24.3,33.3,21.5,36.8,21.5z"/>
		<path class="st2" d="M51.3,41.8l-14.9,2.6c-0.4,0.1-0.6,0.4-0.6,0.8l0.1,0.3c0.1,0.4,0.4,0.6,0.8,0.6c0,0,0,0,0,0l14.9-2.6
			c0.4-0.1,0.6-0.4,0.6-0.8l-0.1-0.3C52.1,42,51.7,41.8,51.3,41.8C51.3,41.8,51.3,41.8,51.3,41.8z"/>
		<path class="st2" d="M36.4,43.6l14.9,2.6c0.4,0.1,0.8-0.2,0.8-0.6c0,0,0,0,0,0l0.1-0.3c0.1-0.4-0.2-0.8-0.6-0.8l-14.9-2.6
			c-0.4-0.1-0.8,0.2-0.8,0.6c0,0,0,0,0,0l-0.1,0.3C35.7,43.1,36,43.5,36.4,43.6z"/>
		<path class="st2" d="M49.5,30.3l-0.1-0.1l-0.6-0.5C47.9,29,47.4,28,47.2,27c-0.2,1.6-1.1,3.1-2.5,4c0-0.2,0-0.5,0-0.8
			c0-2.6-1.2-5-3.2-6.5c0,0.1,0,0.3,0,0.5c0,2.2-0.9,4.3-2.4,5.8c-0.2,0.1-0.4,0.3-0.5,0.4l-0.4,0.4c-3.2,3.3-3.2,8.5,0.1,11.7
			c1.6,1.6,3.8,2.5,6.1,2.4c1.7-0.1,3.3-0.6,4.6-1.6c3.7-2.7,4.5-7.9,1.8-11.6C50.3,31.2,49.9,30.7,49.5,30.3L49.5,30.3z"/>
		<g class="st3">
			<path class="st2" d="M19.4,73.3c1,0,1.5,0.4,1.5,1.1c0,0.2,0,0.4-0.1,0.6c-0.8,2.8-3.2,5.5-5.9,7c-0.1,0.1-0.3,0.1-0.4,0.1
				c-0.4,0-0.7-0.3-0.7-0.7c0-0.2,0.1-0.5,0.4-0.6c1.1-0.6,2.2-1.5,3.1-2.5c-0.5-0.5-1-0.8-1.4-1.1c-0.2-0.2-0.3-0.3-0.3-0.5
				c0-0.3,0.3-0.6,0.7-0.6c0.1,0,0.3,0,0.4,0.1c0.5,0.3,0.9,0.7,1.4,1.1c0.5-0.8,0.9-1.6,1.2-2.4c0-0.1,0-0.1,0-0.2
				c0-0.1-0.1-0.2-0.3-0.2l-2.9,0c-0.6,0.9-1.3,1.8-2,2.4c-0.2,0.2-0.4,0.2-0.5,0.2c-0.4,0-0.7-0.3-0.7-0.6c0-0.2,0.1-0.4,0.3-0.6
				c1.1-1,2.3-2.6,2.9-4.1c0.1-0.3,0.4-0.5,0.7-0.5c0.3,0,0.7,0.2,0.7,0.6c0,0.1,0,0.2-0.1,0.3c-0.1,0.3-0.3,0.7-0.5,1L19.4,73.3z
				 M20.1,71.9c0-0.2,0.2-0.4,0.5-0.4c0.1,0,0.3,0,0.4,0.2c0.3,0.3,0.6,0.7,0.8,1.1c0.1,0.1,0.1,0.2,0.1,0.3c0,0.3-0.2,0.5-0.5,0.5
				c-0.2,0-0.3-0.1-0.4-0.3c-0.3-0.4-0.5-0.8-0.8-1.1C20.1,72.1,20.1,72,20.1,71.9z M21.4,71.1c0-0.2,0.2-0.4,0.5-0.4
				c0.1,0,0.3,0,0.4,0.2c0.3,0.3,0.6,0.7,0.8,1.1c0.1,0.1,0.1,0.2,0.1,0.3c0,0.3-0.2,0.5-0.5,0.5c-0.2,0-0.3-0.1-0.4-0.3
				c-0.2-0.4-0.5-0.8-0.8-1.1C21.4,71.3,21.4,71.2,21.4,71.1z"/>
			<path class="st2" d="M29.7,73.3c1.3,0,1.8,0.6,1.8,1.4c0,0.1,0,0.2,0,0.3c-0.4,3.1-2.3,5.4-5,6.5c-0.1,0-0.3,0.1-0.4,0.1
				c-0.4,0-0.7-0.3-0.7-0.7c0-0.3,0.2-0.5,0.5-0.7c2.4-1,3.8-2.7,4.1-5.1c0.1-0.4,0-0.5-0.5-0.5H25c-0.5,0-0.6,0.1-0.6,0.5v1.5
				c0,0.4-0.3,0.6-0.7,0.6c-0.3,0-0.7-0.2-0.7-0.6v-1.9c0-1,0.5-1.4,1.6-1.4h1.8V72c0-0.4,0.3-0.6,0.7-0.6c0.3,0,0.7,0.2,0.7,0.6
				v1.3H29.7z"/>
		</g>
		<g class="st3">
			<path class="st2" d="M36.7,74.2c0.2,0.2,0.2,0.3,0.2,0.5c0,0.4-0.4,0.8-0.8,0.8c-0.2,0-0.4-0.1-0.5-0.2c-0.5-0.5-1.1-1-1.6-1.5
				c-0.2-0.2-0.3-0.3-0.3-0.5c0-0.4,0.3-0.7,0.8-0.7c0.2,0,0.3,0,0.5,0.2C35.5,73.1,36.2,73.6,36.7,74.2z M42,73.9
				c0.4,0,0.7,0.3,0.7,0.7c0,0.1,0,0.3-0.1,0.4c-1.7,3-4.4,5.2-7.4,6.3c-0.1,0-0.2,0.1-0.3,0.1c-0.4,0-0.7-0.4-0.7-0.7
				c0-0.3,0.1-0.5,0.5-0.6c2.7-1,5.3-3.1,6.8-5.7C41.5,74,41.8,73.9,42,73.9z"/>
		</g>
		<g class="st3">
			<path class="st2" d="M47.1,80.8c-1.4,0-2-0.6-2-1.7v-4.5c0-1.1,0.6-1.7,2-1.7h4.7c1.4,0,2,0.6,2,1.7v4.5c0,1.1-0.6,1.7-2,1.7
				H47.1z M51.6,79.5c0.6,0,0.7-0.2,0.7-0.6v-4.1c0-0.4-0.2-0.6-0.7-0.6h-4.3c-0.6,0-0.7,0.2-0.7,0.6v4.1c0,0.4,0.2,0.6,0.7,0.6
				H51.6z"/>
		</g>
		<g class="st3">
			<path class="st2" d="M64.6,76c0.4,0,0.6,0.3,0.6,0.7c0,0.3-0.2,0.7-0.6,0.7h-8.8c-0.4,0-0.6-0.3-0.6-0.7c0-0.3,0.2-0.7,0.6-0.7
				H64.6z"/>
		</g>
		<g class="st3">
			<path class="st2" d="M67.9,75.5c0.1-0.2,0.3-0.4,0.6-0.4c0.1,0,0.2,0,0.3,0.1c0.7,0.3,1.8,0.9,2.5,1.5c0.2,0.2,0.3,0.4,0.3,0.6
				c0,0.4-0.3,0.7-0.7,0.7c-0.2,0-0.3,0-0.5-0.2c-0.7-0.5-1.7-1.2-2.2-1.4c-0.2-0.1-0.3-0.2-0.3-0.3v5.2c0,0.4-0.3,0.6-0.7,0.6
				c-0.3,0-0.7-0.2-0.7-0.6v-9.2c0-0.4,0.4-0.6,0.7-0.6c0.4,0,0.7,0.2,0.7,0.6V75.5z M69.9,73c0-0.2,0.2-0.5,0.5-0.5
				c0.1,0,0.2,0,0.3,0.1c0.3,0.3,0.7,0.7,0.9,1c0.1,0.1,0.1,0.2,0.1,0.3c0,0.3-0.2,0.5-0.5,0.5c-0.1,0-0.3-0.1-0.4-0.2
				c-0.3-0.4-0.6-0.7-0.9-1C69.9,73.1,69.9,73,69.9,73z M71.1,72c0-0.2,0.2-0.4,0.5-0.4c0.1,0,0.2,0,0.4,0.1c0.3,0.3,0.7,0.6,0.9,1
				C73,72.8,73,72.9,73,73c0,0.3-0.2,0.5-0.5,0.5c-0.1,0-0.3-0.1-0.4-0.2c-0.3-0.3-0.6-0.7-0.9-1C71.1,72.2,71.1,72.1,71.1,72z"/>
		</g>
	</g>
</g>
</svg>
