<?xml version="1.0" encoding="utf-8"?>
<!-- Generator: Adobe Illustrator 24.3.0, SVG Export Plug-In . SVG Version: 6.00 Build 0)  -->
<svg version="1.1" id="レイヤー_1" xmlns="http://www.w3.org/2000/svg" xmlns:xlink="http://www.w3.org/1999/xlink" x="0px"
	 y="0px" viewBox="0 0 101 127.5" style="enable-background:new 0 0 101 127.5;" xml:space="preserve">
<style type="text/css">
	.st0{fill:#F9FAFA;}
	.st1{fill:#54AD9E;}
	.st2{fill:#F5800B;}
	.st3{enable-background:new    ;}
	.st4{fill:#E7F3F1;}
</style>
<g id="レイヤー_2_1_">
	<g id="レイヤー_6">
		<path d="M8,0h54c4.4,0,8,3.6,8,8v111.5c0,4.4-3.6,8-8,8H8c-4.4,0-8-3.6-8-8V8C0,3.6,3.6,0,8,0z"/>
		<path class="st0" d="M10,5.5h50c3.3,0,6,2.7,6,6v105c0,3.3-2.7,6-6,6H10c-3.3,0-6-2.7-6-6v-105C4,8.2,6.7,5.5,10,5.5z"/>
		<path d="M20,0.5h30c1.7,0,3,1.3,3,3v3c0,1.7-1.3,3-3,3H20c-1.7,0-3-1.3-3-3v-3C17,1.8,18.3,0.5,20,0.5z"/>
		<path class="st1" d="M26,25.5h72c1.7,0,3,1.3,3,3v16c0,1.7-1.3,3-3,3H26c-1.7,0-3-1.3-3-3v-16C23,26.8,24.3,25.5,26,25.5z"/>
		<path class="st1" d="M26,52.5h72c1.7,0,3,1.3,3,3v16c0,1.7-1.3,3-3,3H26c-1.7,0-3-1.3-3-3v-16C23,53.8,24.3,52.5,26,52.5z"/>
		<circle class="st2" cx="35" cy="97.5" r="14"/>
		<g class="st3">
			<path class="st4" d="M54.3,34.1c0.3,0,0.5,0.3,0.5,0.5s-0.1,0.4-0.3,0.5c-0.7,0.3-1.7,0.7-2.5,0.9c-0.1,0-0.1,0-0.2,0
				c-0.3,0-0.5-0.3-0.5-0.6c0-0.2,0.1-0.4,0.4-0.5c0.8-0.2,1.7-0.6,2.3-0.8C54.2,34.1,54.3,34.1,54.3,34.1z M51.9,32.4
				c-0.3,0-0.4-0.3-0.4-0.5c0-0.3,0.1-0.5,0.4-0.5H55c1,0,1.3,0.4,1.3,1.2v2.7c0,0.7-0.4,1.1-1.2,1.1c-0.3,0-0.5,0-0.7,0
				c-0.3,0-0.5-0.3-0.5-0.5c0-0.3,0.2-0.6,0.6-0.5c0.1,0,0.2,0,0.4,0s0.2,0,0.2-0.2v-2.5c0-0.2-0.1-0.3-0.3-0.3H51.9z M53.9,33.1
				c0.2,0.1,0.2,0.3,0.2,0.4c0,0.3-0.3,0.5-0.5,0.5c-0.1,0-0.2,0-0.3-0.1c-0.2-0.2-0.5-0.4-0.6-0.5c-0.2-0.1-0.2-0.3-0.2-0.4
				c0-0.3,0.2-0.5,0.6-0.5c0.1,0,0.2,0,0.3,0.1C53.5,32.8,53.7,32.9,53.9,33.1z M54.3,41.8c-1.1,0-1.5-0.4-1.5-1.2v-2
				c0-0.9,0.5-1.2,1.5-1.2h1.5c0.1-0.2,0.2-0.5,0.2-0.7c0.1-0.3,0.3-0.4,0.6-0.4s0.6,0.2,0.6,0.5c0,0.1,0,0.1,0,0.2
				c0,0.2-0.1,0.3-0.1,0.4H59c1.1,0,1.5,0.4,1.5,1.2v2c0,1-0.6,1.2-1.5,1.2H54.3z M59.2,38.6c0-0.3-0.1-0.4-0.5-0.4h-4.2
				c-0.4,0-0.5,0.1-0.5,0.4V39h5.2V38.6z M58.8,40.8c0.4,0,0.5-0.1,0.5-0.4V40h-5.2v0.4c0,0.3,0.2,0.3,0.5,0.4
				C54.6,40.8,58.8,40.8,58.8,40.8z M59.6,34c0.3,0,0.5,0.3,0.5,0.5S60,34.9,59.8,35c-0.7,0.4-1.5,0.7-2.4,0.9c-0.1,0-0.1,0-0.2,0
				c-0.3,0-0.5-0.3-0.5-0.6c0-0.2,0.1-0.4,0.4-0.5c0.7-0.2,1.5-0.5,2.2-0.8C59.4,34.1,59.5,34,59.6,34z M57.2,32.4
				c-0.3,0-0.4-0.3-0.4-0.5c0-0.3,0.2-0.5,0.4-0.5h3.1c1,0,1.3,0.4,1.3,1.2v2.8c0,0.7-0.5,1.1-1.2,1.1c-0.3,0-0.5,0-0.7,0
				c-0.3,0-0.5-0.3-0.5-0.5c0-0.3,0.2-0.6,0.6-0.5c0.1,0,0.2,0,0.4,0s0.2,0,0.2-0.2v-2.6c0-0.2-0.1-0.3-0.3-0.3H57.2z M59,33.1
				c0.2,0.1,0.2,0.3,0.2,0.4c0,0.3-0.3,0.5-0.5,0.5c-0.1,0-0.2,0-0.3-0.1c-0.2-0.2-0.5-0.4-0.6-0.5c-0.2-0.1-0.2-0.3-0.2-0.4
				c0-0.3,0.2-0.5,0.5-0.5c0.1,0,0.2,0,0.3,0.1C58.6,32.8,58.8,32.9,59,33.1z"/>
			<path class="st4" d="M61.5,33.5c0.2,0,0.5,0.2,0.5,0.5c0,0.6-0.2,1.2-0.3,1.7c-0.1,0.3-0.3,0.4-0.5,0.4s-0.5-0.2-0.5-0.4
				c0,0,0-0.1,0-0.2c0.1-0.5,0.2-1.1,0.3-1.6C61.1,33.6,61.3,33.5,61.5,33.5z M63.4,41.6c0,0.3-0.3,0.5-0.6,0.5s-0.6-0.2-0.6-0.5
				V31.3c0-0.3,0.3-0.5,0.6-0.5s0.6,0.2,0.6,0.5V41.6z M64.6,34.6c0,0.3-0.2,0.5-0.5,0.5c-0.2,0-0.4-0.1-0.4-0.4
				c0-0.3-0.1-0.8-0.2-1.1v-0.1c0-0.2,0.2-0.4,0.4-0.4s0.4,0.1,0.4,0.3C64.4,33.8,64.6,34.3,64.6,34.6z M66.9,40.2
				c0.3,0,0.6,0.3,0.6,0.6c0,0.2-0.1,0.4-0.4,0.5c-0.7,0.3-1.5,0.6-2.2,0.7c-0.4,0.1-0.7-0.2-0.7-0.6c0-0.2,0.1-0.4,0.4-0.5
				c0.7-0.1,1.4-0.4,2-0.7C66.7,40.2,66.8,40.2,66.9,40.2z M66.4,34.9c-0.9,0-1.2-0.4-1.2-1v-0.4h-0.5c-0.3,0-0.4-0.2-0.4-0.5
				c0-0.2,0.1-0.5,0.4-0.5h0.5v-0.4c0-0.7,0.3-1.1,1.2-1.1h3.4c0.9,0,1.2,0.4,1.2,1.1v0.4h0.7c0.3,0,0.4,0.2,0.4,0.5
				c0,0.2-0.1,0.5-0.4,0.5H71v0.4c0,0.8-0.4,1-1.2,1H66.4z M66.6,40.2c-0.9,0-1.2-0.3-1.2-1v-2.8c0-0.7,0.3-1,1.2-1h3.2
				c0.9,0,1.2,0.4,1.2,1v2.8c0,0.8-0.5,1-1.2,1H66.6z M66.4,33.5v0.3c0,0.2,0.1,0.3,0.3,0.3h0.9v-0.6H66.4z M66.7,32
				c-0.2,0-0.3,0-0.3,0.2v0.3h1.2v-0.6h-0.9V32z M69.9,36.5c0-0.2-0.1-0.2-0.3-0.2h-2.8c-0.2,0-0.3,0.1-0.3,0.2v0.3h3.4
				C69.9,36.8,69.9,36.5,69.9,36.5z M66.5,38h3.4v-0.5h-3.4V38z M69.6,39.2c0.2,0,0.3-0.1,0.3-0.2v-0.2h-3.4V39
				c0,0.2,0.1,0.2,0.3,0.2H69.6z M68.6,34h0.9c0.3,0,0.3-0.1,0.3-0.3v-0.3h-1.2L68.6,34z M68.7,32.6h1.2v-0.3c0-0.2,0-0.2-0.3-0.2
				h-1L68.7,32.6z M71.5,40.9c0.3,0.1,0.5,0.3,0.5,0.5c0,0.3-0.2,0.6-0.6,0.6c0,0-0.1,0-0.2,0c-0.8-0.2-1.6-0.5-2.1-0.8
				c-0.2-0.1-0.3-0.3-0.3-0.5c0-0.3,0.2-0.5,0.6-0.5c0.1,0,0.2,0,0.3,0.1C70.1,40.4,70.8,40.7,71.5,40.9z"/>
		</g>
		<g class="st3">
			<path class="st4" d="M54.3,61.1c0.3,0,0.5,0.3,0.5,0.5s-0.1,0.4-0.3,0.5c-0.7,0.3-1.7,0.7-2.5,0.9c-0.1,0-0.1,0-0.2,0
				c-0.3,0-0.5-0.3-0.5-0.6c0-0.2,0.1-0.4,0.4-0.5c0.8-0.2,1.7-0.6,2.3-0.8C54.2,61.1,54.3,61.1,54.3,61.1z M51.9,59.4
				c-0.3,0-0.4-0.3-0.4-0.5c0-0.3,0.1-0.5,0.4-0.5H55c1,0,1.3,0.4,1.3,1.2v2.7c0,0.7-0.4,1.1-1.2,1.1c-0.3,0-0.5,0-0.7,0
				c-0.3,0-0.5-0.3-0.5-0.5c0-0.3,0.2-0.6,0.6-0.5c0.1,0,0.2,0,0.4,0s0.2,0,0.2-0.2v-2.5c0-0.2-0.1-0.3-0.3-0.3H51.9z M53.9,60.1
				c0.2,0.1,0.2,0.3,0.2,0.4c0,0.3-0.3,0.5-0.5,0.5c-0.1,0-0.2,0-0.3-0.1c-0.2-0.2-0.5-0.4-0.6-0.5c-0.2-0.1-0.2-0.3-0.2-0.4
				c0-0.3,0.2-0.5,0.6-0.5c0.1,0,0.2,0,0.3,0.1C53.5,59.8,53.7,59.9,53.9,60.1z M54.3,68.8c-1.1,0-1.5-0.4-1.5-1.2v-2
				c0-0.9,0.5-1.2,1.5-1.2h1.5c0.1-0.2,0.2-0.5,0.2-0.7c0.1-0.3,0.3-0.4,0.6-0.4s0.6,0.2,0.6,0.5c0,0.1,0,0.1,0,0.2
				c0,0.2-0.1,0.3-0.1,0.4H59c1.1,0,1.5,0.4,1.5,1.2v2c0,1-0.6,1.2-1.5,1.2H54.3z M59.2,65.6c0-0.3-0.1-0.4-0.5-0.4h-4.2
				c-0.4,0-0.5,0.1-0.5,0.4V66h5.2V65.6z M58.8,67.8c0.4,0,0.5-0.1,0.5-0.4V67h-5.2v0.4c0,0.3,0.2,0.3,0.5,0.4H58.8z M59.6,61
				c0.3,0,0.5,0.3,0.5,0.5S60,61.9,59.8,62c-0.7,0.4-1.5,0.7-2.4,0.9c-0.1,0-0.1,0-0.2,0c-0.3,0-0.5-0.3-0.5-0.6
				c0-0.2,0.1-0.4,0.4-0.5c0.7-0.2,1.5-0.5,2.2-0.8C59.4,61.1,59.5,61,59.6,61z M57.2,59.4c-0.3,0-0.4-0.3-0.4-0.5
				c0-0.3,0.2-0.5,0.4-0.5h3.1c1,0,1.3,0.4,1.3,1.2v2.8c0,0.7-0.5,1.1-1.2,1.1c-0.3,0-0.5,0-0.7,0c-0.3,0-0.5-0.3-0.5-0.5
				c0-0.3,0.2-0.6,0.6-0.5c0.1,0,0.2,0,0.4,0s0.2,0,0.2-0.2v-2.6c0-0.2-0.1-0.3-0.3-0.3H57.2z M59,60.1c0.2,0.1,0.2,0.3,0.2,0.4
				c0,0.3-0.3,0.5-0.5,0.5c-0.1,0-0.2,0-0.3-0.1c-0.2-0.2-0.5-0.4-0.6-0.5c-0.2-0.1-0.2-0.3-0.2-0.4c0-0.3,0.2-0.5,0.5-0.5
				c0.1,0,0.2,0,0.3,0.1C58.6,59.8,58.8,59.9,59,60.1z"/>
			<path class="st4" d="M61.5,60.5c0.2,0,0.5,0.2,0.5,0.5c0,0.6-0.2,1.2-0.3,1.7c-0.1,0.3-0.3,0.4-0.5,0.4s-0.5-0.2-0.5-0.4
				c0,0,0-0.1,0-0.2c0.1-0.5,0.2-1.1,0.3-1.6C61.1,60.6,61.3,60.5,61.5,60.5z M63.4,68.6c0,0.3-0.3,0.5-0.6,0.5s-0.6-0.2-0.6-0.5
				V58.3c0-0.3,0.3-0.5,0.6-0.5s0.6,0.2,0.6,0.5V68.6z M64.6,61.6c0,0.3-0.2,0.5-0.5,0.5c-0.2,0-0.4-0.1-0.4-0.4
				c0-0.3-0.1-0.8-0.2-1.1v-0.1c0-0.2,0.2-0.4,0.4-0.4s0.4,0.1,0.4,0.3C64.4,60.8,64.6,61.3,64.6,61.6z M66.9,67.2
				c0.3,0,0.6,0.3,0.6,0.6c0,0.2-0.1,0.4-0.4,0.5c-0.7,0.3-1.5,0.6-2.2,0.7c-0.4,0.1-0.7-0.2-0.7-0.6c0-0.2,0.1-0.4,0.4-0.5
				c0.7-0.1,1.4-0.4,2-0.7C66.7,67.2,66.8,67.2,66.9,67.2z M66.4,61.9c-0.9,0-1.2-0.4-1.2-1v-0.4h-0.5c-0.3,0-0.4-0.2-0.4-0.5
				c0-0.2,0.1-0.5,0.4-0.5h0.5v-0.4c0-0.7,0.3-1.1,1.2-1.1h3.4c0.9,0,1.2,0.4,1.2,1.1v0.4h0.7c0.3,0,0.4,0.2,0.4,0.5
				c0,0.2-0.1,0.5-0.4,0.5H71v0.4c0,0.8-0.4,1-1.2,1H66.4z M66.6,67.2c-0.9,0-1.2-0.3-1.2-1v-2.8c0-0.7,0.3-1,1.2-1h3.2
				c0.9,0,1.2,0.4,1.2,1v2.8c0,0.8-0.5,1-1.2,1H66.6z M66.4,60.5v0.3c0,0.2,0.1,0.3,0.3,0.3h0.9v-0.6H66.4z M66.7,59
				c-0.2,0-0.3,0-0.3,0.2v0.3h1.2v-0.6L66.7,59L66.7,59z M69.9,63.5c0-0.2-0.1-0.2-0.3-0.2h-2.8c-0.2,0-0.3,0.1-0.3,0.2v0.3h3.4
				C69.9,63.8,69.9,63.5,69.9,63.5z M66.5,65h3.4v-0.5h-3.4V65z M69.6,66.2c0.2,0,0.3-0.1,0.3-0.2v-0.2h-3.4V66
				c0,0.2,0.1,0.2,0.3,0.2H69.6z M68.6,61h0.9c0.3,0,0.3-0.1,0.3-0.3v-0.3h-1.2L68.6,61z M68.7,59.6h1.2v-0.3c0-0.2,0-0.2-0.3-0.2
				h-1L68.7,59.6z M71.5,67.9c0.3,0.1,0.5,0.3,0.5,0.5c0,0.3-0.2,0.6-0.6,0.6c0,0-0.1,0-0.2,0c-0.8-0.2-1.6-0.5-2.1-0.8
				c-0.2-0.1-0.3-0.3-0.3-0.5c0-0.3,0.2-0.5,0.6-0.5c0.1,0,0.2,0,0.3,0.1C70.1,67.4,70.8,67.7,71.5,67.9z"/>
		</g>
		<g class="st3">
			<path class="st4" d="M33.8,90.7c0-0.7,0.6-1.1,1.2-1.1c0.6,0,1.3,0.5,1.3,1.1v5.7H42c0.7,0,1.1,0.5,1.1,1.1
				c0,0.7-0.5,1.2-1.1,1.2h-5.7v5.8c0,0.7-0.6,1.1-1.3,1.1s-1.2-0.5-1.2-1.1v-5.8H28c-0.7,0-1.1-0.5-1.1-1.2c0-0.6,0.5-1.1,1.1-1.1
				h5.7C33.8,96.4,33.8,90.7,33.8,90.7z"/>
		</g>
	</g>
</g>
</svg>
