<?xml version="1.0" encoding="utf-8"?>
<!-- Generator: Adobe Illustrator 24.3.0, SVG Export Plug-In . SVG Version: 6.00 Build 0)  -->
<svg version="1.1" id="レイヤー_1" xmlns="http://www.w3.org/2000/svg" xmlns:xlink="http://www.w3.org/1999/xlink" x="0px"
	 y="0px" viewBox="0 0 81 135.9" style="enable-background:new 0 0 81 135.9;" xml:space="preserve">
<style type="text/css">
	.st0{fill:#F9FAFA;}
	.st1{fill:#25B9FF;}
	.st2{fill:none;stroke:#FFFFFF;stroke-width:2;stroke-linecap:round;stroke-linejoin:round;}
	.st3{fill:#54AD9E;}
	.st4{enable-background:new    ;}
	.st5{fill:#E7F3F1;}
	.st6{fill:none;stroke:#54AD9E;stroke-width:2.83;stroke-miterlimit:10;}
</style>
<g id="レイヤー_2_1_">
	<g id="レイヤー_6">
		<path d="M12,0h54c4.4,0,8,3.6,8,8v111.5c0,4.4-3.6,8-8,8H12c-4.4,0-8-3.6-8-8V8C4,3.6,7.6,0,12,0z"/>
		<path class="st0" d="M14,5.5h50c3.3,0,6,2.7,6,6v105c0,3.3-2.7,6-6,6H14c-3.3,0-6-2.7-6-6v-105C8,8.2,10.7,5.5,14,5.5z"/>
		<path d="M24,0.5h30c1.7,0,3,1.3,3,3v3c0,1.7-1.3,3-3,3H24c-1.7,0-3-1.3-3-3v-3C21,1.8,22.3,0.5,24,0.5z"/>
		<circle class="st1" cx="39" cy="36.5" r="14"/>
		<path class="st2" d="M46.7,31.3L36.2,41.9l-4.8-4.8"/>
		<path class="st3" d="M3,58.5h72c1.7,0,3,1.3,3,3v16c0,1.7-1.3,3-3,3H3c-1.7,0-3-1.3-3-3v-16C0,59.8,1.3,58.5,3,58.5z"/>
		<g class="st4">
			<path class="st5" d="M31.3,67.1c0.3,0,0.5,0.3,0.5,0.5c0,0.2-0.1,0.4-0.3,0.5c-0.7,0.3-1.7,0.7-2.5,0.9c-0.1,0-0.1,0-0.2,0
				c-0.3,0-0.5-0.3-0.5-0.6c0-0.2,0.1-0.4,0.4-0.5c0.8-0.2,1.7-0.6,2.3-0.8C31.2,67.1,31.3,67.1,31.3,67.1z M28.9,65.4
				c-0.3,0-0.4-0.3-0.4-0.5c0-0.3,0.1-0.5,0.4-0.5H32c1,0,1.3,0.4,1.3,1.2v2.7c0,0.7-0.4,1.1-1.2,1.1c-0.3,0-0.5,0-0.7,0
				c-0.3,0-0.5-0.3-0.5-0.5c0-0.3,0.2-0.6,0.6-0.5c0.1,0,0.2,0,0.4,0c0.2,0,0.2,0,0.2-0.2v-2.5c0-0.2-0.1-0.3-0.3-0.3H28.9z
				 M30.9,66.1c0.2,0.1,0.2,0.3,0.2,0.4c0,0.3-0.3,0.5-0.5,0.5c-0.1,0-0.2,0-0.3-0.1c-0.2-0.2-0.5-0.4-0.6-0.5
				c-0.2-0.1-0.2-0.3-0.2-0.4c0-0.3,0.2-0.5,0.6-0.5c0.1,0,0.2,0,0.3,0.1C30.5,65.8,30.7,65.9,30.9,66.1z M31.3,74.8
				c-1.1,0-1.5-0.4-1.5-1.2v-2c0-0.9,0.5-1.2,1.5-1.2h1.5c0.1-0.2,0.2-0.5,0.2-0.7c0.1-0.3,0.3-0.4,0.6-0.4c0.3,0,0.6,0.2,0.6,0.5
				c0,0.1,0,0.1,0,0.2c0,0.2-0.1,0.3-0.1,0.4H36c1.1,0,1.5,0.4,1.5,1.2v2c0,1-0.6,1.2-1.5,1.2H31.3z M36.2,71.6
				c0-0.3-0.1-0.4-0.5-0.4h-4.2c-0.4,0-0.5,0.1-0.5,0.4V72h5.2V71.6z M35.8,73.8c0.4,0,0.5-0.1,0.5-0.4V73h-5.2v0.4
				c0,0.3,0.2,0.3,0.5,0.4H35.8z M36.6,67c0.3,0,0.5,0.3,0.5,0.5c0,0.2-0.1,0.4-0.3,0.5c-0.7,0.4-1.5,0.7-2.4,0.9
				c-0.1,0-0.1,0-0.2,0c-0.3,0-0.5-0.3-0.5-0.6c0-0.2,0.1-0.4,0.4-0.5c0.7-0.2,1.5-0.5,2.2-0.8C36.4,67.1,36.5,67,36.6,67z
				 M34.2,65.4c-0.3,0-0.4-0.3-0.4-0.5c0-0.3,0.2-0.5,0.4-0.5h3.1c1,0,1.3,0.4,1.3,1.2v2.8c0,0.7-0.5,1.1-1.2,1.1
				c-0.3,0-0.5,0-0.7,0c-0.3,0-0.5-0.3-0.5-0.5c0-0.3,0.2-0.6,0.6-0.5c0.1,0,0.2,0,0.4,0c0.2,0,0.2,0,0.2-0.2v-2.6
				c0-0.2-0.1-0.3-0.3-0.3H34.2z M36,66.1c0.2,0.1,0.2,0.3,0.2,0.4c0,0.3-0.3,0.5-0.5,0.5c-0.1,0-0.2,0-0.3-0.1
				c-0.2-0.2-0.5-0.4-0.6-0.5c-0.2-0.1-0.2-0.3-0.2-0.4c0-0.3,0.2-0.5,0.5-0.5c0.1,0,0.2,0,0.3,0.1C35.6,65.8,35.8,65.9,36,66.1z"/>
			<path class="st5" d="M38.5,66.5c0.2,0,0.5,0.2,0.5,0.5c0,0.6-0.2,1.2-0.3,1.7c-0.1,0.3-0.3,0.4-0.5,0.4c-0.2,0-0.5-0.2-0.5-0.4
				c0,0,0-0.1,0-0.2c0.1-0.5,0.2-1.1,0.3-1.6C38.1,66.6,38.3,66.5,38.5,66.5z M40.4,74.6c0,0.3-0.3,0.5-0.6,0.5
				c-0.3,0-0.6-0.2-0.6-0.5V64.3c0-0.3,0.3-0.5,0.6-0.5c0.3,0,0.6,0.2,0.6,0.5V74.6z M41.6,67.6c0,0.3-0.2,0.5-0.5,0.5
				c-0.2,0-0.4-0.1-0.4-0.4c0-0.3-0.1-0.8-0.2-1.1c0,0,0-0.1,0-0.1c0-0.2,0.2-0.4,0.4-0.4c0.2,0,0.4,0.1,0.4,0.3
				C41.4,66.8,41.6,67.3,41.6,67.6z M43.9,73.2c0.3,0,0.6,0.3,0.6,0.6c0,0.2-0.1,0.4-0.4,0.5c-0.7,0.3-1.5,0.6-2.2,0.7
				c-0.4,0.1-0.7-0.2-0.7-0.6c0-0.2,0.1-0.4,0.4-0.5c0.7-0.1,1.4-0.4,2-0.7C43.7,73.2,43.8,73.2,43.9,73.2z M43.4,67.9
				c-0.9,0-1.2-0.4-1.2-1l0-0.4h-0.5c-0.3,0-0.4-0.2-0.4-0.5c0-0.2,0.1-0.5,0.4-0.5h0.5l0-0.4c0-0.7,0.3-1.1,1.2-1.1h3.4
				c0.9,0,1.2,0.4,1.2,1.1l0,0.4h0.7c0.3,0,0.4,0.2,0.4,0.5c0,0.2-0.1,0.5-0.4,0.5H48l0,0.4c0,0.8-0.4,1-1.2,1H43.4z M43.6,73.2
				c-0.9,0-1.2-0.3-1.2-1v-2.8c0-0.7,0.3-1,1.2-1h3.2c0.9,0,1.2,0.4,1.2,1v2.8c0,0.8-0.5,1-1.2,1H43.6z M43.4,66.5l0,0.3
				c0,0.2,0.1,0.3,0.3,0.3h0.9l0-0.6H43.4z M43.7,65c-0.2,0-0.3,0-0.3,0.2l0,0.3h1.2l0-0.6H43.7z M46.9,69.5c0-0.2-0.1-0.2-0.3-0.2
				h-2.8c-0.2,0-0.3,0.1-0.3,0.2v0.3h3.4V69.5z M43.5,71h3.4v-0.5h-3.4V71z M46.6,72.2c0.2,0,0.3-0.1,0.3-0.2v-0.2h-3.4V72
				c0,0.2,0.1,0.2,0.3,0.2H46.6z M45.6,67h0.9c0.3,0,0.3-0.1,0.3-0.3l0-0.3h-1.2L45.6,67z M45.7,65.6h1.2l0-0.3c0-0.2,0-0.2-0.3-0.2
				h-1L45.7,65.6z M48.5,73.9c0.3,0.1,0.5,0.3,0.5,0.5c0,0.3-0.2,0.6-0.6,0.6c0,0-0.1,0-0.2,0c-0.8-0.2-1.6-0.5-2.1-0.8
				c-0.2-0.1-0.3-0.3-0.3-0.5c0-0.3,0.2-0.5,0.6-0.5c0.1,0,0.2,0,0.3,0.1C47.1,73.4,47.8,73.7,48.5,73.9z"/>
		</g>
		<path class="st6" d="M77.6,109.6c4.4,8.3,1.1,18.6-7.2,23c-8.3,4.4-18.6,1.1-23-7.2"/>
		<path class="st6" d="M77.2,108.8l-5.8-11"/>
		<path class="st6" d="M64.9,100.9c-0.2-0.4-0.3-0.9-0.3-1.4c0-0.5,0-1,0.2-1.4c0.2-0.4,0.4-0.9,0.7-1.2c0.6-0.7,1.6-1.1,2.5-1.2
			c1,0,1.9,0.3,2.6,0.9c0.4,0.3,0.6,0.7,0.8,1.1"/>
		<path class="st6" d="M58.4,104c-0.2-0.4-0.3-0.9-0.3-1.4c0-0.5,0.1-1,0.2-1.4c0.2-0.5,0.4-0.9,0.8-1.2c0.3-0.4,0.7-0.6,1.1-0.8
			c0.4-0.2,0.9-0.3,1.4-0.3c0.5,0,1,0.1,1.4,0.2c0.9,0.3,1.6,1,2,1.9"/>
		<path class="st6" d="M58.3,103.9c-0.4-0.9-0.4-1.9,0-2.8c0.8-1.8,2.9-2.7,4.7-2c0.9,0.4,1.6,1.1,2,1.9"/>
		<path class="st6" d="M51.7,107c-0.8-1.8,0-4,1.8-4.8s4,0,4.8,1.8"/>
		<path class="st6" d="M37.2,117.1c-1.9-0.6-3-2.6-2.4-4.5c0.6-1.9,2.6-3,4.5-2.4c0,0,0.1,0,0.1,0"/>
		<path class="st6" d="M34.5,89.8c-0.5-0.9-0.6-1.9-0.2-2.8c0.3-0.9,0.9-1.7,1.8-2.1c1.8-0.9,3.9-0.3,4.9,1.5c0,0,0,0,0,0.1"/>
		<path class="st6" d="M51.7,106.9L41,86.4"/>
		<path class="st6" d="M34.5,89.8l13.3,25.5"/>
		<path class="st6" d="M42.4,111.3l-2.8-1.1"/>
		<path class="st6" d="M40,118.4c3.4,1.3,6.1,3.8,7.6,7.1"/>
		<path class="st6" d="M37.2,117.1l2.8,1.3"/>
	</g>
</g>
</svg>
