<?xml version="1.0" encoding="utf-8"?>
<!-- Generator: Adobe Illustrator 24.3.0, SVG Export Plug-In . SVG Version: 6.00 Build 0)  -->
<svg version="1.1" id="レイヤー_1" xmlns="http://www.w3.org/2000/svg" xmlns:xlink="http://www.w3.org/1999/xlink" x="0px"
	 y="0px" viewBox="0 0 80 133" style="enable-background:new 0 0 80 133;" xml:space="preserve">
<style type="text/css">
	.st0{fill:#54AD9E;}
	.st1{fill:url(#SVGID_1_);}
	.st2{fill:#54AD9E;stroke:#FFFFFF;stroke-miterlimit:10;}
	.st3{fill:#F5800B;}
	.st4{enable-background:new    ;}
	.st5{fill:#E7F3F1;}
	.st6{fill:#4D4D4D;stroke:#FFFFFF;stroke-miterlimit:10;}
</style>
<g id="レイヤー_2_1_">
	<g id="レイヤー_6">
		<path d="M18,5.5h54c4.4,0,8,3.6,8,8V125c0,4.4-3.6,8-8,8H18c-4.4,0-8-3.6-8-8V13.5C10,9.1,13.6,5.5,18,5.5z"/>
		<path class="st0" d="M20,11h50c3.3,0,6,2.7,6,6v105c0,3.3-2.7,6-6,6H20c-3.3,0-6-2.7-6-6V17C14,13.7,16.7,11,20,11z"/>
		
			<linearGradient id="SVGID_1_" gradientUnits="userSpaceOnUse" x1="45" y1="122.8898" x2="45" y2="64.8898" gradientTransform="matrix(1 0 0 -1 0 133.8898)">
			<stop  offset="0" style="stop-color:#84C29E"/>
			<stop  offset="1" style="stop-color:#54ADAD"/>
		</linearGradient>
		<path class="st1" d="M20,11h50c3.3,0,6,2.7,6,6v52l0,0H14l0,0V17C14,13.7,16.7,11,20,11z"/>
		<path class="st2" d="M52.8,47.3L37.9,50c-0.4,0.1-0.6,0.4-0.6,0.8l0.1,0.3c0.1,0.4,0.4,0.6,0.8,0.6c0,0,0,0,0,0l14.9-2.6
			c0.4-0.1,0.6-0.4,0.6-0.8l-0.1-0.3C53.6,47.6,53.2,47.3,52.8,47.3C52.8,47.3,52.8,47.3,52.8,47.3z"/>
		<path class="st2" d="M37.9,49.1l14.9,2.6c0.4,0.1,0.8-0.2,0.8-0.6c0,0,0,0,0,0l0.1-0.3c0.1-0.4-0.2-0.8-0.6-0.8l-14.9-2.6
			c-0.4-0.1-0.8,0.2-0.8,0.6c0,0,0,0,0,0l-0.1,0.3C37.2,48.6,37.5,49,37.9,49.1z"/>
		<path class="st2" d="M51,35.8l-0.1-0.1l-0.6-0.5c-0.8-0.7-1.3-1.7-1.5-2.8c-0.2,1.7-1.1,3.2-2.5,4c0-0.2,0-0.5,0-0.8
			c0-2.6-1.1-5-3.2-6.6c0,0.1,0,0.3,0,0.5c0,2.2-0.9,4.3-2.4,5.8c-0.2,0.1-0.4,0.3-0.5,0.4l-0.4,0.4c-3.2,3.3-3.2,8.5,0.1,11.7
			c1.6,1.6,3.8,2.5,6.1,2.4c1.7-0.1,3.3-0.6,4.6-1.6c3.7-2.7,4.5-7.9,1.8-11.6C51.9,36.7,51.5,36.2,51,35.8z"/>
		<path d="M30,6h30c1.7,0,3,1.3,3,3v3c0,1.7-1.3,3-3,3H30c-1.7,0-3-1.3-3-3V9C27,7.3,28.3,6,30,6z"/>
		<circle class="st3" cx="45" cy="109" r="12"/>
		<g class="st4">
			<path class="st5" d="M43.5,103.1c0-0.6,0.5-1,1.1-1c0.6,0,1.1,0.4,1.1,1v4.9h4.9c0.6,0,1,0.4,1,1c0,0.6-0.4,1-1,1h-4.9v5
				c0,0.6-0.5,1-1.1,1c-0.6,0-1.1-0.4-1.1-1v-5h-4.9c-0.6,0-1-0.5-1-1c0-0.6,0.4-1,1-1h4.9V103.1z"/>
		</g>
		<circle class="st6" cx="11.5" cy="11.5" r="11"/>
		<g class="st4">
			<path class="st5" d="M10.9,8.7c-0.4,0.4-0.7,0.7-1.2,1.1C9.6,9.9,9.4,10,9.2,10c-0.4,0-0.7-0.3-0.7-0.6c0-0.2,0.1-0.4,0.3-0.6
				c0.6-0.5,1.2-0.9,1.8-1.5c0.3-0.3,0.5-0.4,0.9-0.4c0.5,0,0.8,0.3,0.8,0.8v7.6c0,0.5-0.3,0.7-0.7,0.7c-0.5,0-0.7-0.2-0.7-0.7V8.7z
				"/>
		</g>
	</g>
</g>
</svg>
