<?xml version="1.0" encoding="utf-8"?>
<!-- Generator: Adobe Illustrator 24.3.0, SVG Export Plug-In . SVG Version: 6.00 Build 0)  -->
<svg version="1.1" id="レイヤー_1" xmlns="http://www.w3.org/2000/svg" xmlns:xlink="http://www.w3.org/1999/xlink" x="0px"
	 y="0px" viewBox="0 0 80 133" style="enable-background:new 0 0 80 133;" xml:space="preserve">
<style type="text/css">
	.st0{fill:#F9FAFA;}
	.st1{fill:url(#SVGID_1_);}
	.st2{fill:#4D4D4D;stroke:#FFFFFF;stroke-miterlimit:10;}
	.st3{enable-background:new    ;}
	.st4{fill:#E7F3F1;}
	.st5{fill:#F5800B;}
</style>
<g id="レイヤー_2_1_">
	<g id="レイヤー_6">
		<path d="M18,5.5h54c4.4,0,8,3.6,8,8V125c0,4.4-3.6,8-8,8H18c-4.4,0-8-3.6-8-8V13.5C10,9.1,13.6,5.5,18,5.5z"/>
		<path class="st0" d="M20,11h50c3.3,0,6,2.7,6,6v105c0,3.3-2.7,6-6,6H20c-3.3,0-6-2.7-6-6V17C14,13.7,16.7,11,20,11z"/>
		
			<linearGradient id="SVGID_1_" gradientUnits="userSpaceOnUse" x1="45" y1="-585" x2="45" y2="-702" gradientTransform="matrix(1 0 0 -1 0 -574)">
			<stop  offset="0" style="stop-color:#84C29E"/>
			<stop  offset="1" style="stop-color:#54ADAD"/>
		</linearGradient>
		<path class="st1" d="M20,11h50c3.3,0,6,2.7,6,6v105c0,3.3-2.7,6-6,6H20c-3.3,0-6-2.7-6-6V17C14,13.7,16.7,11,20,11z"/>
		<path d="M30,6h30c1.7,0,3,1.3,3,3v3c0,1.7-1.3,3-3,3H30c-1.7,0-3-1.3-3-3V9C27,7.3,28.3,6,30,6z"/>
		<circle class="st2" cx="11.5" cy="11.5" r="11"/>
		<g class="st3">
			<path class="st4" d="M13.5,14.6c0.4,0,0.6,0.3,0.6,0.6c0,0.4-0.2,0.6-0.6,0.6H9.1c-0.4,0-0.7-0.3-0.7-0.8c0-0.3,0.1-0.6,0.4-0.8
				c1-0.9,1.8-1.6,2.7-2.7c0.7-0.9,1.1-1.5,1.1-2.2c0-0.9-0.5-1.4-1.2-1.4c-0.5,0-1,0.2-1.6,0.8C9.6,9,9.4,9.1,9.2,9.1
				c-0.4,0-0.7-0.3-0.7-0.7c0-0.2,0.1-0.3,0.2-0.5c0.6-0.6,1.6-1.1,2.5-1.1c1.7,0,2.7,1,2.7,2.6c0,1.1-0.4,1.8-1.5,3
				c-1,1-1.6,1.6-2.3,2.3h3.4V14.6z"/>
		</g>
		<path class="st4" d="M18.5,27h53c1.1,0,2,0.9,2,2v5c0,1.1-0.9,2-2,2h-53c-1.1,0-2-0.9-2-2v-5C16.5,27.9,17.4,27,18.5,27z"/>
		<path class="st4" d="M19,57h53c1.1,0,2,0.9,2,2v5c0,1.1-0.9,2-2,2H19c-1.1,0-2-0.9-2-2v-5C17,57.9,17.9,57,19,57z"/>
		<path class="st4" d="M19,68h53c1.1,0,2,0.9,2,2v5c0,1.1-0.9,2-2,2H19c-1.1,0-2-0.9-2-2v-5C17,68.9,17.9,68,19,68z"/>
		<path class="st4" d="M19,86h53c1.1,0,2,0.9,2,2v5c0,1.1-0.9,2-2,2H19c-1.1,0-2-0.9-2-2v-5C17,86.9,17.9,86,19,86z"/>
		<path class="st4" d="M19,106h53c1.1,0,2,0.9,2,2v5c0,1.1-0.9,2-2,2H19c-1.1,0-2-0.9-2-2v-5C17,106.9,17.9,106,19,106z"/>
		<path class="st4" d="M19,41h5c1.1,0,2,0.9,2,2v5c0,1.1-0.9,2-2,2h-5c-1.1,0-2-0.9-2-2v-5C17,41.9,17.9,41,19,41z"/>
		<path class="st4" d="M48,41h5c1.1,0,2,0.9,2,2v5c0,1.1-0.9,2-2,2h-5c-1.1,0-2-0.9-2-2v-5C46,41.9,46.9,41,48,41z"/>
		<g class="st3">
			<path d="M38.5,30.4c0.2,0,0.3,0.1,0.3,0.3c0,0.1-0.1,0.2-0.2,0.3c-0.4,0.2-0.9,0.4-1.3,0.5h-0.1c-0.2,0-0.3-0.1-0.3-0.3
				c0-0.1,0.1-0.2,0.2-0.3c0.4-0.1,0.9-0.3,1.2-0.4C38.4,30.5,38.4,30.4,38.5,30.4z M37.2,29.5c-0.2,0-0.2-0.1-0.2-0.3
				c0-0.1,0.1-0.3,0.2-0.3h1.6c0.5,0,0.7,0.2,0.7,0.6V31c0,0.4-0.2,0.6-0.6,0.6c-0.1,0-0.2,0-0.4,0s-0.3-0.2-0.3-0.3
				c0-0.2,0.1-0.3,0.3-0.3c0.1,0,0.1,0,0.2,0c0.1,0,0.1,0,0.1-0.1v-1.3c0-0.1,0-0.2-0.2-0.2L37.2,29.5L37.2,29.5z M38.2,29.9
				c0.1,0.1,0.1,0.2,0.1,0.2c0,0.2-0.1,0.3-0.3,0.3c-0.1,0-0.1,0-0.2-0.1c-0.1-0.1-0.2-0.2-0.3-0.3c-0.1-0.1-0.1-0.1-0.1-0.2
				s0.1-0.3,0.3-0.3c0.1,0,0.1,0,0.2,0C38,29.7,38.1,29.8,38.2,29.9z M38.5,34.5c-0.6,0-0.8-0.2-0.8-0.7v-1.1c0-0.5,0.3-0.7,0.8-0.7
				h0.8c0-0.1,0.1-0.2,0.1-0.4c0-0.2,0.2-0.2,0.3-0.2c0.2,0,0.3,0.1,0.3,0.3v0.1c0,0.1-0.1,0.2-0.1,0.2h1c0.6,0,0.8,0.2,0.8,0.7v1.1
				c0,0.5-0.3,0.6-0.8,0.7H38.5z M41.1,32.8c0-0.1-0.1-0.2-0.3-0.2h-2.2c-0.2,0-0.3,0.1-0.3,0.2V33H41L41.1,32.8L41.1,32.8z
				 M40.8,34c0.2,0,0.3-0.1,0.3-0.2v-0.2h-2.7v0.2c0,0.2,0.1,0.2,0.3,0.2H40.8z M41.2,30.4c0.2,0,0.3,0.1,0.3,0.3
				c0,0.1,0,0.2-0.2,0.3c-0.4,0.2-0.8,0.4-1.3,0.5h-0.1c-0.2,0-0.3-0.1-0.3-0.3c0-0.1,0.1-0.2,0.2-0.3c0.4-0.1,0.8-0.2,1.2-0.4
				C41.1,30.4,41.2,30.4,41.2,30.4z M40,29.5c-0.2,0-0.2-0.1-0.2-0.3c0-0.1,0.1-0.3,0.2-0.3h1.6c0.5,0,0.7,0.2,0.7,0.6V31
				c0,0.4-0.2,0.6-0.7,0.6c-0.1,0-0.2,0-0.3,0c-0.2,0-0.3-0.2-0.3-0.3c0-0.2,0.1-0.3,0.3-0.3c0.1,0,0.1,0,0.2,0s0.1,0,0.1-0.1v-1.4
				c0-0.1,0-0.2-0.2-0.2H40V29.5z M40.9,29.9C41,30,41,30.1,41,30.1c0,0.2-0.1,0.3-0.3,0.3c-0.1,0-0.1,0-0.2-0.1
				c-0.1-0.1-0.2-0.2-0.3-0.3c-0.1-0.1-0.1-0.1-0.1-0.2s0.1-0.3,0.3-0.3c0.1,0,0.1,0,0.2,0C40.7,29.7,40.8,29.8,40.9,29.9z"/>
			<path d="M43.2,30.1c0.1,0,0.3,0.1,0.2,0.3c0,0.3-0.1,0.7-0.2,0.9c0,0.1-0.1,0.2-0.2,0.2c-0.1,0-0.2-0.1-0.2-0.2v-0.1
				c0.1-0.2,0.1-0.6,0.2-0.8C43,30.2,43.1,30.1,43.2,30.1z M44.2,34.4c0,0.2-0.2,0.3-0.3,0.3c-0.2,0-0.3-0.1-0.3-0.3V29
				c0-0.2,0.2-0.3,0.3-0.3c0.2,0,0.3,0.1,0.3,0.3V34.4z M44.8,30.7c0,0.2-0.1,0.3-0.2,0.3c-0.1,0-0.2-0.1-0.2-0.2
				c0-0.2-0.1-0.4-0.1-0.6v-0.1c0-0.1,0.1-0.2,0.2-0.2c0.1,0,0.2,0.1,0.2,0.2C44.7,30.3,44.8,30.5,44.8,30.7z M46,33.7
				c0.2,0,0.3,0.2,0.3,0.3s-0.1,0.2-0.2,0.3c-0.4,0.2-0.8,0.3-1.2,0.4c-0.2,0.1-0.4-0.1-0.4-0.3c0-0.1,0.1-0.2,0.2-0.3
				c0.3-0.1,0.7-0.2,1.1-0.3C45.9,33.7,46,33.7,46,33.7z M45.8,30.9c-0.5,0-0.7-0.2-0.6-0.6v-0.2H45c-0.2,0-0.2-0.1-0.2-0.2
				s0.1-0.2,0.2-0.2h0.3v-0.2c0-0.4,0.1-0.6,0.6-0.6h1.8c0.5,0,0.7,0.2,0.6,0.6v0.2h0.4c0.2,0,0.2,0.1,0.2,0.2s-0.1,0.2-0.2,0.2
				h-0.4v0.2c0,0.4-0.2,0.5-0.6,0.6H45.8z M45.8,33.7c-0.5,0-0.7-0.2-0.7-0.5v-1.5c0-0.4,0.2-0.6,0.7-0.6h1.7c0.5,0,0.7,0.2,0.7,0.6
				v1.5c0,0.4-0.3,0.5-0.7,0.5H45.8z M45.7,30.1v0.2c0,0.1,0,0.1,0.1,0.1h0.5v-0.3C46.3,30.1,45.7,30.1,45.7,30.1z M45.9,29.3
				c-0.1,0-0.1,0-0.2,0.1v0.2h0.6v-0.3C46.3,29.3,45.9,29.3,45.9,29.3z M47.6,31.7c0-0.1,0-0.1-0.2-0.1H46c-0.1,0-0.2,0-0.2,0.1v0.1
				h1.8V31.7z M45.8,32.5h1.8v-0.2h-1.8V32.5z M47.4,33.2c0.1,0,0.2,0,0.2-0.1V33h-1.8v0c0,0.1,0.1,0.1,0.2,0.1h1.4V33.2z
				 M46.9,30.4h0.5c0.1,0,0.2,0,0.2-0.1v-0.2h-0.7V30.4z M47,29.6h0.7v-0.2c0-0.1,0-0.1-0.1-0.1H47V29.6z M48.4,34
				c0.2,0,0.2,0.2,0.2,0.3c0,0.2-0.1,0.3-0.3,0.3h-0.1c-0.4-0.1-0.8-0.3-1.1-0.4c0,0-0.1-0.1-0.1-0.2c0-0.2,0.1-0.3,0.3-0.3
				c0.1,0,0.1,0,0.2,0C47.7,33.8,48.1,33.9,48.4,34z"/>
			<path d="M51.6,30.1c-0.4,0.6-1,1.2-1.6,1.5c-0.1,0-0.1,0.1-0.2,0.1c-0.2,0-0.3-0.2-0.3-0.3c0-0.1,0-0.2,0.2-0.3
				c0.7-0.5,1.5-1.4,1.8-2.1c0.1-0.1,0.2-0.2,0.3-0.2c0.2,0,0.4,0.1,0.4,0.3v0.1c0,0.1-0.1,0.2-0.2,0.3h1c0.5,0,0.8,0.2,0.8,0.5
				c0,0.1,0,0.3-0.1,0.4c-0.4,0.7-1,1.3-1.6,1.8h1.7c0.6,0,0.9,0.2,0.9,0.7V34c0,0.5-0.2,0.6-0.9,0.6h-1.9c-0.6,0-0.9-0.2-0.9-0.6
				v-1c-0.4,0.2-0.8,0.4-1.2,0.6h-0.1c-0.2,0-0.3-0.2-0.3-0.3s0.1-0.2,0.2-0.3c0.8-0.3,1.5-0.7,2-1.2c-0.2-0.2-0.3-0.3-0.4-0.3
				C51,31.3,51,31.3,51,31.2c0-0.2,0.2-0.3,0.3-0.3s0.1,0,0.2,0.1c0.2,0.1,0.4,0.2,0.6,0.4c0.3-0.3,0.6-0.7,0.8-1v-0.1
				c0-0.1-0.1-0.1-0.2-0.1h-1.1V30.1z M53.7,34c0.2,0,0.3-0.1,0.3-0.2V33c0-0.2-0.1-0.2-0.3-0.2H52c-0.2,0-0.3,0.1-0.3,0.2v0.7
				c0,0.2,0.1,0.2,0.3,0.2L53.7,34L53.7,34z"/>
		</g>
	</g>
</g>
<g class="st3">
	<path class="st5" d="M64.4,23.1c0,0.2,0.1,0.2,0.6,0.2c0.6,0,0.7-0.1,0.8-0.5c0-0.2,0.2-0.3,0.4-0.3c0.2,0,0.4,0.1,0.4,0.4
		C66.4,23.8,66,24,64.9,24c-1.2,0-1.4-0.2-1.4-0.8v-1.8h-0.9c-0.2,1.4-1,2.3-2.3,2.7c-0.1,0-0.1,0-0.2,0c-0.2,0-0.4-0.2-0.4-0.4
		c0-0.2,0.1-0.3,0.3-0.4c1.1-0.4,1.7-1,1.8-2h-1.7c-0.2,0-0.3-0.2-0.3-0.3c0-0.2,0.1-0.3,0.3-0.3h6c0.2,0,0.3,0.2,0.3,0.3
		c0,0.2-0.1,0.3-0.3,0.3h-1.8V23.1z M62.7,17.4c0-0.2,0.2-0.3,0.4-0.3c0.2,0,0.4,0.1,0.4,0.3v0.5h1.8c0.7,0,1,0.2,1,0.7v0.6
		c0,0.2-0.2,0.3-0.4,0.3c-0.2,0-0.4-0.1-0.4-0.3v-0.4c0-0.2-0.1-0.2-0.3-0.2h-4.1c-0.2,0-0.3,0.1-0.3,0.2v0.5c0,0.2-0.2,0.3-0.4,0.3
		c-0.2,0-0.4-0.1-0.4-0.3v-0.6c0-0.5,0.3-0.7,1-0.7h1.8V17.4z M64.9,19.3c0.2,0,0.3,0.2,0.3,0.3c0,0.2-0.1,0.3-0.3,0.3h-3.5
		c-0.2,0-0.3-0.2-0.3-0.3c0-0.2,0.1-0.3,0.3-0.3H64.9z"/>
	<path class="st5" d="M69.9,19.8c0-0.2,0.2-0.4,0.4-0.4c0.1,0,0.2,0,0.2,0.1c0.5-0.3,0.9-0.6,1.2-0.9c0,0,0.1-0.1,0.1-0.1
		c0,0-0.1-0.1-0.2-0.1h-4c-0.2,0-0.3-0.2-0.3-0.4c0-0.2,0.1-0.4,0.3-0.4h4.3c0.6,0,1,0.3,1,0.7c0,0.2-0.1,0.4-0.3,0.6
		c-0.5,0.5-1.2,1-1.8,1.3v2.7c0,0.8-0.4,1.1-1.1,1.1c-0.3,0-0.5,0-0.6-0.1c-0.2-0.1-0.3-0.2-0.3-0.4c0-0.2,0.2-0.5,0.5-0.4
		c0.2,0,0.3,0.1,0.4,0.1c0.2,0,0.3-0.1,0.3-0.3V19.8z"/>
</g>
</svg>
