<?xml version="1.0" encoding="utf-8"?>
<!-- Generator: Adobe Illustrator 24.3.0, SVG Export Plug-In . SVG Version: 6.00 Build 0)  -->
<svg version="1.1" id="レイヤー_1" xmlns="http://www.w3.org/2000/svg" xmlns:xlink="http://www.w3.org/1999/xlink" x="0px"
	 y="0px" viewBox="0 0 80 133" style="enable-background:new 0 0 80 133;" xml:space="preserve">
<style type="text/css">
	.st0{fill:#54AD9E;}
	.st1{fill:url(#SVGID_1_);}
	.st2{fill:#54AD9E;stroke:#FFFFFF;stroke-miterlimit:10;}
	.st3{fill:#F5800B;}
	.st4{enable-background:new    ;}
	.st5{fill:#E7F3F1;}
	.st6{fill:#4D4D4D;stroke:#FFFFFF;stroke-miterlimit:10;}
</style>
<g id="レイヤー_2_1_">
	<g id="レイヤー_6">
		<path d="M18,5.5h54c4.4,0,8,3.6,8,8V125c0,4.4-3.6,8-8,8H18c-4.4,0-8-3.6-8-8V13.5C10,9.1,13.6,5.5,18,5.5z"/>
		<path class="st0" d="M20,11h50c3.3,0,6,2.7,6,6v105c0,3.3-2.7,6-6,6H20c-3.3,0-6-2.7-6-6V17C14,13.7,16.7,11,20,11z"/>
		
			<linearGradient id="SVGID_1_" gradientUnits="userSpaceOnUse" x1="45" y1="122.8898" x2="45" y2="64.8898" gradientTransform="matrix(1 0 0 -1 0 133.8898)">
			<stop  offset="0" style="stop-color:#84C29E"/>
			<stop  offset="1" style="stop-color:#54ADAD"/>
		</linearGradient>
		<path class="st1" d="M20,11h50c3.3,0,6,2.7,6,6v52l0,0H14l0,0V17C14,13.7,16.7,11,20,11z"/>
		<path class="st2" d="M52.8,47.3L37.9,50c-0.4,0.1-0.6,0.4-0.6,0.8l0.1,0.3c0.1,0.4,0.4,0.6,0.8,0.6c0,0,0,0,0,0l14.9-2.6
			c0.4-0.1,0.6-0.4,0.6-0.8l-0.1-0.3C53.6,47.6,53.2,47.3,52.8,47.3C52.8,47.3,52.8,47.3,52.8,47.3z"/>
		<path class="st2" d="M37.9,49.1l14.9,2.6c0.4,0.1,0.8-0.2,0.8-0.6c0,0,0,0,0,0l0.1-0.3c0.1-0.4-0.2-0.8-0.6-0.8l-14.9-2.6
			c-0.4-0.1-0.8,0.2-0.8,0.6c0,0,0,0,0,0l-0.1,0.3C37.2,48.6,37.5,49,37.9,49.1z"/>
		<path class="st2" d="M51,35.8l-0.1-0.1l-0.6-0.5c-0.8-0.7-1.3-1.7-1.5-2.8c-0.2,1.7-1.1,3.2-2.5,4c0-0.2,0-0.5,0-0.8
			c0-2.6-1.1-5-3.2-6.6c0,0.1,0,0.3,0,0.5c0,2.2-0.9,4.3-2.4,5.8c-0.2,0.1-0.4,0.3-0.5,0.4l-0.4,0.4c-3.2,3.3-3.2,8.5,0.1,11.7
			c1.6,1.6,3.8,2.5,6.1,2.4c1.7-0.1,3.3-0.6,4.6-1.6c3.7-2.7,4.5-7.9,1.8-11.6C51.9,36.7,51.5,36.2,51,35.8z"/>
		<path d="M30,6h30c1.7,0,3,1.3,3,3v3c0,1.7-1.3,3-3,3H30c-1.7,0-3-1.3-3-3V9C27,7.3,28.3,6,30,6z"/>
		<circle class="st3" cx="45" cy="109" r="12"/>
		<g class="st4">
			<path class="st5" d="M43.9,103.1c0-0.6,0.5-1,1.1-1c0.6,0,1.1,0.4,1.1,1v4.9H51c0.6,0,1,0.4,1,1c0,0.6-0.4,1-1,1h-4.9v5
				c0,0.6-0.5,1-1.1,1c-0.6,0-1.1-0.4-1.1-1v-5H39c-0.6,0-1-0.5-1-1c0-0.6,0.4-1,1-1h4.9V103.1z"/>
		</g>
		<circle class="st6" cx="11.5" cy="11.5" r="11"/>
		<g class="st4">
			<path class="st5" d="M11,10.6c1,0,1.5-0.5,1.5-1.4c0-0.7-0.6-1.2-1.4-1.2c-0.5,0-1,0.2-1.5,0.6C9.5,8.8,9.3,8.8,9.2,8.8
				c-0.4,0-0.7-0.3-0.7-0.7c0-0.2,0-0.3,0.2-0.4c0.6-0.5,1.5-0.9,2.4-0.9c1.8,0,2.8,1,2.8,2.3c0,1-0.5,1.6-1.4,1.9
				c1.1,0.3,1.7,1.1,1.7,2.1c0,1.7-1.3,2.9-3.2,2.9c-1,0-1.9-0.3-2.5-0.8c-0.2-0.2-0.3-0.3-0.3-0.6c0-0.3,0.3-0.6,0.6-0.6
				c0.1,0,0.2,0,0.3,0.1c0.6,0.4,1.2,0.6,1.8,0.6c1.1,0,1.7-0.7,1.7-1.6c0-0.9-0.6-1.5-1.7-1.5h-0.8c-0.3,0-0.6-0.3-0.6-0.6
				s0.2-0.6,0.6-0.6H11z"/>
		</g>
		<path class="st5" d="M18.5,73h53c1.1,0,2,0.9,2,2v5c0,1.1-0.9,2-2,2h-53c-1.1,0-2-0.9-2-2v-5C16.5,73.9,17.4,73,18.5,73z"/>
		<g class="st4">
			<path d="M38.5,76.4c0.2,0,0.3,0.1,0.3,0.3c0,0.1-0.1,0.2-0.2,0.3c-0.4,0.2-0.9,0.4-1.3,0.5c0,0-0.1,0-0.1,0
				c-0.2,0-0.3-0.1-0.3-0.3c0-0.1,0.1-0.2,0.2-0.3c0.4-0.1,0.9-0.3,1.2-0.4C38.4,76.5,38.4,76.4,38.5,76.4z M37.2,75.5
				c-0.2,0-0.2-0.1-0.2-0.3c0-0.1,0.1-0.3,0.2-0.3h1.6c0.5,0,0.7,0.2,0.7,0.6v1.5c0,0.4-0.2,0.6-0.6,0.6c-0.1,0-0.2,0-0.4,0
				c-0.2,0-0.3-0.2-0.3-0.3c0-0.2,0.1-0.3,0.3-0.3c0.1,0,0.1,0,0.2,0c0.1,0,0.1,0,0.1-0.1v-1.3c0-0.1,0-0.2-0.2-0.2H37.2z
				 M38.2,75.9c0.1,0.1,0.1,0.2,0.1,0.2c0,0.2-0.1,0.3-0.3,0.3c-0.1,0-0.1,0-0.2-0.1c-0.1-0.1-0.2-0.2-0.3-0.3
				c-0.1-0.1-0.1-0.1-0.1-0.2c0-0.1,0.1-0.3,0.3-0.3c0.1,0,0.1,0,0.2,0C38,75.7,38.1,75.8,38.2,75.9z M38.5,80.5
				c-0.6,0-0.8-0.2-0.8-0.7v-1.1c0-0.5,0.3-0.7,0.8-0.7h0.8c0-0.1,0.1-0.2,0.1-0.4c0-0.2,0.2-0.2,0.3-0.2c0.2,0,0.3,0.1,0.3,0.3
				c0,0,0,0.1,0,0.1c0,0.1-0.1,0.2-0.1,0.2h1c0.6,0,0.8,0.2,0.8,0.7v1.1c0,0.5-0.3,0.6-0.8,0.7H38.5z M41.1,78.8
				c0-0.1-0.1-0.2-0.3-0.2h-2.2c-0.2,0-0.3,0.1-0.3,0.2v0.2h2.7V78.8z M40.8,80c0.2,0,0.3-0.1,0.3-0.2v-0.2h-2.7v0.2
				c0,0.2,0.1,0.2,0.3,0.2H40.8z M41.2,76.4c0.2,0,0.3,0.1,0.3,0.3c0,0.1,0,0.2-0.2,0.3c-0.4,0.2-0.8,0.4-1.3,0.5c0,0-0.1,0-0.1,0
				c-0.2,0-0.3-0.1-0.3-0.3c0-0.1,0.1-0.2,0.2-0.3c0.4-0.1,0.8-0.2,1.2-0.4C41.1,76.4,41.2,76.4,41.2,76.4z M40,75.5
				c-0.2,0-0.2-0.1-0.2-0.3c0-0.1,0.1-0.3,0.2-0.3h1.6c0.5,0,0.7,0.2,0.7,0.6v1.5c0,0.4-0.2,0.6-0.7,0.6c-0.1,0-0.2,0-0.3,0
				c-0.2,0-0.3-0.2-0.3-0.3c0-0.2,0.1-0.3,0.3-0.3c0.1,0,0.1,0,0.2,0s0.1,0,0.1-0.1v-1.4c0-0.1,0-0.2-0.2-0.2H40z M40.9,75.9
				c0.1,0.1,0.1,0.2,0.1,0.2c0,0.2-0.1,0.3-0.3,0.3c-0.1,0-0.1,0-0.2-0.1c-0.1-0.1-0.2-0.2-0.3-0.3c-0.1-0.1-0.1-0.1-0.1-0.2
				c0-0.1,0.1-0.3,0.3-0.3c0.1,0,0.1,0,0.2,0C40.7,75.7,40.8,75.8,40.9,75.9z"/>
			<path d="M42.3,76.1c0.1,0,0.3,0.1,0.2,0.3c0,0.3-0.1,0.7-0.2,0.9c0,0.1-0.1,0.2-0.2,0.2c-0.1,0-0.2-0.1-0.2-0.2c0,0,0-0.1,0-0.1
				c0.1-0.2,0.1-0.6,0.2-0.8C42.1,76.2,42.2,76.1,42.3,76.1z M43.3,80.4c0,0.2-0.2,0.3-0.3,0.3c-0.2,0-0.3-0.1-0.3-0.3V75
				c0-0.2,0.2-0.3,0.3-0.3c0.2,0,0.3,0.1,0.3,0.3V80.4z M43.9,76.7c0,0.2-0.1,0.3-0.2,0.3c-0.1,0-0.2-0.1-0.2-0.2
				c0-0.2-0.1-0.4-0.1-0.6c0,0,0-0.1,0-0.1c0-0.1,0.1-0.2,0.2-0.2c0.1,0,0.2,0.1,0.2,0.2C43.8,76.3,43.9,76.5,43.9,76.7z M45.1,79.7
				c0.2,0,0.3,0.2,0.3,0.3c0,0.1-0.1,0.2-0.2,0.3c-0.4,0.2-0.8,0.3-1.2,0.4c-0.2,0.1-0.4-0.1-0.4-0.3c0-0.1,0.1-0.2,0.2-0.3
				c0.3-0.1,0.7-0.2,1.1-0.3C45,79.7,45.1,79.7,45.1,79.7z M44.9,76.9c-0.5,0-0.7-0.2-0.6-0.6l0-0.2H44c-0.2,0-0.2-0.1-0.2-0.2
				c0-0.1,0.1-0.2,0.2-0.2h0.3l0-0.2c0-0.4,0.1-0.6,0.6-0.6h1.8c0.5,0,0.7,0.2,0.6,0.6l0,0.2h0.4c0.2,0,0.2,0.1,0.2,0.2
				c0,0.1-0.1,0.2-0.2,0.2h-0.4l0,0.2c0,0.4-0.2,0.5-0.6,0.6H44.9z M45,79.7c-0.5,0-0.7-0.2-0.7-0.5v-1.5c0-0.4,0.2-0.6,0.7-0.6h1.7
				c0.5,0,0.7,0.2,0.7,0.6v1.5c0,0.4-0.3,0.5-0.7,0.5H45z M44.8,76.1l0,0.2c0,0.1,0,0.1,0.1,0.1h0.5l0-0.3H44.8z M45,75.3
				c-0.1,0-0.1,0-0.2,0.1l0,0.2h0.6l0-0.3H45z M46.7,77.7c0-0.1,0-0.1-0.2-0.1h-1.5c-0.1,0-0.2,0-0.2,0.1v0.1h1.8V77.7z M44.9,78.5
				h1.8v-0.2h-1.8V78.5z M46.6,79.2c0.1,0,0.2,0,0.2-0.1v-0.1h-1.8V79c0,0.1,0.1,0.1,0.2,0.1H46.6z M46,76.4h0.5
				c0.1,0,0.2,0,0.2-0.1l0-0.2H46L46,76.4z M46.1,75.6h0.7l0-0.2c0-0.1,0-0.1-0.1-0.1h-0.5L46.1,75.6z M47.6,80
				c0.2,0,0.2,0.2,0.2,0.3c0,0.2-0.1,0.3-0.3,0.3c0,0-0.1,0-0.1,0c-0.4-0.1-0.8-0.3-1.1-0.4c-0.1-0.1-0.2-0.2-0.2-0.3
				c0-0.2,0.1-0.3,0.3-0.3c0.1,0,0.1,0,0.2,0C46.8,79.8,47.2,79.9,47.6,80z"/>
			<path d="M49.8,76.1c-0.4,0.6-1,1.2-1.6,1.5c-0.1,0-0.1,0.1-0.2,0.1c-0.2,0-0.3-0.2-0.3-0.3c0-0.1,0-0.2,0.2-0.3
				c0.7-0.5,1.5-1.4,1.8-2.1c0.1-0.1,0.2-0.2,0.3-0.2c0.2,0,0.4,0.1,0.4,0.3c0,0,0,0.1,0,0.1c0,0.1-0.1,0.2-0.2,0.3h1
				c0.5,0,0.8,0.2,0.8,0.5c0,0.1,0,0.3-0.1,0.4c-0.4,0.7-1,1.3-1.6,1.8H52c0.6,0,0.9,0.2,0.9,0.7v1.1c0,0.5-0.2,0.6-0.9,0.6h-1.9
				c-0.6,0-0.9-0.2-0.9-0.6v-1c-0.4,0.2-0.8,0.4-1.2,0.6c0,0-0.1,0-0.1,0c-0.2,0-0.3-0.2-0.3-0.3c0-0.1,0.1-0.2,0.2-0.3
				c0.8-0.3,1.5-0.7,2-1.2c-0.2-0.2-0.3-0.3-0.4-0.3c-0.1-0.1-0.1-0.2-0.1-0.2c0-0.2,0.2-0.3,0.3-0.3c0.1,0,0.1,0,0.2,0.1
				c0.2,0.1,0.4,0.2,0.6,0.4c0.3-0.3,0.6-0.7,0.8-1c0,0,0-0.1,0-0.1c0-0.1-0.1-0.1-0.2-0.1H49.8z M51.9,80c0.2,0,0.3-0.1,0.3-0.2V79
				c0-0.2-0.1-0.2-0.3-0.2h-1.7c-0.2,0-0.3,0.1-0.3,0.2v0.7c0,0.2,0.1,0.2,0.3,0.2H51.9z"/>
		</g>
	</g>
</g>
</svg>
