<?xml version="1.0" encoding="utf-8"?>
<!-- Generator: Adobe Illustrator 24.3.0, SVG Export Plug-In . SVG Version: 6.00 Build 0)  -->
<svg version="1.1" id="レイヤー_1" xmlns="http://www.w3.org/2000/svg" xmlns:xlink="http://www.w3.org/1999/xlink" x="0px"
	 y="0px" viewBox="0 0 80 133" style="enable-background:new 0 0 80 133;" xml:space="preserve">
<style type="text/css">
	.st0{fill:#54AD9E;}
	.st1{fill:url(#SVGID_1_);}
	.st2{fill:#54AD9E;stroke:#FFFFFF;stroke-miterlimit:10;}
	.st3{fill:#F5800B;}
	.st4{enable-background:new    ;}
	.st5{fill:#E7F3F1;}
	.st6{fill:#4D4D4D;stroke:#FFFFFF;stroke-miterlimit:10;}
	.st7{fill:#088FCE;}
	.st8{fill-rule:evenodd;clip-rule:evenodd;fill:#E7F7FE;}
</style>
<g id="レイヤー_2_1_">
	<g id="レイヤー_6">
		<path d="M18,5.5h54c4.4,0,8,3.6,8,8V125c0,4.4-3.6,8-8,8H18c-4.4,0-8-3.6-8-8V13.5C10,9.1,13.6,5.5,18,5.5z"/>
		<path class="st0" d="M20,11h50c3.3,0,6,2.7,6,6v105c0,3.3-2.7,6-6,6H20c-3.3,0-6-2.7-6-6V17C14,13.7,16.7,11,20,11z"/>
		
			<linearGradient id="SVGID_1_" gradientUnits="userSpaceOnUse" x1="45" y1="122.8898" x2="45" y2="64.8898" gradientTransform="matrix(1 0 0 -1 0 133.8898)">
			<stop  offset="0" style="stop-color:#84C29E"/>
			<stop  offset="1" style="stop-color:#54ADAD"/>
		</linearGradient>
		<path class="st1" d="M20,11h50c3.3,0,6,2.7,6,6v52l0,0H14l0,0V17C14,13.7,16.7,11,20,11z"/>
		<path class="st2" d="M52.8,47.3L37.9,50c-0.4,0.1-0.6,0.4-0.6,0.8l0.1,0.3c0.1,0.4,0.4,0.6,0.8,0.6c0,0,0,0,0,0l14.9-2.6
			c0.4-0.1,0.6-0.4,0.6-0.8l-0.1-0.3C53.6,47.6,53.2,47.3,52.8,47.3C52.8,47.3,52.8,47.3,52.8,47.3z"/>
		<path class="st2" d="M37.9,49.1l14.9,2.6c0.4,0.1,0.8-0.2,0.8-0.6c0,0,0,0,0,0l0.1-0.3c0.1-0.4-0.2-0.8-0.6-0.8l-14.9-2.6
			c-0.4-0.1-0.8,0.2-0.8,0.6c0,0,0,0,0,0l-0.1,0.3C37.2,48.6,37.5,49,37.9,49.1z"/>
		<path class="st2" d="M51,35.8l-0.1-0.1l-0.6-0.5c-0.8-0.7-1.3-1.7-1.5-2.8c-0.2,1.7-1.1,3.2-2.5,4c0-0.2,0-0.5,0-0.8
			c0-2.6-1.1-5-3.2-6.6c0,0.1,0,0.3,0,0.5c0,2.2-0.9,4.3-2.4,5.8c-0.2,0.1-0.4,0.3-0.5,0.4l-0.4,0.4c-3.2,3.3-3.2,8.5,0.1,11.7
			c1.6,1.6,3.8,2.5,6.1,2.4c1.7-0.1,3.3-0.6,4.6-1.6c3.7-2.7,4.5-7.9,1.8-11.6C51.9,36.7,51.5,36.2,51,35.8z"/>
		<path d="M30,6h30c1.7,0,3,1.3,3,3v3c0,1.7-1.3,3-3,3H30c-1.7,0-3-1.3-3-3V9C27,7.3,28.3,6,30,6z"/>
		<circle class="st3" cx="45" cy="109" r="12"/>
		<g class="st4">
			<path class="st5" d="M43.9,103.1c0-0.6,0.5-1,1.1-1c0.6,0,1.1,0.4,1.1,1v4.9H51c0.6,0,1,0.4,1,1c0,0.6-0.4,1-1,1h-4.9v5
				c0,0.6-0.5,1-1.1,1c-0.6,0-1.1-0.4-1.1-1v-5H39c-0.6,0-1-0.5-1-1c0-0.6,0.4-1,1-1h4.9V103.1z"/>
		</g>
		<circle class="st6" cx="11.5" cy="11.5" r="11"/>
		<g class="st4">
			<path class="st5" d="M13.5,14.6c0.4,0,0.6,0.3,0.6,0.6c0,0.4-0.2,0.6-0.6,0.6H9.1c-0.4,0-0.7-0.3-0.7-0.8c0-0.3,0.1-0.6,0.4-0.8
				c1-0.9,1.8-1.6,2.7-2.7c0.7-0.9,1.1-1.5,1.1-2.2c0-0.9-0.5-1.4-1.2-1.4c-0.5,0-1,0.2-1.6,0.8C9.6,9,9.4,9.1,9.2,9.1
				c-0.4,0-0.7-0.3-0.7-0.7c0-0.2,0.1-0.3,0.2-0.5c0.6-0.6,1.6-1.1,2.5-1.1c1.7,0,2.7,1,2.7,2.6c0,1.1-0.4,1.8-1.5,3
				c-1,1-1.6,1.6-2.3,2.3H13.5z"/>
		</g>
		<path class="st5" d="M17,73h37.5c1.1,0,2,0.9,2,2v5c0,1.1-0.9,2-2,2H17l0,0V73L17,73z"/>
		<g class="st4">
			<path d="M20.5,76.4c0.2,0,0.3,0.1,0.3,0.3c0,0.1-0.1,0.2-0.2,0.3c-0.4,0.2-0.9,0.4-1.3,0.5c0,0-0.1,0-0.1,0
				c-0.2,0-0.3-0.1-0.3-0.3c0-0.1,0.1-0.2,0.2-0.3c0.4-0.1,0.9-0.3,1.2-0.4C20.4,76.5,20.4,76.4,20.5,76.4z M19.2,75.5
				c-0.2,0-0.2-0.1-0.2-0.3c0-0.1,0.1-0.3,0.2-0.3h1.6c0.5,0,0.7,0.2,0.7,0.6v1.5c0,0.4-0.2,0.6-0.6,0.6c-0.1,0-0.2,0-0.4,0
				c-0.2,0-0.3-0.2-0.3-0.3c0-0.2,0.1-0.3,0.3-0.3c0.1,0,0.1,0,0.2,0c0.1,0,0.1,0,0.1-0.1v-1.3c0-0.1,0-0.2-0.2-0.2H19.2z
				 M20.2,75.9c0.1,0.1,0.1,0.2,0.1,0.2c0,0.2-0.1,0.3-0.3,0.3c-0.1,0-0.1,0-0.2-0.1c-0.1-0.1-0.2-0.2-0.3-0.3
				c-0.1-0.1-0.1-0.1-0.1-0.2c0-0.1,0.1-0.3,0.3-0.3c0.1,0,0.1,0,0.2,0C20,75.7,20.1,75.8,20.2,75.9z M20.5,80.5
				c-0.6,0-0.8-0.2-0.8-0.7v-1.1c0-0.5,0.3-0.7,0.8-0.7h0.8c0-0.1,0.1-0.2,0.1-0.4c0-0.2,0.2-0.2,0.3-0.2c0.2,0,0.3,0.1,0.3,0.3
				c0,0,0,0.1,0,0.1c0,0.1-0.1,0.2-0.1,0.2h1c0.6,0,0.8,0.2,0.8,0.7v1.1c0,0.5-0.3,0.6-0.8,0.7H20.5z M23.1,78.8
				c0-0.1-0.1-0.2-0.3-0.2h-2.2c-0.2,0-0.3,0.1-0.3,0.2v0.2h2.7V78.8z M22.8,80c0.2,0,0.3-0.1,0.3-0.2v-0.2h-2.7v0.2
				c0,0.2,0.1,0.2,0.3,0.2H22.8z M23.2,76.4c0.2,0,0.3,0.1,0.3,0.3c0,0.1,0,0.2-0.2,0.3c-0.4,0.2-0.8,0.4-1.3,0.5c0,0-0.1,0-0.1,0
				c-0.2,0-0.3-0.1-0.3-0.3c0-0.1,0.1-0.2,0.2-0.3c0.4-0.1,0.8-0.2,1.2-0.4C23.1,76.4,23.2,76.4,23.2,76.4z M22,75.5
				c-0.2,0-0.2-0.1-0.2-0.3c0-0.1,0.1-0.3,0.2-0.3h1.6c0.5,0,0.7,0.2,0.7,0.6v1.5c0,0.4-0.2,0.6-0.7,0.6c-0.1,0-0.2,0-0.3,0
				c-0.2,0-0.3-0.2-0.3-0.3c0-0.2,0.1-0.3,0.3-0.3c0.1,0,0.1,0,0.2,0c0.1,0,0.1,0,0.1-0.1v-1.4c0-0.1,0-0.2-0.2-0.2H22z M22.9,75.9
				c0.1,0.1,0.1,0.2,0.1,0.2c0,0.2-0.1,0.3-0.3,0.3c-0.1,0-0.1,0-0.2-0.1c-0.1-0.1-0.2-0.2-0.3-0.3c-0.1-0.1-0.1-0.1-0.1-0.2
				c0-0.1,0.1-0.3,0.3-0.3c0.1,0,0.1,0,0.2,0C22.7,75.7,22.8,75.8,22.9,75.9z"/>
		</g>
		<g class="st4">
			<path d="M24.7,76.1c0.1,0,0.3,0.1,0.2,0.3c0,0.3-0.1,0.7-0.2,0.9c0,0.1-0.1,0.2-0.2,0.2c-0.1,0-0.2-0.1-0.2-0.2c0,0,0-0.1,0-0.1
				c0.1-0.2,0.1-0.6,0.2-0.8C24.5,76.2,24.6,76.1,24.7,76.1z M25.7,80.4c0,0.2-0.2,0.3-0.3,0.3c-0.2,0-0.3-0.1-0.3-0.3V75
				c0-0.2,0.2-0.3,0.3-0.3c0.2,0,0.3,0.1,0.3,0.3V80.4z M26.4,76.7c0,0.2-0.1,0.3-0.2,0.3c-0.1,0-0.2-0.1-0.2-0.2
				c0-0.2-0.1-0.4-0.1-0.6c0,0,0-0.1,0-0.1c0-0.1,0.1-0.2,0.2-0.2c0.1,0,0.2,0.1,0.2,0.2C26.3,76.3,26.3,76.5,26.4,76.7z M27.6,79.7
				c0.2,0,0.3,0.2,0.3,0.3c0,0.1-0.1,0.2-0.2,0.3c-0.4,0.2-0.8,0.3-1.2,0.4c-0.2,0.1-0.4-0.1-0.4-0.3c0-0.1,0.1-0.2,0.2-0.3
				c0.3-0.1,0.7-0.2,1.1-0.3C27.5,79.7,27.5,79.7,27.6,79.7z M27.3,76.9c-0.5,0-0.7-0.2-0.6-0.6l0-0.2h-0.2c-0.2,0-0.2-0.1-0.2-0.2
				c0-0.1,0.1-0.2,0.2-0.2h0.3l0-0.2c0-0.4,0.1-0.6,0.6-0.6h1.8c0.5,0,0.7,0.2,0.6,0.6l0,0.2h0.4c0.2,0,0.2,0.1,0.2,0.2
				c0,0.1-0.1,0.2-0.2,0.2h-0.4l0,0.2c0,0.4-0.2,0.5-0.6,0.6H27.3z M27.4,79.7c-0.5,0-0.7-0.2-0.7-0.5v-1.5c0-0.4,0.2-0.6,0.7-0.6
				h1.7c0.5,0,0.7,0.2,0.7,0.6v1.5c0,0.4-0.3,0.5-0.7,0.5H27.4z M27.3,76.1l0,0.2c0,0.1,0,0.1,0.1,0.1h0.5l0-0.3H27.3z M27.5,75.3
				c-0.1,0-0.1,0-0.2,0.1l0,0.2h0.6l0-0.3H27.5z M29.2,77.7c0-0.1,0-0.1-0.2-0.1h-1.5c-0.1,0-0.2,0-0.2,0.1v0.1h1.8V77.7z
				 M27.4,78.5h1.8v-0.2h-1.8V78.5z M29,79.2c0.1,0,0.2,0,0.2-0.1v-0.1h-1.8V79c0,0.1,0.1,0.1,0.2,0.1H29z M28.5,76.4H29
				c0.1,0,0.2,0,0.2-0.1l0-0.2h-0.7L28.5,76.4z M28.5,75.6h0.7l0-0.2c0-0.1,0-0.1-0.1-0.1h-0.5L28.5,75.6z M30,80
				c0.2,0,0.2,0.2,0.2,0.3c0,0.2-0.1,0.3-0.3,0.3c0,0-0.1,0-0.1,0c-0.4-0.1-0.8-0.3-1.1-0.4c-0.1-0.1-0.2-0.2-0.2-0.3
				c0-0.2,0.1-0.3,0.3-0.3c0.1,0,0.1,0,0.2,0C29.3,79.8,29.7,79.9,30,80z"/>
		</g>
		<g class="st4">
			<path d="M32.9,75.6c0.1-0.3,0.3-0.5,0.6-0.5c0.3,0,0.5,0.1,0.6,0.4l1.4,3.9c0,0.1,0,0.1,0,0.2c0,0.2-0.2,0.3-0.4,0.3
				c-0.2,0-0.3-0.1-0.3-0.2l-0.5-1.4h-1.6l-0.5,1.4c-0.1,0.1-0.2,0.2-0.3,0.2c-0.3,0-0.4-0.1-0.4-0.3c0-0.1,0-0.1,0-0.2L32.9,75.6z
				 M33.4,75.9c-0.1,0.3-0.2,0.7-0.3,1l-0.3,0.9H34l-0.3-0.9C33.7,76.6,33.6,76.3,33.4,75.9L33.4,75.9z"/>
		</g>
		<path class="st5" d="M18.5,84h53c1.1,0,2,0.9,2,2v5c0,1.1-0.9,2-2,2h-53c-1.1,0-2-0.9-2-2v-5C16.5,84.9,17.4,84,18.5,84z"/>
		<g class="st4">
			<path d="M39,87.4c0.2,0,0.3,0.1,0.3,0.3c0,0.1-0.1,0.2-0.2,0.3c-0.4,0.2-0.9,0.4-1.3,0.5c0,0-0.1,0-0.1,0c-0.2,0-0.3-0.1-0.3-0.3
				c0-0.1,0.1-0.2,0.2-0.3c0.4-0.1,0.9-0.3,1.2-0.4C38.9,87.5,38.9,87.4,39,87.4z M37.7,86.5c-0.2,0-0.2-0.1-0.2-0.3
				c0-0.1,0.1-0.3,0.2-0.3h1.6c0.5,0,0.7,0.2,0.7,0.6v1.5c0,0.4-0.2,0.6-0.6,0.6c-0.1,0-0.2,0-0.4,0c-0.2,0-0.3-0.2-0.3-0.3
				c0-0.2,0.1-0.3,0.3-0.3c0.1,0,0.1,0,0.2,0c0.1,0,0.1,0,0.1-0.1v-1.3c0-0.1,0-0.2-0.2-0.2H37.7z M38.7,86.9
				c0.1,0.1,0.1,0.2,0.1,0.2c0,0.2-0.1,0.3-0.3,0.3c-0.1,0-0.1,0-0.2-0.1c-0.1-0.1-0.2-0.2-0.3-0.3C38,87,37.9,87,37.9,86.9
				c0-0.1,0.1-0.3,0.3-0.3c0.1,0,0.1,0,0.2,0C38.5,86.7,38.6,86.8,38.7,86.9z M39,91.5c-0.6,0-0.8-0.2-0.8-0.7v-1.1
				c0-0.5,0.3-0.7,0.8-0.7h0.8c0-0.1,0.1-0.2,0.1-0.4c0-0.2,0.2-0.2,0.3-0.2c0.2,0,0.3,0.1,0.3,0.3c0,0,0,0.1,0,0.1
				c0,0.1-0.1,0.2-0.1,0.2h1c0.6,0,0.8,0.2,0.8,0.7v1.1c0,0.5-0.3,0.6-0.8,0.7H39z M41.6,89.8c0-0.1-0.1-0.2-0.3-0.2h-2.2
				c-0.2,0-0.3,0.1-0.3,0.2v0.2h2.7V89.8z M41.3,91c0.2,0,0.3-0.1,0.3-0.2v-0.2h-2.7v0.2c0,0.2,0.1,0.2,0.3,0.2H41.3z M41.7,87.4
				c0.2,0,0.3,0.1,0.3,0.3c0,0.1,0,0.2-0.2,0.3c-0.4,0.2-0.8,0.4-1.3,0.5c0,0-0.1,0-0.1,0c-0.2,0-0.3-0.1-0.3-0.3
				c0-0.1,0.1-0.2,0.2-0.3c0.4-0.1,0.8-0.2,1.2-0.4C41.6,87.4,41.7,87.4,41.7,87.4z M40.5,86.5c-0.2,0-0.2-0.1-0.2-0.3
				c0-0.1,0.1-0.3,0.2-0.3h1.6c0.5,0,0.7,0.2,0.7,0.6v1.5c0,0.4-0.2,0.6-0.7,0.6c-0.1,0-0.2,0-0.3,0c-0.2,0-0.3-0.2-0.3-0.3
				c0-0.2,0.1-0.3,0.3-0.3c0.1,0,0.1,0,0.2,0s0.1,0,0.1-0.1v-1.4c0-0.1,0-0.2-0.2-0.2H40.5z M41.4,86.9c0.1,0.1,0.1,0.2,0.1,0.2
				c0,0.2-0.1,0.3-0.3,0.3c-0.1,0-0.1,0-0.2-0.1c-0.1-0.1-0.2-0.2-0.3-0.3c-0.1-0.1-0.1-0.1-0.1-0.2c0-0.1,0.1-0.3,0.3-0.3
				c0.1,0,0.1,0,0.2,0C41.2,86.7,41.3,86.8,41.4,86.9z"/>
		</g>
		<g class="st4">
			<path d="M43.2,87.1c0.1,0,0.3,0.1,0.2,0.3c0,0.3-0.1,0.7-0.2,0.9c0,0.1-0.1,0.2-0.2,0.2c-0.1,0-0.2-0.1-0.2-0.2c0,0,0-0.1,0-0.1
				c0.1-0.2,0.1-0.6,0.2-0.8C43,87.2,43.1,87.1,43.2,87.1z M44.2,91.4c0,0.2-0.2,0.3-0.3,0.3c-0.2,0-0.3-0.1-0.3-0.3V86
				c0-0.2,0.2-0.3,0.3-0.3c0.2,0,0.3,0.1,0.3,0.3V91.4z M44.9,87.7c0,0.2-0.1,0.3-0.2,0.3c-0.1,0-0.2-0.1-0.2-0.2
				c0-0.2-0.1-0.4-0.1-0.6c0,0,0-0.1,0-0.1c0-0.1,0.1-0.2,0.2-0.2c0.1,0,0.2,0.1,0.2,0.2C44.8,87.3,44.8,87.5,44.9,87.7z M46.1,90.7
				c0.2,0,0.3,0.2,0.3,0.3c0,0.1-0.1,0.2-0.2,0.3c-0.4,0.2-0.8,0.3-1.2,0.4c-0.2,0.1-0.4-0.1-0.4-0.3c0-0.1,0.1-0.2,0.2-0.3
				c0.3-0.1,0.7-0.2,1.1-0.3C46,90.7,46,90.7,46.1,90.7z M45.8,87.9c-0.5,0-0.7-0.2-0.6-0.6l0-0.2h-0.2c-0.2,0-0.2-0.1-0.2-0.2
				c0-0.1,0.1-0.2,0.2-0.2h0.3l0-0.2c0-0.4,0.1-0.6,0.6-0.6h1.8c0.5,0,0.7,0.2,0.6,0.6l0,0.2h0.4c0.2,0,0.2,0.1,0.2,0.2
				c0,0.1-0.1,0.2-0.2,0.2h-0.4l0,0.2c0,0.4-0.2,0.5-0.6,0.6H45.8z M45.9,90.7c-0.5,0-0.7-0.2-0.7-0.5v-1.5c0-0.4,0.2-0.6,0.7-0.6
				h1.7c0.5,0,0.7,0.2,0.7,0.6v1.5c0,0.4-0.3,0.5-0.7,0.5H45.9z M45.8,87.1l0,0.2c0,0.1,0,0.1,0.1,0.1h0.5l0-0.3H45.8z M46,86.3
				c-0.1,0-0.1,0-0.2,0.1l0,0.2h0.6l0-0.3H46z M47.7,88.7c0-0.1,0-0.1-0.2-0.1H46c-0.1,0-0.2,0-0.2,0.1v0.1h1.8V88.7z M45.9,89.5
				h1.8v-0.2h-1.8V89.5z M47.5,90.2c0.1,0,0.2,0,0.2-0.1v-0.1h-1.8V90c0,0.1,0.1,0.1,0.2,0.1H47.5z M47,87.4h0.5
				c0.1,0,0.2,0,0.2-0.1l0-0.2H47L47,87.4z M47,86.6h0.7l0-0.2c0-0.1,0-0.1-0.1-0.1H47L47,86.6z M48.5,91c0.2,0,0.2,0.2,0.2,0.3
				c0,0.2-0.1,0.3-0.3,0.3c0,0-0.1,0-0.1,0c-0.4-0.1-0.8-0.3-1.1-0.4c-0.1-0.1-0.2-0.2-0.2-0.3c0-0.2,0.1-0.3,0.3-0.3
				c0.1,0,0.1,0,0.2,0C47.8,90.8,48.2,90.9,48.5,91z"/>
		</g>
		<g class="st4">
			<path d="M51.3,91.1c-0.7,0-1-0.2-1-0.9v-3.2c0-0.6,0.2-0.9,1-0.9h0.8c1,0,1.5,0.5,1.5,1.2c0,0.5-0.3,0.9-0.7,1
				c0.6,0.1,1,0.5,1,1.3c0,0.9-0.6,1.4-1.7,1.4H51.3z M52,88.2c0.5,0,0.8-0.3,0.8-0.7c0-0.5-0.3-0.7-0.8-0.7h-0.6
				c-0.3,0-0.4,0.1-0.4,0.3v1.1H52z M52.1,90.5c0.6,0,0.9-0.3,0.9-0.8c0-0.6-0.3-0.8-0.9-0.8h-1v1.3c0,0.3,0.1,0.3,0.4,0.3H52.1z"/>
		</g>
		<path class="st7" d="M58.5,74.3c0-0.8,0.7-1.4,1.4-1.3c0,0,0,0,0,0h10.6c0.8,0,1.4,0.6,1.4,1.3c0,0,0,0,0,0v6.6
			c0,0.8-0.7,1.4-1.4,1.3c0,0,0,0,0,0H60c-0.8,0-1.4-0.6-1.4-1.3c0,0,0,0,0,0L58.5,74.3z"/>
		<path class="st8" d="M67.1,76.4c0.1,0,0.1,0.1,0.1,0.2c0,0.1,0,0.1-0.1,0.2l-2.3,2.1c-0.1,0.1-0.3,0.1-0.4,0l-1.2-1
			c0,0-0.1-0.1-0.1-0.2c0-0.1,0-0.1,0.1-0.2c0.1,0,0.1-0.1,0.2-0.1c0.1,0,0.1,0,0.2,0.1l1,0.9l2.1-1.9c0.1-0.1,0.1-0.1,0.2-0.1
			C67,76.3,67.1,76.3,67.1,76.4z"/>
	</g>
</g>
</svg>
