<?xml version="1.0" encoding="utf-8"?>
<!-- Generator: Adobe Illustrator 24.3.0, SVG Export Plug-In . SVG Version: 6.00 Build 0)  -->
<svg version="1.1" id="レイヤー_1" xmlns="http://www.w3.org/2000/svg" xmlns:xlink="http://www.w3.org/1999/xlink" x="0px"
	 y="0px" viewBox="0 0 70 127.5" style="enable-background:new 0 0 70 127.5;" xml:space="preserve">
<style type="text/css">
	.st0{fill:#54AD9E;}
	.st1{fill:url(#SVGID_1_);}
	.st2{fill:#F5800B;}
	.st3{fill:#E7F3F1;}
	.st4{enable-background:new    ;}
</style>
<g id="レイヤー_2_1_">
	<g id="レイヤー_6">
		<path d="M8,0h54c4.4,0,8,3.6,8,8v111.5c0,4.4-3.6,8-8,8H8c-4.4,0-8-3.6-8-8V8C0,3.6,3.6,0,8,0z"/>
		<path class="st0" d="M10,5.5h50c3.3,0,6,2.7,6,6v105c0,3.3-2.7,6-6,6H10c-3.3,0-6-2.7-6-6v-105C4,8.2,6.7,5.5,10,5.5z"/>
		
			<linearGradient id="SVGID_1_" gradientUnits="userSpaceOnUse" x1="35" y1="-591.6102" x2="35" y2="-649.6102" gradientTransform="matrix(1 0 0 -1 0 -586.1102)">
			<stop  offset="0" style="stop-color:#84C29E"/>
			<stop  offset="1" style="stop-color:#54ADAD"/>
		</linearGradient>
		<path class="st1" d="M10,5.5h50c3.3,0,6,2.7,6,6v52l0,0H4l0,0v-52C4,8.2,6.7,5.5,10,5.5z"/>
		<path d="M20,0.5h30c1.7,0,3,1.3,3,3v3c0,1.7-1.3,3-3,3H20c-1.7,0-3-1.3-3-3v-3C17,1.8,18.3,0.5,20,0.5z"/>
		<circle class="st2" cx="50.9" cy="41.5" r="5"/>
		<path class="st3" d="M8.5,67.5h53c1.1,0,2,0.9,2,2v33c0,1.1-0.9,2-2,2h-53c-1.1,0-2-0.9-2-2v-33C6.5,68.4,7.4,67.5,8.5,67.5z"/>
		<g class="st4">
			<path d="M12.5,73.9c0.2,0,0.3,0.1,0.3,0.3c0,0.1-0.1,0.2-0.2,0.3c-0.4,0.2-0.9,0.4-1.3,0.5h-0.1c-0.2,0-0.3-0.1-0.3-0.3
				c0-0.1,0.1-0.2,0.2-0.3c0.4-0.1,0.9-0.3,1.2-0.4C12.4,74,12.4,73.9,12.5,73.9z M11.2,73C11,73,11,72.9,11,72.7
				c0-0.1,0.1-0.3,0.2-0.3h1.6c0.5,0,0.7,0.2,0.7,0.6v1.5c0,0.4-0.2,0.6-0.6,0.6c-0.1,0-0.2,0-0.4,0s-0.3-0.2-0.3-0.3
				c0-0.2,0.1-0.3,0.3-0.3c0.1,0,0.1,0,0.2,0c0.1,0,0.1,0,0.1-0.1v-1.3c0-0.1,0-0.2-0.2-0.2h-1.4C11.2,72.9,11.2,73,11.2,73z
				 M12.2,73.4c0.1,0.1,0.1,0.2,0.1,0.2c0,0.2-0.1,0.3-0.3,0.3c-0.1,0-0.1,0-0.2-0.1c-0.1-0.1-0.2-0.2-0.3-0.3
				c-0.1-0.1-0.1-0.1-0.1-0.2s0.1-0.3,0.3-0.3c0.1,0,0.1,0,0.2,0C12,73.2,12.1,73.3,12.2,73.4z M12.5,78c-0.6,0-0.8-0.2-0.8-0.7
				v-1.1c0-0.5,0.3-0.7,0.8-0.7h0.8c0-0.1,0.1-0.2,0.1-0.4c0-0.2,0.2-0.2,0.3-0.2c0.2,0,0.3,0.1,0.3,0.3v0.1c0,0.1-0.1,0.2-0.1,0.2
				h1c0.6,0,0.8,0.2,0.8,0.7v1.1c0,0.5-0.3,0.6-0.8,0.7H12.5z M15.1,76.3c0-0.1-0.1-0.2-0.3-0.2h-2.2c-0.2,0-0.3,0.1-0.3,0.2v0.2H15
				v-0.2H15.1z M14.8,77.5c0.2,0,0.3-0.1,0.3-0.2v-0.2h-2.7v0.2c0,0.2,0.1,0.2,0.3,0.2H14.8z M15.2,73.9c0.2,0,0.3,0.1,0.3,0.3
				c0,0.1,0,0.2-0.2,0.3c-0.4,0.2-0.8,0.4-1.3,0.5h-0.1c-0.2,0-0.3-0.1-0.3-0.3c0-0.1,0.1-0.2,0.2-0.3c0.4-0.1,0.8-0.2,1.2-0.4
				C15.1,73.9,15.2,73.9,15.2,73.9z M14,73c-0.2,0-0.2-0.1-0.2-0.3c0-0.1,0.1-0.3,0.2-0.3h1.6c0.5,0,0.7,0.2,0.7,0.6v1.5
				c0,0.4-0.2,0.6-0.7,0.6c-0.1,0-0.2,0-0.3,0c-0.2,0-0.3-0.2-0.3-0.3c0-0.2,0.1-0.3,0.3-0.3c0.1,0,0.1,0,0.2,0c0.1,0,0.1,0,0.1-0.1
				V73c0-0.1,0-0.2-0.2-0.2H14V73z M14.9,73.4c0.1,0.1,0.1,0.2,0.1,0.2c0,0.2-0.1,0.3-0.3,0.3c-0.1,0-0.1,0-0.2-0.1
				c-0.1-0.1-0.2-0.2-0.3-0.3c-0.1-0.1-0.1-0.1-0.1-0.2s0.1-0.3,0.3-0.3c0.1,0,0.1,0,0.2,0C14.7,73.2,14.8,73.3,14.9,73.4z"/>
		</g>
		<g class="st4">
			<path d="M16.7,73.6c0.1,0,0.3,0.1,0.2,0.3c0,0.3-0.1,0.7-0.2,0.9c0,0.1-0.1,0.2-0.2,0.2s-0.2-0.1-0.2-0.2v-0.1
				c0.1-0.2,0.1-0.6,0.2-0.8C16.5,73.7,16.6,73.6,16.7,73.6z M17.7,77.9c0,0.2-0.2,0.3-0.3,0.3c-0.2,0-0.3-0.1-0.3-0.3v-5.4
				c0-0.2,0.2-0.3,0.3-0.3c0.2,0,0.3,0.1,0.3,0.3V77.9z M18.4,74.2c0,0.2-0.1,0.3-0.2,0.3S18,74.4,18,74.3c0-0.2-0.1-0.4-0.1-0.6
				v-0.1c0-0.1,0.1-0.2,0.2-0.2s0.2,0.1,0.2,0.2C18.3,73.8,18.3,74,18.4,74.2z M19.6,77.2c0.2,0,0.3,0.2,0.3,0.3
				c0,0.1-0.1,0.2-0.2,0.3c-0.4,0.2-0.8,0.3-1.2,0.4c-0.2,0.1-0.4-0.1-0.4-0.3c0-0.1,0.1-0.2,0.2-0.3c0.3-0.1,0.7-0.2,1.1-0.3
				C19.5,77.2,19.5,77.2,19.6,77.2z M19.3,74.4c-0.5,0-0.7-0.2-0.6-0.6v-0.2h-0.2c-0.2,0-0.2-0.1-0.2-0.2s0.1-0.2,0.2-0.2h0.3V73
				c0-0.4,0.1-0.6,0.6-0.6h1.8c0.5,0,0.7,0.2,0.6,0.6v0.2h0.4c0.2,0,0.2,0.1,0.2,0.2s-0.1,0.2-0.2,0.2h-0.4v0.2
				c0,0.4-0.2,0.5-0.6,0.6L19.3,74.4L19.3,74.4z M19.4,77.2c-0.5,0-0.7-0.2-0.7-0.5v-1.5c0-0.4,0.2-0.6,0.7-0.6h1.7
				c0.5,0,0.7,0.2,0.7,0.6v1.5c0,0.4-0.3,0.5-0.7,0.5H19.4z M19.3,73.6v0.2c0,0.1,0,0.1,0.1,0.1h0.5v-0.3
				C19.9,73.6,19.3,73.6,19.3,73.6z M19.5,72.8c-0.1,0-0.1,0-0.2,0.1v0.2h0.6v-0.3C19.9,72.8,19.5,72.8,19.5,72.8z M21.2,75.2
				c0-0.1,0-0.1-0.2-0.1h-1.5c-0.1,0-0.2,0-0.2,0.1v0.1h1.8v-0.1H21.2z M19.4,76h1.8v-0.2h-1.8V76z M21,76.7c0.1,0,0.2,0,0.2-0.1
				v-0.1h-1.8v0.1c0,0.1,0.1,0.1,0.2,0.1H21z M20.5,73.9H21c0.1,0,0.2,0,0.2-0.1v-0.2h-0.7V73.9z M20.5,73.1h0.7v-0.2
				c0-0.1,0-0.1-0.1-0.1h-0.5L20.5,73.1z M22,77.5c0.2,0,0.2,0.2,0.2,0.3c0,0.2-0.1,0.3-0.3,0.3h-0.1c-0.4-0.1-0.8-0.3-1.1-0.4
				c-0.1-0.1-0.2-0.2-0.2-0.3c0-0.2,0.1-0.3,0.3-0.3c0.1,0,0.1,0,0.2,0C21.3,77.3,21.7,77.4,22,77.5z"/>
		</g>
		<g class="st4">
			<path d="M24.9,73.1c0.1-0.3,0.3-0.5,0.6-0.5c0.3,0,0.5,0.1,0.6,0.4l1.4,3.9c0,0.1,0,0.1,0,0.2c0,0.2-0.2,0.3-0.4,0.3
				c-0.2,0-0.3-0.1-0.3-0.2l-0.5-1.4h-1.6l-0.5,1.4c-0.1,0.1-0.2,0.2-0.3,0.2c-0.3,0-0.4-0.1-0.4-0.3c0-0.1,0-0.1,0-0.2L24.9,73.1z
				 M25.4,73.4c-0.1,0.3-0.2,0.7-0.3,1l-0.3,0.9H26l-0.3-0.9C25.7,74.1,25.6,73.8,25.4,73.4L25.4,73.4z"/>
		</g>
		<g class="st4">
			<path d="M52.3,73.7c-0.2,0.2-0.4,0.4-0.6,0.6c-0.1,0.1-0.2,0.1-0.3,0.1c-0.2,0-0.4-0.1-0.4-0.3c0-0.1,0-0.2,0.1-0.3
				c0.3-0.3,0.6-0.5,1-0.8c0.1-0.1,0.3-0.2,0.5-0.2c0.3,0,0.4,0.2,0.4,0.4v4c0,0.2-0.1,0.4-0.4,0.4c-0.2,0-0.4-0.1-0.4-0.4v-3.5
				C52.2,73.7,52.3,73.7,52.3,73.7z"/>
			<path d="M57.9,75.2c0,1.8-0.6,2.5-1.6,2.5s-1.6-0.7-1.6-2.5s0.6-2.4,1.6-2.4C57.3,72.7,57.9,73.4,57.9,75.2z M55.5,75.2
				c0,1.4,0.3,1.8,0.8,1.8s0.9-0.4,0.9-1.8s-0.3-1.8-0.9-1.8C55.8,73.4,55.5,73.8,55.5,75.2z"/>
		</g>
		<g class="st4">
			<path d="M53.7,84.9c0.2,0,0.3,0.1,0.3,0.3c0,0.2-0.1,0.3-0.3,0.3h-2.3c-0.2,0-0.4-0.2-0.4-0.4c0-0.2,0.1-0.3,0.2-0.4
				c0.5-0.5,0.9-0.8,1.4-1.4c0.4-0.5,0.6-0.8,0.6-1.2c0-0.5-0.2-0.7-0.6-0.7c-0.3,0-0.5,0.1-0.9,0.4c-0.1,0.1-0.2,0.1-0.2,0.1
				c-0.2,0-0.4-0.2-0.4-0.4c0-0.1,0-0.2,0.1-0.3c0.3-0.3,0.9-0.6,1.3-0.6c0.9,0,1.4,0.5,1.4,1.4c0,0.6-0.2,1-0.8,1.6
				c-0.5,0.6-0.8,0.8-1.2,1.2L53.7,84.9L53.7,84.9z"/>
			<path d="M57.9,83.2c0,1.8-0.6,2.5-1.6,2.5s-1.6-0.7-1.6-2.5s0.6-2.4,1.6-2.4C57.3,80.7,57.9,81.4,57.9,83.2z M55.5,83.2
				c0,1.4,0.3,1.8,0.8,1.8s0.9-0.4,0.9-1.8s-0.3-1.8-0.9-1.8C55.8,81.4,55.5,81.8,55.5,83.2z"/>
		</g>
		<g class="st4">
			<path d="M12.5,81.9c0.2,0,0.3,0.1,0.3,0.3c0,0.1-0.1,0.2-0.2,0.3c-0.4,0.2-0.9,0.4-1.3,0.5h-0.1c-0.2,0-0.3-0.1-0.3-0.3
				c0-0.1,0.1-0.2,0.2-0.3c0.4-0.1,0.9-0.3,1.2-0.4C12.4,82,12.4,81.9,12.5,81.9z M11.2,81C11,81,11,80.9,11,80.7
				c0-0.1,0.1-0.3,0.2-0.3h1.6c0.5,0,0.7,0.2,0.7,0.6v1.5c0,0.4-0.2,0.6-0.6,0.6c-0.1,0-0.2,0-0.4,0s-0.3-0.2-0.3-0.3
				c0-0.2,0.1-0.3,0.3-0.3c0.1,0,0.1,0,0.2,0c0.1,0,0.1,0,0.1-0.1v-1.3c0-0.1,0-0.2-0.2-0.2h-1.4C11.2,80.9,11.2,81,11.2,81z
				 M12.2,81.4c0.1,0.1,0.1,0.2,0.1,0.2c0,0.2-0.1,0.3-0.3,0.3c-0.1,0-0.1,0-0.2-0.1c-0.1-0.1-0.2-0.2-0.3-0.3
				c-0.1-0.1-0.1-0.1-0.1-0.2s0.1-0.3,0.3-0.3c0.1,0,0.1,0,0.2,0C12,81.2,12.1,81.3,12.2,81.4z M12.5,86c-0.6,0-0.8-0.2-0.8-0.7
				v-1.1c0-0.5,0.3-0.7,0.8-0.7h0.8c0-0.1,0.1-0.2,0.1-0.4c0-0.2,0.2-0.2,0.3-0.2c0.2,0,0.3,0.1,0.3,0.3v0.1c0,0.1-0.1,0.2-0.1,0.2
				h1c0.6,0,0.8,0.2,0.8,0.7v1.1c0,0.5-0.3,0.6-0.8,0.7H12.5z M15.1,84.3c0-0.1-0.1-0.2-0.3-0.2h-2.2c-0.2,0-0.3,0.1-0.3,0.2v0.2H15
				v-0.2H15.1z M14.8,85.5c0.2,0,0.3-0.1,0.3-0.2v-0.2h-2.7v0.2c0,0.2,0.1,0.2,0.3,0.2H14.8z M15.2,81.9c0.2,0,0.3,0.1,0.3,0.3
				c0,0.1,0,0.2-0.2,0.3c-0.4,0.2-0.8,0.4-1.3,0.5h-0.1c-0.2,0-0.3-0.1-0.3-0.3c0-0.1,0.1-0.2,0.2-0.3c0.4-0.1,0.8-0.2,1.2-0.4
				C15.1,81.9,15.2,81.9,15.2,81.9z M14,81c-0.2,0-0.2-0.1-0.2-0.3c0-0.1,0.1-0.3,0.2-0.3h1.6c0.5,0,0.7,0.2,0.7,0.6v1.5
				c0,0.4-0.2,0.6-0.7,0.6c-0.1,0-0.2,0-0.3,0c-0.2,0-0.3-0.2-0.3-0.3c0-0.2,0.1-0.3,0.3-0.3c0.1,0,0.1,0,0.2,0c0.1,0,0.1,0,0.1-0.1
				V81c0-0.1,0-0.2-0.2-0.2H14V81z M14.9,81.4c0.1,0.1,0.1,0.2,0.1,0.2c0,0.2-0.1,0.3-0.3,0.3c-0.1,0-0.1,0-0.2-0.1
				c-0.1-0.1-0.2-0.2-0.3-0.3c-0.1-0.1-0.1-0.1-0.1-0.2s0.1-0.3,0.3-0.3c0.1,0,0.1,0,0.2,0C14.7,81.2,14.8,81.3,14.9,81.4z"/>
		</g>
		<g class="st4">
			<path d="M16.7,81.6c0.1,0,0.3,0.1,0.2,0.3c0,0.3-0.1,0.7-0.2,0.9c0,0.1-0.1,0.2-0.2,0.2s-0.2-0.1-0.2-0.2v-0.1
				c0.1-0.2,0.1-0.6,0.2-0.8C16.5,81.7,16.6,81.6,16.7,81.6z M17.7,85.9c0,0.2-0.2,0.3-0.3,0.3c-0.2,0-0.3-0.1-0.3-0.3v-5.4
				c0-0.2,0.2-0.3,0.3-0.3c0.2,0,0.3,0.1,0.3,0.3V85.9z M18.4,82.2c0,0.2-0.1,0.3-0.2,0.3S18,82.4,18,82.3c0-0.2-0.1-0.4-0.1-0.6
				v-0.1c0-0.1,0.1-0.2,0.2-0.2s0.2,0.1,0.2,0.2C18.3,81.8,18.3,82,18.4,82.2z M19.6,85.2c0.2,0,0.3,0.2,0.3,0.3
				c0,0.1-0.1,0.2-0.2,0.3c-0.4,0.2-0.8,0.3-1.2,0.4c-0.2,0.1-0.4-0.1-0.4-0.3c0-0.1,0.1-0.2,0.2-0.3c0.3-0.1,0.7-0.2,1.1-0.3
				C19.5,85.2,19.5,85.2,19.6,85.2z M19.3,82.4c-0.5,0-0.7-0.2-0.6-0.6v-0.2h-0.2c-0.2,0-0.2-0.1-0.2-0.2s0.1-0.2,0.2-0.2h0.3V81
				c0-0.4,0.1-0.6,0.6-0.6h1.8c0.5,0,0.7,0.2,0.6,0.6v0.2h0.4c0.2,0,0.2,0.1,0.2,0.2s-0.1,0.2-0.2,0.2h-0.4v0.2
				c0,0.4-0.2,0.5-0.6,0.6L19.3,82.4L19.3,82.4z M19.4,85.2c-0.5,0-0.7-0.2-0.7-0.5v-1.5c0-0.4,0.2-0.6,0.7-0.6h1.7
				c0.5,0,0.7,0.2,0.7,0.6v1.5c0,0.4-0.3,0.5-0.7,0.5H19.4z M19.3,81.6v0.2c0,0.1,0,0.1,0.1,0.1h0.5v-0.3
				C19.9,81.6,19.3,81.6,19.3,81.6z M19.5,80.8c-0.1,0-0.1,0-0.2,0.1v0.2h0.6v-0.3C19.9,80.8,19.5,80.8,19.5,80.8z M21.2,83.2
				c0-0.1,0-0.1-0.2-0.1h-1.5c-0.1,0-0.2,0-0.2,0.1v0.1h1.8v-0.1H21.2z M19.4,84h1.8v-0.2h-1.8V84z M21,84.7c0.1,0,0.2,0,0.2-0.1
				v-0.1h-1.8v0.1c0,0.1,0.1,0.1,0.2,0.1H21z M20.5,81.9H21c0.1,0,0.2,0,0.2-0.1v-0.2h-0.7V81.9z M20.5,81.1h0.7v-0.2
				c0-0.1,0-0.1-0.1-0.1h-0.5L20.5,81.1z M22,85.5c0.2,0,0.2,0.2,0.2,0.3c0,0.2-0.1,0.3-0.3,0.3h-0.1c-0.4-0.1-0.8-0.3-1.1-0.4
				c-0.1-0.1-0.2-0.2-0.2-0.3c0-0.2,0.1-0.3,0.3-0.3c0.1,0,0.1,0,0.2,0C21.3,85.3,21.7,85.4,22,85.5z"/>
		</g>
		<g class="st4">
			<path d="M24.8,85.6c-0.7,0-1-0.2-1-0.9v-3.2c0-0.6,0.2-0.9,1-0.9h0.8c1,0,1.5,0.5,1.5,1.2c0,0.5-0.3,0.9-0.7,1
				c0.6,0.1,1,0.5,1,1.3c0,0.9-0.6,1.4-1.7,1.4L24.8,85.6L24.8,85.6z M25.5,82.7c0.5,0,0.8-0.3,0.8-0.7c0-0.5-0.3-0.7-0.8-0.7H25
				c-0.3,0-0.4,0.1-0.4,0.3v1.1C24.6,82.7,25.5,82.7,25.5,82.7z M25.6,85c0.6,0,0.9-0.3,0.9-0.8c0-0.6-0.3-0.8-0.9-0.8h-1v1.3
				c0,0.3,0.1,0.3,0.4,0.3H25.6z"/>
		</g>
		<g class="st4">
			<path class="st3" d="M29.6,18.1c-0.2,0-0.3-0.2-0.3-0.3s0.1-0.3,0.3-0.3H32c0.2,0,0.3,0.2,0.3,0.3s-0.1,0.3-0.3,0.3H29.6z
				 M30.5,22c-0.5,0-0.7-0.2-0.7-0.6v-0.6c0-0.4,0.2-0.6,0.7-0.6h0.7c0.5,0,0.7,0.2,0.7,0.6v0.6c0,0.5-0.2,0.6-0.7,0.6H30.5z
				 M30.1,17.1c-0.2,0-0.2-0.2-0.2-0.3c0-0.2,0.1-0.3,0.2-0.3h1.5c0.2,0,0.2,0.1,0.2,0.3c0,0.1-0.1,0.3-0.2,0.3H30.1z M30.1,19
				c-0.2,0-0.2-0.2-0.2-0.3c0-0.2,0.1-0.3,0.2-0.3h1.5c0.2,0,0.2,0.1,0.2,0.3c0,0.1-0.1,0.3-0.2,0.3H30.1z M30.1,19.9
				c-0.2,0-0.2-0.2-0.2-0.3c0-0.2,0.1-0.3,0.2-0.3h1.5c0.2,0,0.2,0.1,0.2,0.3c0,0.1-0.1,0.3-0.2,0.3H30.1z M31.1,21.4
				c0.1,0,0.2,0,0.2-0.2v-0.3c0-0.1,0-0.2-0.2-0.2h-0.4c-0.1,0-0.2,0-0.2,0.2v0.3c0,0.1,0,0.2,0.2,0.2H31.1z M33.4,19
				c-0.2,0-0.2,0.1-0.2,0.2V21c0,0.2,0.1,0.2,0.6,0.2c0.6,0,0.8-0.1,0.8-0.5c0-0.2,0.2-0.3,0.3-0.3c0.2,0,0.4,0.1,0.4,0.3
				c-0.1,0.9-0.3,1.1-1.6,1.1c-1,0-1.2-0.2-1.2-0.8v-2.1c0-0.5,0.2-0.7,0.8-0.7H34c0.2,0,0.2,0,0.2-0.2v-0.8c0-0.2,0-0.2-0.2-0.2
				h-1.3c-0.2,0-0.3-0.2-0.3-0.3c0-0.2,0.1-0.3,0.3-0.3h1.5c0.5,0,0.8,0.2,0.8,0.7v1.1c0,0.5-0.2,0.6-0.8,0.6h-0.8V19z"/>
			<path class="st3" d="M35.4,18h1.3c0.2,0,0.2,0.1,0.2,0.3c0,0.1-0.1,0.3-0.2,0.3h-0.3V19H37c0.2,0,0.2,0.1,0.2,0.3
				c0,0.1-0.1,0.3-0.2,0.3h-0.6V21c0.1,0,0.2-0.1,0.3-0.1h0.1c0.2,0,0.3,0.2,0.3,0.3c0,0.1-0.1,0.2-0.2,0.3
				c-0.6,0.2-1.1,0.3-1.7,0.4c-0.2,0-0.3-0.1-0.3-0.3c0-0.1,0.1-0.3,0.2-0.3c0.2,0,0.5-0.1,0.7-0.1v-1.5h-0.7
				c-0.2,0-0.2-0.1-0.2-0.3c0-0.1,0.1-0.3,0.2-0.3h0.7v-0.4h-0.4c-0.2,0-0.2-0.1-0.2-0.3v-0.1c-0.1,0-0.1,0-0.2,0
				c-0.2,0-0.3-0.1-0.3-0.3c0-0.1,0-0.2,0.1-0.3c0.3-0.3,0.8-0.8,1-1.2c0.1-0.1,0.2-0.2,0.3-0.2c0.2,0,0.3,0.1,0.3,0.3
				c0,0.1,0,0.1,0,0.2c0.2,0.2,0.5,0.4,0.7,0.7c0.1,0.1,0.1,0.2,0.1,0.2c0,0.2-0.1,0.3-0.3,0.3c-0.1,0-0.2,0-0.3-0.1
				c-0.2-0.2-0.3-0.4-0.5-0.6C35.9,17.5,35.7,17.8,35.4,18L35.4,18z M35.7,20.6c0,0.2-0.1,0.3-0.3,0.3c-0.1,0-0.2-0.1-0.2-0.2
				c-0.1-0.2-0.1-0.4-0.2-0.6V20c0-0.1,0.1-0.2,0.3-0.2c0.1,0,0.2,0,0.2,0.2C35.6,20.2,35.7,20.4,35.7,20.6z M36.9,19.7
				c0.1,0,0.3,0.1,0.2,0.3c-0.1,0.2-0.1,0.4-0.2,0.5c-0.1,0.1-0.1,0.2-0.2,0.2c-0.1,0-0.2-0.1-0.2-0.2v-0.1c0.1-0.2,0.1-0.3,0.2-0.5
				C36.7,19.8,36.8,19.7,36.9,19.7z M37.4,18.9c-0.2,0-0.2-0.1-0.2-0.3c0-0.1,0.1-0.3,0.2-0.3h1.8V18H38c-0.2,0-0.2-0.1-0.2-0.3
				s0.1-0.3,0.2-0.3h1.3v-0.2c0-0.1,0-0.2-0.2-0.2h-1.3c-0.2,0-0.2-0.1-0.2-0.3s0.1-0.3,0.2-0.3h1.4c0.5,0,0.7,0.2,0.7,0.7v1.2h0.6
				c0.2,0,0.2,0.1,0.2,0.3c0,0.1-0.1,0.3-0.2,0.3h-1.3c0.1,0.2,0.2,0.5,0.3,0.7c0.2-0.1,0.3-0.3,0.5-0.4c0.1-0.1,0.2-0.1,0.2-0.1
				c0.2,0,0.3,0.1,0.3,0.3c0,0.1,0,0.2-0.1,0.2c-0.2,0.2-0.4,0.3-0.6,0.5c0.2,0.3,0.5,0.6,0.8,0.8c0.1,0.1,0.2,0.2,0.2,0.3
				c0,0.2-0.2,0.3-0.3,0.3s-0.2,0-0.2-0.1c-0.4-0.4-0.8-0.8-1-1.4v0.9v0.3c0,0.5-0.2,0.7-0.7,0.7c-0.2,0-0.3,0-0.4,0
				c-0.2,0-0.3-0.2-0.3-0.3c0-0.2,0.1-0.4,0.4-0.3c0.1,0,0.1,0,0.2,0c0.1,0,0.1,0,0.1-0.2v-0.7c0,0,0,0.1-0.1,0.1
				c-0.2,0.2-0.5,0.4-0.9,0.7c-0.1,0-0.1,0-0.2,0c-0.2,0-0.3-0.2-0.3-0.3c0-0.1,0-0.2,0.2-0.2c0.3-0.2,0.6-0.4,0.8-0.6
				c0.1-0.1,0.1-0.1,0.2-0.1c0.1,0,0.2,0.1,0.3,0.2v-1.5h-1.2V18.9z M38.3,19.6c0.1,0.1,0.1,0.2,0.1,0.2c0,0.2-0.2,0.3-0.3,0.3
				s-0.2,0-0.2-0.1c-0.1-0.1-0.2-0.2-0.3-0.4c-0.1-0.1-0.1-0.1-0.1-0.2c0-0.2,0.1-0.3,0.3-0.3c0.1,0,0.1,0,0.2,0.1
				C38.1,19.4,38.2,19.4,38.3,19.6z"/>
		</g>
		<g class="st4">
			<path class="st3" d="M30.1,26c-0.2,0.2-0.4,0.4-0.6,0.5c-0.1,0.1-0.2,0.1-0.3,0.1c-0.2,0-0.3-0.1-0.3-0.3c0-0.1,0-0.2,0.1-0.3
				c0.3-0.3,0.6-0.5,0.9-0.8c0.1-0.1,0.3-0.2,0.4-0.2c0.3,0,0.4,0.2,0.4,0.4v3.8c0,0.2-0.1,0.4-0.4,0.4S30,29.5,30,29.2L30.1,26
				L30.1,26z"/>
		</g>
		<g class="st4">
			<path class="st3" d="M34.2,28.9c0.2,0,0.3,0.1,0.3,0.3c0,0.2-0.1,0.3-0.3,0.3H32c-0.2,0-0.4-0.2-0.4-0.4c0-0.2,0.1-0.3,0.2-0.4
				c0.5-0.4,0.9-0.8,1.3-1.3c0.4-0.4,0.5-0.8,0.5-1.1c0-0.4-0.2-0.7-0.6-0.7c-0.2,0-0.5,0.1-0.8,0.4c-0.1,0.1-0.1,0.1-0.2,0.1
				c-0.2,0-0.3-0.1-0.3-0.3c0-0.1,0-0.2,0.1-0.2c0.3-0.3,0.8-0.5,1.3-0.5c0.9,0,1.3,0.5,1.3,1.3c0,0.6-0.2,0.9-0.7,1.5
				c-0.5,0.5-0.8,0.8-1.2,1.1L34.2,28.9L34.2,28.9z"/>
		</g>
		<g class="st4">
			<path class="st3" d="M39.2,24.7c0.5,0,0.8,0.2,0.8,0.7v3.8c0,0.6-0.3,0.8-0.8,0.8c-0.2,0-0.3,0-0.5,0s-0.3-0.2-0.3-0.3
				c0-0.2,0.1-0.4,0.4-0.3c0.1,0,0.2,0,0.3,0s0.2,0,0.2-0.2v-1.1h-2c-0.2,0.8-0.5,1.4-1.1,1.9c0,0-0.1,0-0.2,0
				c-0.2,0-0.3-0.1-0.3-0.3c0-0.1,0-0.2,0.1-0.3c0.7-0.6,1-1.4,1-2.8v-1.2c0-0.5,0.2-0.7,0.8-0.7H39.2z M39.4,26.7h-1.9
				c0,0.3,0,0.5,0,0.8h1.9V26.7z M37.7,25.3c-0.2,0-0.2,0.1-0.2,0.2v0.6h1.9v-0.6c0-0.1-0.1-0.2-0.2-0.2H37.7z"/>
		</g>
		<path class="st3" d="M17.8,40c-0.2,0.2-0.4,0.4-0.6,0.5c-0.1,0.1-0.2,0.1-0.3,0.1c-0.2,0-0.3-0.1-0.3-0.3c0-0.1,0-0.2,0.1-0.3
			c0.3-0.3,0.6-0.5,0.9-0.8c0.1-0.1,0.3-0.2,0.4-0.2c0.3,0,0.4,0.2,0.4,0.4v3.8c0,0.2-0.1,0.4-0.4,0.4c-0.2,0-0.3-0.1-0.3-0.4V40
			H17.8z"/>
		<path class="st3" d="M27.1,42.9c0.2,0,0.3,0.1,0.3,0.3s-0.1,0.3-0.3,0.3h-2.2c-0.2,0-0.4-0.2-0.4-0.4s0.1-0.3,0.2-0.4
			c0.5-0.4,0.9-0.8,1.3-1.3c0.4-0.4,0.5-0.8,0.5-1.1c0-0.4-0.2-0.7-0.6-0.7c-0.2,0-0.5,0.1-0.8,0.4c-0.1,0.1-0.1,0.1-0.2,0.1
			c-0.2,0-0.3-0.1-0.3-0.3c0-0.1,0-0.2,0.1-0.2c0.3-0.3,0.8-0.5,1.3-0.5c0.9,0,1.3,0.5,1.3,1.3c0,0.6-0.2,0.9-0.7,1.5
			c-0.5,0.5-0.8,0.8-1.2,1.1L27.1,42.9L27.1,42.9z"/>
		<path class="st3" d="M33.9,40.9c0.5,0,0.7-0.3,0.7-0.7c0-0.3-0.3-0.6-0.7-0.6c-0.3,0-0.5,0.1-0.7,0.3C33.1,40,33,40,32.9,40
			c-0.2,0-0.3-0.2-0.3-0.3s0-0.2,0.1-0.2c0.3-0.3,0.7-0.4,1.2-0.4c0.9,0,1.4,0.5,1.4,1.2c0,0.5-0.2,0.8-0.7,0.9
			c0.5,0.2,0.9,0.6,0.9,1.1c0,0.9-0.6,1.4-1.6,1.4c-0.5,0-1-0.1-1.3-0.4c-0.1-0.1-0.1-0.2-0.1-0.3c0-0.2,0.1-0.3,0.3-0.3
			c0.1,0,0.1,0,0.2,0c0.3,0.2,0.6,0.3,0.9,0.3c0.5,0,0.9-0.3,0.9-0.8s-0.3-0.7-0.8-0.7h-0.4c-0.2,0-0.3-0.1-0.3-0.3s0.1-0.3,0.3-0.3
			H33.9z"/>
		<path class="st3" d="M40.8,42.6c-0.3,0-0.4-0.1-0.4-0.4c0-0.2,0-0.3,0.1-0.4l1.4-2.3c0.1-0.3,0.3-0.3,0.6-0.3s0.5,0.2,0.5,0.5V42
			h0.4c0.2,0,0.3,0.1,0.3,0.3s-0.1,0.3-0.3,0.3H43v0.7c0,0.2-0.1,0.3-0.3,0.3s-0.3-0.1-0.3-0.3v-0.7H40.8z M42.3,40.9
			c0-0.4,0-0.8,0-1.2l0,0c-0.2,0.4-0.3,0.7-0.5,1.1L41,42h1.2L42.3,40.9L42.3,40.9z"/>
		<path class="st3" d="M50.3,40.9c0.2-0.1,0.4-0.2,0.5-0.2c0.9,0,1.6,0.5,1.6,1.4s-0.7,1.5-1.6,1.5c-0.5,0-0.9-0.1-1.2-0.4
			c-0.1-0.1-0.1-0.2-0.1-0.3c0-0.2,0.1-0.3,0.3-0.3c0.1,0,0.1,0,0.2,0.1c0.3,0.2,0.5,0.3,0.8,0.3c0.5,0,0.9-0.4,0.9-0.9
			s-0.3-0.9-0.9-0.9c-0.2,0-0.4,0.1-0.5,0.1c-0.1,0.1-0.2,0.1-0.3,0.1c-0.2,0-0.4-0.1-0.4-0.4l0.1-1.6c0-0.3,0.2-0.5,0.6-0.5h1.6
			c0.2,0,0.3,0.1,0.3,0.3s-0.1,0.3-0.3,0.3h-1.4c-0.1,0-0.2,0-0.2,0.2L50.3,40.9z"/>
		<g class="st4">
			<path class="st3" d="M17.7,51.2c0.8,0,1.4,0.5,1.4,1.4s-0.6,1.5-1.5,1.5s-1.5-0.6-1.5-1.5c0-0.6,0.1-0.9,0.6-1.6
				c0.3-0.5,0.8-1,1.3-1.4c0.1,0,0.1-0.1,0.2-0.1c0.2,0,0.3,0.2,0.3,0.3s0,0.2-0.1,0.2c-0.5,0.4-0.9,0.8-1.3,1.3
				C17.4,51.3,17.5,51.2,17.7,51.2z M18.5,52.7c0-0.5-0.3-0.9-0.8-0.9c-0.3,0-0.6,0.1-0.8,0.4c-0.1,0.1-0.1,0.3-0.1,0.5
				c0,0.6,0.3,0.9,0.8,0.9C18.1,53.6,18.5,53.2,18.5,52.7z"/>
			<path class="st3" d="M26.5,49.6c0.3,0,0.4,0.2,0.4,0.4s-0.1,0.3-0.1,0.5c-0.5,1.1-1,2.2-1.5,3.4c-0.1,0.1-0.2,0.2-0.3,0.2
				c-0.2,0-0.4-0.1-0.4-0.3c0-0.1,0-0.1,0.1-0.2c0.5-1.1,1-2.2,1.5-3.3h-1.9c-0.2,0-0.3-0.1-0.3-0.3s0.1-0.3,0.3-0.3h2.2
				C26.5,49.7,26.5,49.6,26.5,49.6z"/>
			<path class="st3" d="M32.2,50.7c0-0.7,0.5-1.2,1.3-1.2s1.3,0.5,1.3,1.1c0,0.5-0.2,0.8-0.7,1c0.7,0.2,0.9,0.6,0.9,1.2
				c0,0.8-0.6,1.3-1.5,1.3S32,53.6,32,52.8c0-0.5,0.3-0.9,0.9-1.1C32.5,51.6,32.2,51.2,32.2,50.7z M32.8,52.8c0,0.5,0.3,0.8,0.8,0.8
				s0.8-0.3,0.8-0.8c0-0.4-0.2-0.6-0.9-0.8C33,52.2,32.8,52.4,32.8,52.8z M33.6,50.1c-0.4,0-0.7,0.2-0.7,0.6c0,0.4,0.2,0.6,0.8,0.8
				c0.4-0.2,0.6-0.4,0.6-0.8C34.3,50.3,34,50.1,33.6,50.1z"/>
			<path class="st3" d="M41.5,52.4c-0.9,0-1.4-0.6-1.4-1.4c0-0.8,0.6-1.4,1.5-1.4s1.5,0.6,1.5,1.4c0,0.6-0.1,1-0.4,1.6
				c-0.3,0.5-0.7,1-1.2,1.4c-0.1,0-0.1,0.1-0.2,0.1c-0.2,0-0.3-0.1-0.3-0.3c0-0.1,0-0.2,0.1-0.2c0.5-0.4,0.9-0.8,1.2-1.4
				C42,52.3,41.8,52.4,41.5,52.4z M40.8,51c0,0.5,0.3,0.9,0.8,0.9c0.4,0,0.6-0.1,0.8-0.4c0-0.2,0-0.3,0-0.5c0-0.5-0.3-0.9-0.8-0.9
				S40.8,50.4,40.8,51z"/>
			<path class="st3" d="M49.4,50.5c-0.2,0.2-0.4,0.4-0.6,0.5c-0.1,0.1-0.2,0.1-0.3,0.1c-0.2,0-0.3-0.1-0.3-0.3c0-0.1,0-0.2,0.1-0.3
				c0.3-0.3,0.6-0.5,0.9-0.8c0.1-0.1,0.3-0.2,0.4-0.2c0.3,0,0.4,0.2,0.4,0.4v3.8c0,0.2-0.1,0.4-0.4,0.4s-0.3-0.1-0.3-0.4L49.4,50.5
				L49.4,50.5z"/>
			<path class="st3" d="M53.9,51.8c0,1.7-0.6,2.3-1.5,2.3s-1.5-0.6-1.5-2.3s0.6-2.3,1.5-2.3S53.9,50.2,53.9,51.8z M51.6,51.8
				c0,1.3,0.3,1.7,0.8,1.7s0.8-0.4,0.8-1.7s-0.3-1.7-0.8-1.7S51.6,50.5,51.6,51.8z"/>
		</g>
		<circle class="st2" cx="35" cy="103.5" r="12"/>
		<g class="st4">
			<path class="st3" d="M33.9,97.6c0-0.6,0.5-1,1.1-1s1.1,0.4,1.1,1v4.9H41c0.6,0,1,0.4,1,1s-0.4,1-1,1h-4.9v5c0,0.6-0.5,1-1.1,1
				s-1.1-0.4-1.1-1v-5H29c-0.6,0-1-0.5-1-1c0-0.6,0.4-1,1-1h4.9V97.6z"/>
		</g>
	</g>
</g>
</svg>
