<?xml version="1.0" encoding="utf-8"?>
<!-- Generator: Adobe Illustrator 24.3.0, SVG Export Plug-In . SVG Version: 6.00 Build 0)  -->
<svg version="1.1" id="レイヤー_1" xmlns="http://www.w3.org/2000/svg" xmlns:xlink="http://www.w3.org/1999/xlink" x="0px"
	 y="0px" viewBox="0 0 70 127.5" style="enable-background:new 0 0 70 127.5;" xml:space="preserve">
<style type="text/css">
	.st0{fill:#54AD9E;}
	.st1{fill:url(#SVGID_1_);}
	.st2{fill:#F5800B;}
	.st3{enable-background:new    ;}
	.st4{fill:#E7F3F1;}
</style>
<g id="レイヤー_2_1_">
	<g id="レイヤー_6">
		<path d="M8,0h54c4.4,0,8,3.6,8,8v111.5c0,4.4-3.6,8-8,8H8c-4.4,0-8-3.6-8-8V8C0,3.6,3.6,0,8,0z"/>
		<path class="st0" d="M10,5.5h50c3.3,0,6,2.7,6,6v105c0,3.3-2.7,6-6,6H10c-3.3,0-6-2.7-6-6v-105C4,8.2,6.7,5.5,10,5.5z"/>
		
			<linearGradient id="SVGID_1_" gradientUnits="userSpaceOnUse" x1="35" y1="719.4999" x2="35" y2="777.4999" gradientTransform="matrix(1 0 0 1 0 -714)">
			<stop  offset="0" style="stop-color:#84C29E"/>
			<stop  offset="1" style="stop-color:#54ADAD"/>
		</linearGradient>
		<path class="st1" d="M10,5.5h50c3.3,0,6,2.7,6,6v52l0,0H4l0,0v-52C4,8.2,6.7,5.5,10,5.5z"/>
		<path d="M20,0.5h30c1.7,0,3,1.3,3,3v3c0,1.7-1.3,3-3,3H20c-1.7,0-3-1.3-3-3v-3C17,1.8,18.3,0.5,20,0.5z"/>
		<circle class="st2" cx="35" cy="103.5" r="12"/>
		<g class="st3">
			<path class="st4" d="M33.9,97.6c0-0.6,0.5-1,1.1-1c0.6,0,1.1,0.4,1.1,1v4.9H41c0.6,0,1,0.4,1,1s-0.4,1-1,1h-4.9v5
				c0,0.6-0.5,1-1.1,1c-0.6,0-1.1-0.4-1.1-1v-5H29c-0.6,0-1-0.5-1-1c0-0.6,0.4-1,1-1h4.9V97.6z"/>
		</g>
		<path class="st4" d="M9,76.5h53c1.1,0,2,0.9,2,2v5c0,1.1-0.9,2-2,2H9c-1.1,0-2-0.9-2-2v-5C7,77.4,7.9,76.5,9,76.5z"/>
		<g class="st3">
			<path d="M29.5,79.9c0.2,0,0.3,0.1,0.3,0.3c0,0.1-0.1,0.2-0.2,0.3c-0.4,0.2-0.9,0.4-1.3,0.5h-0.1c-0.2,0-0.3-0.1-0.3-0.3
				c0-0.1,0.1-0.2,0.2-0.3c0.4-0.1,0.9-0.3,1.2-0.4C29.4,80,29.4,79.9,29.5,79.9z M28.2,79C28,79,28,78.9,28,78.7
				c0-0.1,0.1-0.3,0.2-0.3h1.6c0.5,0,0.7,0.2,0.7,0.6v1.5c0,0.4-0.2,0.6-0.6,0.6c-0.1,0-0.2,0-0.4,0c-0.2,0-0.3-0.2-0.3-0.3
				c0-0.2,0.1-0.3,0.3-0.3c0.1,0,0.1,0,0.2,0s0.1,0,0.1-0.1v-1.3c0-0.1,0-0.2-0.2-0.2h-1.4V79z M29.2,79.4c0.1,0.1,0.1,0.2,0.1,0.2
				c0,0.2-0.1,0.3-0.3,0.3c-0.1,0-0.1,0-0.2-0.1s-0.2-0.2-0.3-0.3c-0.1-0.1-0.1-0.1-0.1-0.2s0.1-0.3,0.3-0.3c0.1,0,0.1,0,0.2,0
				C29,79.2,29.1,79.3,29.2,79.4z M29.5,84c-0.6,0-0.8-0.2-0.8-0.7v-1.1c0-0.5,0.3-0.7,0.8-0.7h0.8c0-0.1,0.1-0.2,0.1-0.4
				c0-0.2,0.2-0.2,0.3-0.2c0.2,0,0.3,0.1,0.3,0.3v0.1c0,0.1-0.1,0.2-0.1,0.2h1c0.6,0,0.8,0.2,0.8,0.7v1.1c0,0.5-0.3,0.6-0.8,0.7
				H29.5z M32.1,82.3c0-0.1-0.1-0.2-0.3-0.2h-2.2c-0.2,0-0.3,0.1-0.3,0.2v0.2H32L32.1,82.3L32.1,82.3z M31.8,83.5
				c0.2,0,0.3-0.1,0.3-0.2v-0.2h-2.7v0.2c0,0.2,0.1,0.2,0.3,0.2H31.8z M32.2,79.9c0.2,0,0.3,0.1,0.3,0.3c0,0.1,0,0.2-0.2,0.3
				c-0.4,0.2-0.8,0.4-1.3,0.5h-0.1c-0.2,0-0.3-0.1-0.3-0.3c0-0.1,0.1-0.2,0.2-0.3c0.4-0.1,0.8-0.2,1.2-0.4
				C32.1,79.9,32.2,79.9,32.2,79.9z M31,79c-0.2,0-0.2-0.1-0.2-0.3c0-0.1,0.1-0.3,0.2-0.3h1.6c0.5,0,0.7,0.2,0.7,0.6v1.5
				c0,0.4-0.2,0.6-0.7,0.6c-0.1,0-0.2,0-0.3,0c-0.2,0-0.3-0.2-0.3-0.3c0-0.2,0.1-0.3,0.3-0.3c0.1,0,0.1,0,0.2,0c0.1,0,0.1,0,0.1-0.1
				V79c0-0.1,0-0.2-0.2-0.2H31V79z M31.9,79.4c0.1,0.1,0.1,0.2,0.1,0.2c0,0.2-0.1,0.3-0.3,0.3c-0.1,0-0.1,0-0.2-0.1
				s-0.2-0.2-0.3-0.3c-0.1-0.1-0.1-0.1-0.1-0.2s0.1-0.3,0.3-0.3c0.1,0,0.1,0,0.2,0C31.7,79.2,31.8,79.3,31.9,79.4z"/>
		</g>
		<g class="st3">
			<path d="M33.7,79.6c0.1,0,0.3,0.1,0.2,0.3c0,0.3-0.1,0.7-0.2,0.9c0,0.1-0.1,0.2-0.2,0.2c-0.1,0-0.2-0.1-0.2-0.2v-0.1
				c0.1-0.2,0.1-0.6,0.2-0.8C33.5,79.7,33.6,79.6,33.7,79.6z M34.7,83.9c0,0.2-0.2,0.3-0.3,0.3c-0.2,0-0.3-0.1-0.3-0.3v-5.4
				c0-0.2,0.2-0.3,0.3-0.3c0.2,0,0.3,0.1,0.3,0.3V83.9z M35.4,80.2c0,0.2-0.1,0.3-0.2,0.3c-0.1,0-0.2-0.1-0.2-0.2
				c0-0.2-0.1-0.4-0.1-0.6v-0.1c0-0.1,0.1-0.2,0.2-0.2c0.1,0,0.2,0.1,0.2,0.2C35.3,79.8,35.3,80,35.4,80.2z M36.6,83.2
				c0.2,0,0.3,0.2,0.3,0.3c0,0.1-0.1,0.2-0.2,0.3c-0.4,0.2-0.8,0.3-1.2,0.4c-0.2,0.1-0.4-0.1-0.4-0.3c0-0.1,0.1-0.2,0.2-0.3
				c0.3-0.1,0.7-0.2,1.1-0.3C36.5,83.2,36.5,83.2,36.6,83.2z M36.3,80.4c-0.5,0-0.7-0.2-0.6-0.6v-0.2h-0.2c-0.2,0-0.2-0.1-0.2-0.2
				s0.1-0.2,0.2-0.2h0.3V79c0-0.4,0.1-0.6,0.6-0.6h1.8c0.5,0,0.7,0.2,0.6,0.6v0.2h0.4c0.2,0,0.2,0.1,0.2,0.2s-0.1,0.2-0.2,0.2h-0.4
				v0.2c0,0.4-0.2,0.5-0.6,0.6H36.3z M36.4,83.2c-0.5,0-0.7-0.2-0.7-0.5v-1.5c0-0.4,0.2-0.6,0.7-0.6h1.7c0.5,0,0.7,0.2,0.7,0.6v1.5
				c0,0.4-0.3,0.5-0.7,0.5H36.4z M36.3,79.6v0.2c0,0.1,0,0.1,0.1,0.1h0.5v-0.3C36.9,79.6,36.3,79.6,36.3,79.6z M36.5,78.8
				c-0.1,0-0.1,0-0.2,0.1v0.2h0.6v-0.3C36.9,78.8,36.5,78.8,36.5,78.8z M38.2,81.2c0-0.1,0-0.1-0.2-0.1h-1.5c-0.1,0-0.2,0-0.2,0.1
				v0.1h1.8v-0.1H38.2z M36.4,82h1.8v-0.2h-1.8V82z M38,82.7c0.1,0,0.2,0,0.2-0.1v-0.1h-1.8v0.1c0,0.1,0.1,0.1,0.2,0.1H38z
				 M37.5,79.9H38c0.1,0,0.2,0,0.2-0.1v-0.2h-0.7V79.9z M37.5,79.1h0.7v-0.2c0-0.1,0-0.1-0.1-0.1h-0.5L37.5,79.1z M39,83.5
				c0.2,0,0.2,0.2,0.2,0.3c0,0.2-0.1,0.3-0.3,0.3h-0.1c-0.4-0.1-0.8-0.3-1.1-0.4c-0.1-0.1-0.2-0.2-0.2-0.3c0-0.2,0.1-0.3,0.3-0.3
				c0.1,0,0.1,0,0.2,0C38.3,83.3,38.7,83.4,39,83.5z"/>
		</g>
		<g class="st3">
			<path d="M43.7,82.9c0.2,0,0.3,0.1,0.3,0.3c0,0.2-0.1,0.3-0.3,0.3h-1.9c-0.8,0-1-0.2-1-0.9v-3.1c0-0.6,0.2-0.9,1-0.9h1.8
				c0.2,0,0.3,0.1,0.3,0.3c0,0.2-0.1,0.3-0.3,0.3H42c-0.3,0-0.4,0.1-0.4,0.3v1h1.6c0.2,0,0.3,0.1,0.3,0.3c0,0.2-0.1,0.3-0.3,0.3
				h-1.6v1.2c0,0.3,0.1,0.3,0.4,0.3h1.7V82.9z"/>
		</g>
		<path class="st4" d="M9,64.5h53c1.1,0,2,0.9,2,2v5c0,1.1-0.9,2-2,2H9c-1.1,0-2-0.9-2-2v-5C7,65.4,7.9,64.5,9,64.5z"/>
		<g class="st3">
			<path d="M29.5,67.9c0.2,0,0.3,0.1,0.3,0.3c0,0.1-0.1,0.2-0.2,0.3c-0.4,0.2-0.9,0.4-1.3,0.5h-0.1c-0.2,0-0.3-0.1-0.3-0.3
				c0-0.1,0.1-0.2,0.2-0.3c0.4-0.1,0.9-0.3,1.2-0.4C29.4,68,29.4,67.9,29.5,67.9z M28.2,67C28,67,28,66.9,28,66.7
				c0-0.1,0.1-0.3,0.2-0.3h1.6c0.5,0,0.7,0.2,0.7,0.6v1.5c0,0.4-0.2,0.6-0.6,0.6c-0.1,0-0.2,0-0.4,0c-0.2,0-0.3-0.2-0.3-0.3
				c0-0.2,0.1-0.3,0.3-0.3c0.1,0,0.1,0,0.2,0s0.1,0,0.1-0.1v-1.3c0-0.1,0-0.2-0.2-0.2h-1.4V67z M29.2,67.4c0.1,0.1,0.1,0.2,0.1,0.2
				c0,0.2-0.1,0.3-0.3,0.3c-0.1,0-0.1,0-0.2-0.1s-0.2-0.2-0.3-0.3c-0.1-0.1-0.1-0.1-0.1-0.2s0.1-0.3,0.3-0.3c0.1,0,0.1,0,0.2,0
				C29,67.2,29.1,67.3,29.2,67.4z M29.5,72c-0.6,0-0.8-0.2-0.8-0.7v-1.1c0-0.5,0.3-0.7,0.8-0.7h0.8c0-0.1,0.1-0.2,0.1-0.4
				c0-0.2,0.2-0.2,0.3-0.2c0.2,0,0.3,0.1,0.3,0.3v0.1c0,0.1-0.1,0.2-0.1,0.2h1c0.6,0,0.8,0.2,0.8,0.7v1.1c0,0.5-0.3,0.6-0.8,0.7
				H29.5z M32.1,70.3c0-0.1-0.1-0.2-0.3-0.2h-2.2c-0.2,0-0.3,0.1-0.3,0.2v0.2H32L32.1,70.3L32.1,70.3z M31.8,71.5
				c0.2,0,0.3-0.1,0.3-0.2v-0.2h-2.7v0.2c0,0.2,0.1,0.2,0.3,0.2H31.8z M32.2,67.9c0.2,0,0.3,0.1,0.3,0.3c0,0.1,0,0.2-0.2,0.3
				c-0.4,0.2-0.8,0.4-1.3,0.5h-0.1c-0.2,0-0.3-0.1-0.3-0.3c0-0.1,0.1-0.2,0.2-0.3c0.4-0.1,0.8-0.2,1.2-0.4
				C32.1,67.9,32.2,67.9,32.2,67.9z M31,67c-0.2,0-0.2-0.1-0.2-0.3c0-0.1,0.1-0.3,0.2-0.3h1.6c0.5,0,0.7,0.2,0.7,0.6v1.5
				c0,0.4-0.2,0.6-0.7,0.6c-0.1,0-0.2,0-0.3,0c-0.2,0-0.3-0.2-0.3-0.3c0-0.2,0.1-0.3,0.3-0.3c0.1,0,0.1,0,0.2,0c0.1,0,0.1,0,0.1-0.1
				V67c0-0.1,0-0.2-0.2-0.2H31V67z M31.9,67.4c0.1,0.1,0.1,0.2,0.1,0.2c0,0.2-0.1,0.3-0.3,0.3c-0.1,0-0.1,0-0.2-0.1
				s-0.2-0.2-0.3-0.3c-0.1-0.1-0.1-0.1-0.1-0.2s0.1-0.3,0.3-0.3c0.1,0,0.1,0,0.2,0C31.7,67.2,31.8,67.3,31.9,67.4z"/>
		</g>
		<g class="st3">
			<path d="M33.7,67.6c0.1,0,0.3,0.1,0.2,0.3c0,0.3-0.1,0.7-0.2,0.9c0,0.1-0.1,0.2-0.2,0.2c-0.1,0-0.2-0.1-0.2-0.2v-0.1
				c0.1-0.2,0.1-0.6,0.2-0.8C33.5,67.7,33.6,67.6,33.7,67.6z M34.7,71.9c0,0.2-0.2,0.3-0.3,0.3c-0.2,0-0.3-0.1-0.3-0.3v-5.4
				c0-0.2,0.2-0.3,0.3-0.3c0.2,0,0.3,0.1,0.3,0.3V71.9z M35.4,68.2c0,0.2-0.1,0.3-0.2,0.3c-0.1,0-0.2-0.1-0.2-0.2
				c0-0.2-0.1-0.4-0.1-0.6v-0.1c0-0.1,0.1-0.2,0.2-0.2c0.1,0,0.2,0.1,0.2,0.2C35.3,67.8,35.3,68,35.4,68.2z M36.6,71.2
				c0.2,0,0.3,0.2,0.3,0.3c0,0.1-0.1,0.2-0.2,0.3c-0.4,0.2-0.8,0.3-1.2,0.4c-0.2,0.1-0.4-0.1-0.4-0.3c0-0.1,0.1-0.2,0.2-0.3
				c0.3-0.1,0.7-0.2,1.1-0.3C36.5,71.2,36.5,71.2,36.6,71.2z M36.3,68.4c-0.5,0-0.7-0.2-0.6-0.6v-0.2h-0.2c-0.2,0-0.2-0.1-0.2-0.2
				s0.1-0.2,0.2-0.2h0.3V67c0-0.4,0.1-0.6,0.6-0.6h1.8c0.5,0,0.7,0.2,0.6,0.6v0.2h0.4c0.2,0,0.2,0.1,0.2,0.2s-0.1,0.2-0.2,0.2h-0.4
				v0.2c0,0.4-0.2,0.5-0.6,0.6H36.3z M36.4,71.2c-0.5,0-0.7-0.2-0.7-0.5v-1.5c0-0.4,0.2-0.6,0.7-0.6h1.7c0.5,0,0.7,0.2,0.7,0.6v1.5
				c0,0.4-0.3,0.5-0.7,0.5H36.4z M36.3,67.6v0.2c0,0.1,0,0.1,0.1,0.1h0.5v-0.3C36.9,67.6,36.3,67.6,36.3,67.6z M36.5,66.8
				c-0.1,0-0.1,0-0.2,0.1v0.2h0.6v-0.3C36.9,66.8,36.5,66.8,36.5,66.8z M38.2,69.2c0-0.1,0-0.1-0.2-0.1h-1.5c-0.1,0-0.2,0-0.2,0.1
				v0.1h1.8v-0.1H38.2z M36.4,70h1.8v-0.2h-1.8V70z M38,70.7c0.1,0,0.2,0,0.2-0.1v-0.1h-1.8v0.1c0,0.1,0.1,0.1,0.2,0.1H38z
				 M37.5,67.9H38c0.1,0,0.2,0,0.2-0.1v-0.2h-0.7V67.9z M37.5,67.1h0.7v-0.2c0-0.1,0-0.1-0.1-0.1h-0.5L37.5,67.1z M39,71.5
				c0.2,0,0.2,0.2,0.2,0.3c0,0.2-0.1,0.3-0.3,0.3h-0.1c-0.4-0.1-0.8-0.3-1.1-0.4c-0.1-0.1-0.2-0.2-0.2-0.3c0-0.2,0.1-0.3,0.3-0.3
				c0.1,0,0.1,0,0.2,0C38.3,71.3,38.7,71.4,39,71.5z"/>
		</g>
		<g class="st3">
			<path d="M42.5,66.7c1.5,0,2.3,0.8,2.3,2.4c0,1.5-0.9,2.5-2.3,2.5h-0.6c-0.8,0-1-0.2-1-0.9v-3.2c0-0.6,0.2-0.9,1-0.9L42.5,66.7
				L42.5,66.7z M42,67.3c-0.3,0-0.4,0.1-0.4,0.3v2.9c0,0.3,0.1,0.3,0.4,0.3h0.5c0.9,0,1.5-0.7,1.5-1.8c0-1.2-0.5-1.8-1.5-1.8
				L42,67.3L42,67.3z"/>
		</g>
		<path class="st4" d="M9,52.5h53c1.1,0,2,0.9,2,2v5c0,1.1-0.9,2-2,2H9c-1.1,0-2-0.9-2-2v-5C7,53.4,7.9,52.5,9,52.5z"/>
		<g class="st3">
			<path d="M29.5,55.9c0.2,0,0.3,0.1,0.3,0.3c0,0.1-0.1,0.2-0.2,0.3c-0.4,0.2-0.9,0.4-1.3,0.5h-0.1c-0.2,0-0.3-0.1-0.3-0.3
				c0-0.1,0.1-0.2,0.2-0.3c0.4-0.1,0.9-0.3,1.2-0.4C29.4,56,29.4,55.9,29.5,55.9z M28.2,55C28,55,28,54.9,28,54.7
				c0-0.1,0.1-0.3,0.2-0.3h1.6c0.5,0,0.7,0.2,0.7,0.6v1.5c0,0.4-0.2,0.6-0.6,0.6c-0.1,0-0.2,0-0.4,0c-0.2,0-0.3-0.2-0.3-0.3
				c0-0.2,0.1-0.3,0.3-0.3c0.1,0,0.1,0,0.2,0s0.1,0,0.1-0.1v-1.3c0-0.1,0-0.2-0.2-0.2L28.2,55L28.2,55z M29.2,55.4
				c0.1,0.1,0.1,0.2,0.1,0.2c0,0.2-0.1,0.3-0.3,0.3c-0.1,0-0.1,0-0.2-0.1s-0.2-0.2-0.3-0.3c-0.1-0.1-0.1-0.1-0.1-0.2
				c0-0.1,0.1-0.3,0.3-0.3c0.1,0,0.1,0,0.2,0C29,55.2,29.1,55.3,29.2,55.4z M29.5,60c-0.6,0-0.8-0.2-0.8-0.7v-1.1
				c0-0.5,0.3-0.7,0.8-0.7h0.8c0-0.1,0.1-0.2,0.1-0.4s0.2-0.2,0.3-0.2c0.2,0,0.3,0.1,0.3,0.3v0.1c0,0.1-0.1,0.2-0.1,0.2h1
				c0.6,0,0.8,0.2,0.8,0.7v1.1c0,0.5-0.3,0.6-0.8,0.7C31.9,60,29.5,60,29.5,60z M32.1,58.3c0-0.1-0.1-0.2-0.3-0.2h-2.2
				c-0.2,0-0.3,0.1-0.3,0.2v0.2H32L32.1,58.3L32.1,58.3z M31.8,59.5c0.2,0,0.3-0.1,0.3-0.2v-0.2h-2.7v0.2c0,0.2,0.1,0.2,0.3,0.2
				H31.8z M32.2,55.9c0.2,0,0.3,0.1,0.3,0.3c0,0.1,0,0.2-0.2,0.3c-0.4,0.2-0.8,0.4-1.3,0.5h-0.1c-0.2,0-0.3-0.1-0.3-0.3
				c0-0.1,0.1-0.2,0.2-0.3c0.4-0.1,0.8-0.2,1.2-0.4C32.1,55.9,32.2,55.9,32.2,55.9z M31,55c-0.2,0-0.2-0.1-0.2-0.3
				c0-0.1,0.1-0.3,0.2-0.3h1.6c0.5,0,0.7,0.2,0.7,0.6v1.5c0,0.4-0.2,0.6-0.7,0.6c-0.1,0-0.2,0-0.3,0c-0.2,0-0.3-0.2-0.3-0.3
				c0-0.2,0.1-0.3,0.3-0.3c0.1,0,0.1,0,0.2,0c0.1,0,0.1,0,0.1-0.1V55c0-0.1,0-0.2-0.2-0.2H31V55z M31.9,55.4
				c0.1,0.1,0.1,0.2,0.1,0.2c0,0.2-0.1,0.3-0.3,0.3c-0.1,0-0.1,0-0.2-0.1s-0.2-0.2-0.3-0.3c-0.1-0.1-0.1-0.1-0.1-0.2
				c0-0.1,0.1-0.3,0.3-0.3c0.1,0,0.1,0,0.2,0C31.7,55.2,31.8,55.3,31.9,55.4z"/>
		</g>
		<g class="st3">
			<path d="M33.7,55.6c0.1,0,0.3,0.1,0.2,0.3c0,0.3-0.1,0.7-0.2,0.9c0,0.1-0.1,0.2-0.2,0.2c-0.1,0-0.2-0.1-0.2-0.2v-0.1
				c0.1-0.2,0.1-0.6,0.2-0.8C33.5,55.7,33.6,55.6,33.7,55.6z M34.7,59.9c0,0.2-0.2,0.3-0.3,0.3c-0.2,0-0.3-0.1-0.3-0.3v-5.4
				c0-0.2,0.2-0.3,0.3-0.3c0.2,0,0.3,0.1,0.3,0.3V59.9z M35.4,56.2c0,0.2-0.1,0.3-0.2,0.3c-0.1,0-0.2-0.1-0.2-0.2
				c0-0.2-0.1-0.4-0.1-0.6v-0.1c0-0.1,0.1-0.2,0.2-0.2c0.1,0,0.2,0.1,0.2,0.2C35.3,55.8,35.3,56,35.4,56.2z M36.6,59.2
				c0.2,0,0.3,0.2,0.3,0.3s-0.1,0.2-0.2,0.3c-0.4,0.2-0.8,0.3-1.2,0.4c-0.2,0.1-0.4-0.1-0.4-0.3c0-0.1,0.1-0.2,0.2-0.3
				c0.3-0.1,0.7-0.2,1.1-0.3C36.5,59.2,36.5,59.2,36.6,59.2z M36.3,56.4c-0.5,0-0.7-0.2-0.6-0.6v-0.2h-0.2c-0.2,0-0.2-0.1-0.2-0.2
				c0-0.1,0.1-0.2,0.2-0.2h0.3V55c0-0.4,0.1-0.6,0.6-0.6h1.8c0.5,0,0.7,0.2,0.6,0.6v0.2h0.4c0.2,0,0.2,0.1,0.2,0.2
				c0,0.1-0.1,0.2-0.2,0.2h-0.4v0.2c0,0.4-0.2,0.5-0.6,0.6H36.3z M36.4,59.2c-0.5,0-0.7-0.2-0.7-0.5v-1.5c0-0.4,0.2-0.6,0.7-0.6h1.7
				c0.5,0,0.7,0.2,0.7,0.6v1.5c0,0.4-0.3,0.5-0.7,0.5H36.4z M36.3,55.6v0.2c0,0.1,0,0.1,0.1,0.1h0.5v-0.3H36.3z M36.5,54.8
				c-0.1,0-0.1,0-0.2,0.1v0.2h0.6v-0.3H36.5z M38.2,57.2c0-0.1,0-0.1-0.2-0.1h-1.5c-0.1,0-0.2,0-0.2,0.1v0.1h1.8v-0.1H38.2z
				 M36.4,58h1.8v-0.2h-1.8V58z M38,58.7c0.1,0,0.2,0,0.2-0.1v-0.1h-1.8v0.1c0,0.1,0.1,0.1,0.2,0.1H38z M37.5,55.9H38
				c0.1,0,0.2,0,0.2-0.1v-0.2h-0.7V55.9z M37.5,55.1h0.7v-0.2c0-0.1,0-0.1-0.1-0.1h-0.5L37.5,55.1z M39,59.5c0.2,0,0.2,0.2,0.2,0.3
				c0,0.2-0.1,0.3-0.3,0.3h-0.1c-0.4-0.1-0.8-0.3-1.1-0.4c-0.1-0.1-0.2-0.2-0.2-0.3c0-0.2,0.1-0.3,0.3-0.3c0.1,0,0.1,0,0.2,0
				C38.3,59.3,38.7,59.4,39,59.5z"/>
		</g>
		<g class="st3">
			<path d="M44.1,55.1c0.2,0.1,0.2,0.2,0.2,0.4s-0.2,0.4-0.4,0.4c-0.1,0-0.2,0-0.3-0.1c-0.3-0.3-0.6-0.4-0.9-0.4
				c-0.8,0-1.3,0.7-1.3,1.8c0,1.2,0.6,1.8,1.3,1.8c0.4,0,0.7-0.1,1-0.4c0.1-0.1,0.2-0.1,0.3-0.1c0.2,0,0.4,0.1,0.4,0.3
				c0,0.1,0,0.2-0.1,0.3c-0.4,0.4-0.9,0.5-1.5,0.5c-1.2,0-2.1-0.9-2.1-2.5s0.9-2.5,2.1-2.5C43.2,54.6,43.7,54.8,44.1,55.1z"/>
		</g>
		<path class="st4" d="M9,40.5h53c1.1,0,2,0.9,2,2v5c0,1.1-0.9,2-2,2H9c-1.1,0-2-0.9-2-2v-5C7,41.4,7.9,40.5,9,40.5z"/>
		<g class="st3">
			<path d="M29.5,43.9c0.2,0,0.3,0.1,0.3,0.3c0,0.1-0.1,0.2-0.2,0.3c-0.4,0.2-0.9,0.4-1.3,0.5h-0.1c-0.2,0-0.3-0.1-0.3-0.3
				c0-0.1,0.1-0.2,0.2-0.3c0.4-0.1,0.9-0.3,1.2-0.4C29.4,44,29.4,43.9,29.5,43.9z M28.2,43C28,43,28,42.9,28,42.7
				c0-0.1,0.1-0.3,0.2-0.3h1.6c0.5,0,0.7,0.2,0.7,0.6v1.5c0,0.4-0.2,0.6-0.6,0.6c-0.1,0-0.2,0-0.4,0c-0.2,0-0.3-0.2-0.3-0.3
				c0-0.2,0.1-0.3,0.3-0.3c0.1,0,0.1,0,0.2,0s0.1,0,0.1-0.1v-1.3c0-0.1,0-0.2-0.2-0.2L28.2,43L28.2,43z M29.2,43.4
				c0.1,0.1,0.1,0.2,0.1,0.2c0,0.2-0.1,0.3-0.3,0.3c-0.1,0-0.1,0-0.2-0.1s-0.2-0.2-0.3-0.3c-0.1-0.1-0.1-0.1-0.1-0.2
				c0-0.1,0.1-0.3,0.3-0.3c0.1,0,0.1,0,0.2,0C29,43.2,29.1,43.3,29.2,43.4z M29.5,48c-0.6,0-0.8-0.2-0.8-0.7v-1.1
				c0-0.5,0.3-0.7,0.8-0.7h0.8c0-0.1,0.1-0.2,0.1-0.4s0.2-0.2,0.3-0.2c0.2,0,0.3,0.1,0.3,0.3v0.1c0,0.1-0.1,0.2-0.1,0.2h1
				c0.6,0,0.8,0.2,0.8,0.7v1.1c0,0.5-0.3,0.6-0.8,0.7C31.9,48,29.5,48,29.5,48z M32.1,46.3c0-0.1-0.1-0.2-0.3-0.2h-2.2
				c-0.2,0-0.3,0.1-0.3,0.2v0.2H32L32.1,46.3L32.1,46.3z M31.8,47.5c0.2,0,0.3-0.1,0.3-0.2v-0.2h-2.7v0.2c0,0.2,0.1,0.2,0.3,0.2
				H31.8z M32.2,43.9c0.2,0,0.3,0.1,0.3,0.3c0,0.1,0,0.2-0.2,0.3c-0.4,0.2-0.8,0.4-1.3,0.5h-0.1c-0.2,0-0.3-0.1-0.3-0.3
				c0-0.1,0.1-0.2,0.2-0.3c0.4-0.1,0.8-0.2,1.2-0.4C32.1,43.9,32.2,43.9,32.2,43.9z M31,43c-0.2,0-0.2-0.1-0.2-0.3
				c0-0.1,0.1-0.3,0.2-0.3h1.6c0.5,0,0.7,0.2,0.7,0.6v1.5c0,0.4-0.2,0.6-0.7,0.6c-0.1,0-0.2,0-0.3,0c-0.2,0-0.3-0.2-0.3-0.3
				c0-0.2,0.1-0.3,0.3-0.3c0.1,0,0.1,0,0.2,0c0.1,0,0.1,0,0.1-0.1V43c0-0.1,0-0.2-0.2-0.2H31V43z M31.9,43.4
				c0.1,0.1,0.1,0.2,0.1,0.2c0,0.2-0.1,0.3-0.3,0.3c-0.1,0-0.1,0-0.2-0.1s-0.2-0.2-0.3-0.3c-0.1-0.1-0.1-0.1-0.1-0.2
				c0-0.1,0.1-0.3,0.3-0.3c0.1,0,0.1,0,0.2,0C31.7,43.2,31.8,43.3,31.9,43.4z"/>
		</g>
		<g class="st3">
			<path d="M33.7,43.6c0.1,0,0.3,0.1,0.2,0.3c0,0.3-0.1,0.7-0.2,0.9c0,0.1-0.1,0.2-0.2,0.2c-0.1,0-0.2-0.1-0.2-0.2v-0.1
				c0.1-0.2,0.1-0.6,0.2-0.8C33.5,43.7,33.6,43.6,33.7,43.6z M34.7,47.9c0,0.2-0.2,0.3-0.3,0.3c-0.2,0-0.3-0.1-0.3-0.3v-5.4
				c0-0.2,0.2-0.3,0.3-0.3c0.2,0,0.3,0.1,0.3,0.3V47.9z M35.4,44.2c0,0.2-0.1,0.3-0.2,0.3c-0.1,0-0.2-0.1-0.2-0.2
				c0-0.2-0.1-0.4-0.1-0.6v-0.1c0-0.1,0.1-0.2,0.2-0.2c0.1,0,0.2,0.1,0.2,0.2C35.3,43.8,35.3,44,35.4,44.2z M36.6,47.2
				c0.2,0,0.3,0.2,0.3,0.3s-0.1,0.2-0.2,0.3c-0.4,0.2-0.8,0.3-1.2,0.4c-0.2,0.1-0.4-0.1-0.4-0.3c0-0.1,0.1-0.2,0.2-0.3
				c0.3-0.1,0.7-0.2,1.1-0.3C36.5,47.2,36.5,47.2,36.6,47.2z M36.3,44.4c-0.5,0-0.7-0.2-0.6-0.6v-0.2h-0.2c-0.2,0-0.2-0.1-0.2-0.2
				c0-0.1,0.1-0.2,0.2-0.2h0.3V43c0-0.4,0.1-0.6,0.6-0.6h1.8c0.5,0,0.7,0.2,0.6,0.6v0.2h0.4c0.2,0,0.2,0.1,0.2,0.2
				c0,0.1-0.1,0.2-0.2,0.2h-0.4v0.2c0,0.4-0.2,0.5-0.6,0.6H36.3z M36.4,47.2c-0.5,0-0.7-0.2-0.7-0.5v-1.5c0-0.4,0.2-0.6,0.7-0.6h1.7
				c0.5,0,0.7,0.2,0.7,0.6v1.5c0,0.4-0.3,0.5-0.7,0.5H36.4z M36.3,43.6v0.2c0,0.1,0,0.1,0.1,0.1h0.5v-0.3H36.3z M36.5,42.8
				c-0.1,0-0.1,0-0.2,0.1v0.2h0.6v-0.3H36.5z M38.2,45.2c0-0.1,0-0.1-0.2-0.1h-1.5c-0.1,0-0.2,0-0.2,0.1v0.1h1.8v-0.1H38.2z
				 M36.4,46h1.8v-0.2h-1.8V46z M38,46.7c0.1,0,0.2,0,0.2-0.1v-0.1h-1.8v0.1c0,0.1,0.1,0.1,0.2,0.1H38z M37.5,43.9H38
				c0.1,0,0.2,0,0.2-0.1v-0.2h-0.7V43.9z M37.5,43.1h0.7v-0.2c0-0.1,0-0.1-0.1-0.1h-0.5L37.5,43.1z M39,47.5c0.2,0,0.2,0.2,0.2,0.3
				c0,0.2-0.1,0.3-0.3,0.3h-0.1c-0.4-0.1-0.8-0.3-1.1-0.4c-0.1-0.1-0.2-0.2-0.2-0.3c0-0.2,0.1-0.3,0.3-0.3c0.1,0,0.1,0,0.2,0
				C38.3,47.3,38.7,47.4,39,47.5z"/>
		</g>
		<g class="st3">
			<path d="M41.8,47.6c-0.7,0-1-0.2-1-0.9v-3.2c0-0.6,0.2-0.9,1-0.9h0.8c1,0,1.5,0.5,1.5,1.2c0,0.5-0.3,0.9-0.7,1
				c0.6,0.1,1,0.5,1,1.3c0,0.9-0.6,1.4-1.7,1.4h-0.9V47.6z M42.5,44.7c0.5,0,0.8-0.3,0.8-0.7c0-0.5-0.3-0.7-0.8-0.7H42
				c-0.3,0-0.4,0.1-0.4,0.3v1.1C41.6,44.7,42.5,44.7,42.5,44.7z M42.6,47c0.6,0,0.9-0.3,0.9-0.8c0-0.6-0.3-0.8-0.9-0.8h-1v1.3
				c0,0.3,0.1,0.3,0.4,0.3H42.6z"/>
		</g>
		<path class="st4" d="M9,28.5h53c1.1,0,2,0.9,2,2v5c0,1.1-0.9,2-2,2H9c-1.1,0-2-0.9-2-2v-5C7,29.4,7.9,28.5,9,28.5z"/>
		<g class="st3">
			<path d="M29.5,31.9c0.2,0,0.3,0.1,0.3,0.3c0,0.1-0.1,0.2-0.2,0.3c-0.4,0.2-0.9,0.4-1.3,0.5h-0.1c-0.2,0-0.3-0.1-0.3-0.3
				c0-0.1,0.1-0.2,0.2-0.3c0.4-0.1,0.9-0.3,1.2-0.4C29.4,32,29.4,31.9,29.5,31.9z M28.2,31C28,31,28,30.9,28,30.7
				c0-0.1,0.1-0.3,0.2-0.3h1.6c0.5,0,0.7,0.2,0.7,0.6v1.5c0,0.4-0.2,0.6-0.6,0.6c-0.1,0-0.2,0-0.4,0c-0.2,0-0.3-0.2-0.3-0.3
				c0-0.2,0.1-0.3,0.3-0.3c0.1,0,0.1,0,0.2,0s0.1,0,0.1-0.1v-1.3c0-0.1,0-0.2-0.2-0.2L28.2,31L28.2,31z M29.2,31.4
				c0.1,0.1,0.1,0.2,0.1,0.2c0,0.2-0.1,0.3-0.3,0.3c-0.1,0-0.1,0-0.2-0.1s-0.2-0.2-0.3-0.3c-0.1-0.1-0.1-0.1-0.1-0.2
				s0.1-0.3,0.3-0.3c0.1,0,0.1,0,0.2,0C29,31.2,29.1,31.3,29.2,31.4z M29.5,36c-0.6,0-0.8-0.2-0.8-0.7v-1.1c0-0.5,0.3-0.7,0.8-0.7
				h0.8c0-0.1,0.1-0.2,0.1-0.4s0.2-0.2,0.3-0.2c0.2,0,0.3,0.1,0.3,0.3v0.1c0,0.1-0.1,0.2-0.1,0.2h1c0.6,0,0.8,0.2,0.8,0.7v1.1
				c0,0.5-0.3,0.6-0.8,0.7C31.9,36,29.5,36,29.5,36z M32.1,34.3c0-0.1-0.1-0.2-0.3-0.2h-2.2c-0.2,0-0.3,0.1-0.3,0.2v0.2H32
				L32.1,34.3L32.1,34.3z M31.8,35.5c0.2,0,0.3-0.1,0.3-0.2v-0.2h-2.7v0.2c0,0.2,0.1,0.2,0.3,0.2H31.8z M32.2,31.9
				c0.2,0,0.3,0.1,0.3,0.3c0,0.1,0,0.2-0.2,0.3c-0.4,0.2-0.8,0.4-1.3,0.5h-0.1c-0.2,0-0.3-0.1-0.3-0.3c0-0.1,0.1-0.2,0.2-0.3
				c0.4-0.1,0.8-0.2,1.2-0.4C32.1,31.9,32.2,31.9,32.2,31.9z M31,31c-0.2,0-0.2-0.1-0.2-0.3c0-0.1,0.1-0.3,0.2-0.3h1.6
				c0.5,0,0.7,0.2,0.7,0.6v1.5c0,0.4-0.2,0.6-0.7,0.6c-0.1,0-0.2,0-0.3,0c-0.2,0-0.3-0.2-0.3-0.3c0-0.2,0.1-0.3,0.3-0.3
				c0.1,0,0.1,0,0.2,0c0.1,0,0.1,0,0.1-0.1V31c0-0.1,0-0.2-0.2-0.2H31V31z M31.9,31.4c0.1,0.1,0.1,0.2,0.1,0.2
				c0,0.2-0.1,0.3-0.3,0.3c-0.1,0-0.1,0-0.2-0.1s-0.2-0.2-0.3-0.3c-0.1-0.1-0.1-0.1-0.1-0.2s0.1-0.3,0.3-0.3c0.1,0,0.1,0,0.2,0
				C31.7,31.2,31.8,31.3,31.9,31.4z"/>
		</g>
		<g class="st3">
			<path d="M33.7,31.6c0.1,0,0.3,0.1,0.2,0.3c0,0.3-0.1,0.7-0.2,0.9c0,0.1-0.1,0.2-0.2,0.2c-0.1,0-0.2-0.1-0.2-0.2v-0.1
				c0.1-0.2,0.1-0.6,0.2-0.8C33.5,31.7,33.6,31.6,33.7,31.6z M34.7,35.9c0,0.2-0.2,0.3-0.3,0.3c-0.2,0-0.3-0.1-0.3-0.3v-5.4
				c0-0.2,0.2-0.3,0.3-0.3c0.2,0,0.3,0.1,0.3,0.3V35.9z M35.4,32.2c0,0.2-0.1,0.3-0.2,0.3c-0.1,0-0.2-0.1-0.2-0.2
				c0-0.2-0.1-0.4-0.1-0.6v-0.1c0-0.1,0.1-0.2,0.2-0.2c0.1,0,0.2,0.1,0.2,0.2C35.3,31.8,35.3,32,35.4,32.2z M36.6,35.2
				c0.2,0,0.3,0.2,0.3,0.3s-0.1,0.2-0.2,0.3c-0.4,0.2-0.8,0.3-1.2,0.4c-0.2,0.1-0.4-0.1-0.4-0.3c0-0.1,0.1-0.2,0.2-0.3
				c0.3-0.1,0.7-0.2,1.1-0.3C36.5,35.2,36.5,35.2,36.6,35.2z M36.3,32.4c-0.5,0-0.7-0.2-0.6-0.6v-0.2h-0.2c-0.2,0-0.2-0.1-0.2-0.2
				s0.1-0.2,0.2-0.2h0.3V31c0-0.4,0.1-0.6,0.6-0.6h1.8c0.5,0,0.7,0.2,0.6,0.6v0.2h0.4c0.2,0,0.2,0.1,0.2,0.2s-0.1,0.2-0.2,0.2h-0.4
				v0.2c0,0.4-0.2,0.5-0.6,0.6H36.3z M36.4,35.2c-0.5,0-0.7-0.2-0.7-0.5v-1.5c0-0.4,0.2-0.6,0.7-0.6h1.7c0.5,0,0.7,0.2,0.7,0.6v1.5
				c0,0.4-0.3,0.5-0.7,0.5H36.4z M36.3,31.6v0.2c0,0.1,0,0.1,0.1,0.1h0.5v-0.3C36.9,31.6,36.3,31.6,36.3,31.6z M36.5,30.8
				c-0.1,0-0.1,0-0.2,0.1v0.2h0.6v-0.3C36.9,30.8,36.5,30.8,36.5,30.8z M38.2,33.2c0-0.1,0-0.1-0.2-0.1h-1.5c-0.1,0-0.2,0-0.2,0.1
				v0.1h1.8v-0.1H38.2z M36.4,34h1.8v-0.2h-1.8V34z M38,34.7c0.1,0,0.2,0,0.2-0.1v-0.1h-1.8v0.1c0,0.1,0.1,0.1,0.2,0.1H38z
				 M37.5,31.9H38c0.1,0,0.2,0,0.2-0.1v-0.2h-0.7V31.9z M37.5,31.1h0.7v-0.2c0-0.1,0-0.1-0.1-0.1h-0.5L37.5,31.1z M39,35.5
				c0.2,0,0.2,0.2,0.2,0.3c0,0.2-0.1,0.3-0.3,0.3h-0.1c-0.4-0.1-0.8-0.3-1.1-0.4c-0.1-0.1-0.2-0.2-0.2-0.3c0-0.2,0.1-0.3,0.3-0.3
				c0.1,0,0.1,0,0.2,0C38.3,35.3,38.7,35.4,39,35.5z"/>
		</g>
		<g class="st3">
			<path d="M41.9,31.1c0.1-0.3,0.3-0.5,0.6-0.5s0.5,0.1,0.6,0.4l1.4,3.9c0,0.1,0,0.1,0,0.2c0,0.2-0.2,0.3-0.4,0.3s-0.3-0.1-0.3-0.2
				l-0.5-1.4h-1.6l-0.5,1.4c-0.1,0.1-0.2,0.2-0.3,0.2c-0.3,0-0.4-0.1-0.4-0.3c0-0.1,0-0.1,0-0.2L41.9,31.1z M42.4,31.4
				c-0.1,0.3-0.2,0.7-0.3,1l-0.3,0.9H43l-0.3-0.9C42.7,32.1,42.6,31.8,42.4,31.4L42.4,31.4z"/>
		</g>
		<g class="st3">
			<path class="st4" d="M30.9,17.9c0.2,0,0.3,0.1,0.3,0.3c0,0.1-0.1,0.2-0.2,0.3c-0.4,0.2-0.9,0.4-1.3,0.5h-0.1
				c-0.2,0-0.3-0.1-0.3-0.3c0-0.1,0.1-0.2,0.2-0.3c0.4-0.1,0.9-0.3,1.2-0.4C30.8,18,30.9,17.9,30.9,17.9z M29.6,17
				c-0.2,0-0.2-0.1-0.2-0.3c0-0.1,0.1-0.3,0.2-0.3h1.6c0.5,0,0.7,0.2,0.7,0.6v1.5c0,0.4-0.2,0.6-0.6,0.6c-0.1,0-0.2,0-0.4,0
				c-0.2,0-0.3-0.2-0.3-0.3c0-0.2,0.1-0.3,0.3-0.3c0.1,0,0.1,0,0.2,0s0.1,0,0.1-0.1v-1.3c0-0.1,0-0.2-0.2-0.2L29.6,17L29.6,17z
				 M30.7,17.4c0.1,0.1,0.1,0.2,0.1,0.2c0,0.2-0.1,0.3-0.3,0.3c-0.1,0-0.1,0-0.2-0.1s-0.2-0.2-0.3-0.3c-0.1-0.1-0.1-0.1-0.1-0.2
				S30,17,30.2,17c0.1,0,0.1,0,0.2,0C30.5,17.2,30.6,17.3,30.7,17.4z M30.9,22c-0.6,0-0.8-0.2-0.8-0.7v-1.1c0-0.5,0.3-0.7,0.8-0.7
				h0.8c0-0.1,0.1-0.2,0.1-0.4c0-0.2,0.2-0.2,0.3-0.2c0.2,0,0.3,0.1,0.3,0.3v0.1c0,0.1-0.1,0.2-0.1,0.2h1c0.6,0,0.8,0.2,0.8,0.7v1.1
				c0,0.5-0.3,0.6-0.8,0.7H30.9z M33.5,20.3c0-0.1-0.1-0.2-0.3-0.2H31c-0.2,0-0.3,0.1-0.3,0.2v0.2h2.7L33.5,20.3L33.5,20.3z
				 M33.3,21.5c0.2,0,0.3-0.1,0.3-0.2v-0.2h-2.7v0.2c0,0.2,0.1,0.2,0.3,0.2H33.3z M33.7,17.9c0.2,0,0.3,0.1,0.3,0.3
				c0,0.1,0,0.2-0.2,0.3c-0.4,0.2-0.8,0.4-1.3,0.5h-0.1c-0.2,0-0.3-0.1-0.3-0.3c0-0.1,0.1-0.2,0.2-0.3c0.4-0.1,0.8-0.2,1.2-0.4
				C33.6,17.9,33.7,17.9,33.7,17.9z M32.4,17c-0.2,0-0.2-0.1-0.2-0.3c0-0.1,0.1-0.3,0.2-0.3H34c0.5,0,0.7,0.2,0.7,0.6v1.5
				c0,0.4-0.2,0.6-0.7,0.6c-0.1,0-0.2,0-0.3,0c-0.2,0-0.3-0.2-0.3-0.3c0-0.2,0.1-0.3,0.3-0.3c0.1,0,0.1,0,0.2,0c0.1,0,0.1,0,0.1-0.1
				V17c0-0.1,0-0.2-0.2-0.2h-1.4V17z M33.4,17.4c0.1,0.1,0.1,0.2,0.1,0.2c0,0.2-0.1,0.3-0.3,0.3c-0.1,0-0.1,0-0.2-0.1
				c-0.1-0.1-0.2-0.2-0.3-0.3c-0.1-0.1-0.1-0.1-0.1-0.2s0.1-0.3,0.3-0.3c0.1,0,0.1,0,0.2,0C33.2,17.2,33.3,17.3,33.4,17.4z"/>
			<path class="st4" d="M34.8,17.6c0.1,0,0.3,0.1,0.2,0.3c0,0.3-0.1,0.7-0.2,0.9c0,0.1-0.1,0.2-0.2,0.2c-0.1,0-0.2-0.1-0.2-0.2v-0.1
				c0.1-0.2,0.1-0.6,0.2-0.8C34.5,17.7,34.6,17.6,34.8,17.6z M35.7,21.9c0,0.2-0.2,0.3-0.3,0.3c-0.2,0-0.3-0.1-0.3-0.3v-5.4
				c0-0.2,0.2-0.3,0.3-0.3c0.2,0,0.3,0.1,0.3,0.3V21.9z M36.4,18.2c0,0.2-0.1,0.3-0.2,0.3c-0.1,0-0.2-0.1-0.2-0.2
				c0-0.2-0.1-0.4-0.1-0.6v-0.1c0-0.1,0.1-0.2,0.2-0.2c0.1,0,0.2,0.1,0.2,0.2C36.3,17.8,36.3,18,36.4,18.2z M37.6,21.2
				c0.2,0,0.3,0.2,0.3,0.3c0,0.1-0.1,0.2-0.2,0.3c-0.4,0.2-0.8,0.3-1.2,0.4c-0.2,0.1-0.4-0.1-0.4-0.3c0-0.1,0.1-0.2,0.2-0.3
				c0.3-0.1,0.7-0.2,1.1-0.3C37.5,21.2,37.6,21.2,37.6,21.2z M37.3,18.4c-0.5,0-0.7-0.2-0.6-0.6v-0.2h-0.2c-0.2,0-0.2-0.1-0.2-0.2
				s0.1-0.2,0.2-0.2h0.3V17c0-0.4,0.1-0.6,0.6-0.6h1.8c0.5,0,0.7,0.2,0.6,0.6v0.2h0.4c0.2,0,0.2,0.1,0.2,0.2s-0.1,0.2-0.2,0.2h-0.4
				v0.2c0,0.4-0.2,0.5-0.6,0.6H37.3z M37.4,21.2c-0.5,0-0.7-0.2-0.7-0.5v-1.5c0-0.4,0.2-0.6,0.7-0.6h1.7c0.5,0,0.7,0.2,0.7,0.6v1.5
				c0,0.4-0.3,0.5-0.7,0.5H37.4z M37.3,17.6v0.2c0,0.1,0,0.1,0.1,0.1h0.5v-0.3C37.9,17.6,37.3,17.6,37.3,17.6z M37.5,16.8
				c-0.1,0-0.1,0-0.2,0.1v0.2H38v-0.3C38,16.8,37.5,16.8,37.5,16.8z M39.2,19.2c0-0.1,0-0.1-0.2-0.1h-1.5c-0.1,0-0.2,0-0.2,0.1v0.1
				h1.8v-0.1H39.2z M37.4,20h1.8v-0.2h-1.8V20z M39,20.7c0.1,0,0.2,0,0.2-0.1v-0.1h-1.8v0.1c0,0.1,0.1,0.1,0.2,0.1H39z M38.5,17.9
				H39c0.1,0,0.2,0,0.2-0.1v-0.2h-0.7V17.9z M38.5,17.1h0.7v-0.2c0-0.1,0-0.1-0.1-0.1h-0.5L38.5,17.1z M40,21.5
				c0.2,0,0.2,0.2,0.2,0.3c0,0.2-0.1,0.3-0.3,0.3h-0.1c-0.4-0.1-0.8-0.3-1.1-0.4c-0.1-0.1-0.2-0.2-0.2-0.3c0-0.2,0.1-0.3,0.3-0.3
				c0.1,0,0.1,0,0.2,0C39.3,21.3,39.7,21.4,40,21.5z"/>
		</g>
	</g>
</g>
</svg>
