<?xml version="1.0" encoding="utf-8"?>
<!-- Generator: Adobe Illustrator 24.3.0, SVG Export Plug-In . SVG Version: 6.00 Build 0)  -->
<svg version="1.1" id="レイヤー_1" xmlns="http://www.w3.org/2000/svg" xmlns:xlink="http://www.w3.org/1999/xlink" x="0px"
	 y="0px" viewBox="0 0 70 127.5" style="enable-background:new 0 0 70 127.5;" xml:space="preserve">
<style type="text/css">
	.st0{fill:#54AD9E;}
	.st1{fill:url(#SVGID_1_);}
	.st2{fill:#54AD9E;stroke:#FFFFFF;stroke-miterlimit:10;}
	.st3{fill:none;stroke:#FFFFFF;stroke-linecap:round;stroke-linejoin:round;}
	.st4{fill:#F5800B;}
	.st5{enable-background:new    ;}
	.st6{fill:#E7F3F1;}
</style>
<g id="レイヤー_2_1_">
	<g id="レイヤー_6">
		<path d="M8,0h54c4.4,0,8,3.6,8,8v111.5c0,4.4-3.6,8-8,8H8c-4.4,0-8-3.6-8-8V8C0,3.6,3.6,0,8,0z"/>
		<path class="st0" d="M10,5.5h50c3.3,0,6,2.7,6,6v105c0,3.3-2.7,6-6,6H10c-3.3,0-6-2.7-6-6v-105C4,8.2,6.7,5.5,10,5.5z"/>
		
			<linearGradient id="SVGID_1_" gradientUnits="userSpaceOnUse" x1="35" y1="719.4999" x2="35" y2="777.4999" gradientTransform="matrix(1 0 0 1 0 -714)">
			<stop  offset="0" style="stop-color:#84C29E"/>
			<stop  offset="1" style="stop-color:#54ADAD"/>
		</linearGradient>
		<path class="st1" d="M10,5.5h50c3.3,0,6,2.7,6,6v52l0,0H4l0,0v-52C4,8.2,6.7,5.5,10,5.5z"/>
		<path class="st2" d="M42.8,41.8l-14.9,2.6c-0.4,0.1-0.6,0.4-0.6,0.8l0.1,0.3c0.1,0.4,0.4,0.6,0.8,0.6l0,0l14.9-2.6
			c0.4-0.1,0.6-0.4,0.6-0.8l-0.1-0.3C43.6,42,43.2,41.8,42.8,41.8L42.8,41.8z"/>
		<path class="st2" d="M27.9,43.6l14.9,2.6c0.4,0.1,0.8-0.2,0.8-0.6l0,0l0.1-0.3c0.1-0.4-0.2-0.8-0.6-0.8l-14.9-2.6
			c-0.4-0.1-0.8,0.2-0.8,0.6l0,0l-0.1,0.3C27.2,43.1,27.5,43.5,27.9,43.6z"/>
		<path class="st2" d="M42.4,26l-0.2-0.1c-0.3-0.2-0.5-0.4-0.8-0.6c-1-0.9-1.7-2.1-1.9-3.5c-0.1,0.8-0.3,1.5-0.6,2.2
			c-0.6,1.2-1.5,2.1-2.6,2.8c0-0.3,0-0.6,0-1c0-3.2-1.5-6.2-4-8.2c0,0.2,0,0.4,0,0.6c0,2.7-1.1,5.4-3,7.3c-0.2,0.2-0.5,0.4-0.7,0.5
			l-0.5,0.5c-4,4.1-4,10.7,0.1,14.7c0.5,0.5,1.1,1,1.8,1.4c1.8,1.1,3.8,1.7,5.9,1.6c5.7-0.2,10.2-5,10-10.7
			C45.9,30.6,44.6,27.9,42.4,26L42.4,26z"/>
		<path d="M20,0.5h30c1.7,0,3,1.3,3,3v3c0,1.7-1.3,3-3,3H20c-1.7,0-3-1.3-3-3v-3C17,1.8,18.3,0.5,20,0.5z"/>
		<path class="st3" d="M48.5,25.6c2.8,1,4.2,4,3.2,6.8l0,0"/>
		<path class="st3" d="M47.5,27.6c1.6,0.6,2.4,2.3,1.9,3.9l0,0"/>
		<path class="st3" d="M23,43.4c-2.8-1-4.2-4-3.2-6.8"/>
		<path class="st3" d="M24,41.4c-1.6-0.6-2.4-2.3-1.9-3.9"/>
		<circle class="st4" cx="35" cy="103.5" r="12"/>
		<g class="st5">
			<path class="st6" d="M33.9,97.5c0-0.6,0.5-1,1.1-1c0.6,0,1.1,0.4,1.1,1v4.9H41c0.6,0,1,0.4,1,1s-0.4,1-1,1h-4.9v5
				c0,0.6-0.5,1-1.1,1c-0.6,0-1.1-0.4-1.1-1v-5H29c-0.6,0-1-0.5-1-1c0-0.6,0.4-1,1-1h4.9V97.5z"/>
		</g>
		<path class="st6" d="M8.5,67.5h53c1.1,0,2,0.9,2,2v5c0,1.1-0.9,2-2,2h-53c-1.1,0-2-0.9-2-2v-5C6.5,68.4,7.4,67.5,8.5,67.5z"/>
		<g class="st5">
			<path d="M28.5,70.9c0.2,0,0.3,0.1,0.3,0.3c0,0.1-0.1,0.2-0.2,0.3c-0.4,0.2-0.9,0.4-1.3,0.5h-0.1c-0.2,0-0.3-0.1-0.3-0.3
				c0-0.1,0.1-0.2,0.2-0.3c0.4-0.1,0.9-0.3,1.2-0.4C28.4,71,28.4,70.9,28.5,70.9z M27.2,70C27,70,27,69.9,27,69.7
				c0-0.1,0.1-0.3,0.2-0.3h1.6c0.5,0,0.7,0.2,0.7,0.6v1.5c0,0.4-0.2,0.6-0.6,0.6c-0.1,0-0.2,0-0.4,0c-0.2,0-0.3-0.2-0.3-0.3
				c0-0.2,0.1-0.3,0.3-0.3c0.1,0,0.1,0,0.2,0s0.1,0,0.1-0.1v-1.3c0-0.1,0-0.2-0.2-0.2h-1.4V70z M28.2,70.4c0.1,0.1,0.1,0.2,0.1,0.2
				c0,0.2-0.1,0.3-0.3,0.3c-0.1,0-0.1,0-0.2-0.1s-0.2-0.2-0.3-0.3c-0.1-0.1-0.1-0.1-0.1-0.2s0.1-0.3,0.3-0.3c0.1,0,0.1,0,0.2,0
				C28,70.2,28.1,70.3,28.2,70.4z M28.5,75c-0.6,0-0.8-0.2-0.8-0.7v-1.1c0-0.5,0.3-0.7,0.8-0.7h0.8c0-0.1,0.1-0.2,0.1-0.4
				c0-0.2,0.2-0.2,0.3-0.2c0.2,0,0.3,0.1,0.3,0.3v0.1c0,0.1-0.1,0.2-0.1,0.2h1c0.6,0,0.8,0.2,0.8,0.7v1.1c0,0.5-0.3,0.6-0.8,0.7
				H28.5z M31.1,73.3c0-0.1-0.1-0.2-0.3-0.2h-2.2c-0.2,0-0.3,0.1-0.3,0.2v0.2H31L31.1,73.3L31.1,73.3z M30.8,74.5
				c0.2,0,0.3-0.1,0.3-0.2v-0.2h-2.7v0.2c0,0.2,0.1,0.2,0.3,0.2H30.8z M31.2,70.9c0.2,0,0.3,0.1,0.3,0.3c0,0.1,0,0.2-0.2,0.3
				c-0.4,0.2-0.8,0.4-1.3,0.5h-0.1c-0.2,0-0.3-0.1-0.3-0.3c0-0.1,0.1-0.2,0.2-0.3c0.4-0.1,0.8-0.2,1.2-0.4
				C31.1,70.9,31.2,70.9,31.2,70.9z M30,70c-0.2,0-0.2-0.1-0.2-0.3c0-0.1,0.1-0.3,0.2-0.3h1.6c0.5,0,0.7,0.2,0.7,0.6v1.5
				c0,0.4-0.2,0.6-0.7,0.6c-0.1,0-0.2,0-0.3,0c-0.2,0-0.3-0.2-0.3-0.3c0-0.2,0.1-0.3,0.3-0.3c0.1,0,0.1,0,0.2,0s0.1,0,0.1-0.1V70
				c0-0.1,0-0.2-0.2-0.2H30V70z M30.9,70.4c0.1,0.1,0.1,0.2,0.1,0.2c0,0.2-0.1,0.3-0.3,0.3c-0.1,0-0.1,0-0.2-0.1s-0.2-0.2-0.3-0.3
				c-0.1-0.1-0.1-0.1-0.1-0.2s0.1-0.3,0.3-0.3c0.1,0,0.1,0,0.2,0C30.7,70.2,30.8,70.3,30.9,70.4z"/>
		</g>
		<g class="st5">
			<path d="M32.7,70.6c0.1,0,0.3,0.1,0.2,0.3c0,0.3-0.1,0.7-0.2,0.9c0,0.1-0.1,0.2-0.2,0.2c-0.1,0-0.2-0.1-0.2-0.2v-0.1
				c0.1-0.2,0.1-0.6,0.2-0.8C32.5,70.7,32.6,70.6,32.7,70.6z M33.7,74.9c0,0.2-0.2,0.3-0.3,0.3c-0.2,0-0.3-0.1-0.3-0.3v-5.4
				c0-0.2,0.2-0.3,0.3-0.3c0.2,0,0.3,0.1,0.3,0.3V74.9z M34.4,71.2c0,0.2-0.1,0.3-0.2,0.3c-0.1,0-0.2-0.1-0.2-0.2
				c0-0.2-0.1-0.4-0.1-0.6v-0.1c0-0.1,0.1-0.2,0.2-0.2c0.1,0,0.2,0.1,0.2,0.2C34.3,70.8,34.3,71,34.4,71.2z M35.6,74.2
				c0.2,0,0.3,0.2,0.3,0.3c0,0.1-0.1,0.2-0.2,0.3c-0.4,0.2-0.8,0.3-1.2,0.4c-0.2,0.1-0.4-0.1-0.4-0.3c0-0.1,0.1-0.2,0.2-0.3
				c0.3-0.1,0.7-0.2,1.1-0.3C35.5,74.2,35.5,74.2,35.6,74.2z M35.3,71.4c-0.5,0-0.7-0.2-0.6-0.6v-0.2h-0.2c-0.2,0-0.2-0.1-0.2-0.2
				s0.1-0.2,0.2-0.2h0.3V70c0-0.4,0.1-0.6,0.6-0.6h1.8c0.5,0,0.7,0.2,0.6,0.6v0.2h0.4c0.2,0,0.2,0.1,0.2,0.2s-0.1,0.2-0.2,0.2h-0.4
				v0.2c0,0.4-0.2,0.5-0.6,0.6H35.3z M35.4,74.2c-0.5,0-0.7-0.2-0.7-0.5v-1.5c0-0.4,0.2-0.6,0.7-0.6h1.7c0.5,0,0.7,0.2,0.7,0.6v1.5
				c0,0.4-0.3,0.5-0.7,0.5H35.4z M35.3,70.6v0.2c0,0.1,0,0.1,0.1,0.1h0.5v-0.3C35.9,70.6,35.3,70.6,35.3,70.6z M35.5,69.8
				c-0.1,0-0.1,0-0.2,0.1v0.2h0.6v-0.3C35.9,69.8,35.5,69.8,35.5,69.8z M37.2,72.2c0-0.1,0-0.1-0.2-0.1h-1.5c-0.1,0-0.2,0-0.2,0.1
				v0.1h1.8v-0.1H37.2z M35.4,73h1.8v-0.2h-1.8V73z M37,73.7c0.1,0,0.2,0,0.2-0.1v-0.1h-1.8v0.1c0,0.1,0.1,0.1,0.2,0.1H37z
				 M36.5,70.9H37c0.1,0,0.2,0,0.2-0.1v-0.2h-0.7V70.9z M36.5,70.1h0.7v-0.2c0-0.1,0-0.1-0.1-0.1h-0.5L36.5,70.1z M38,74.5
				c0.2,0,0.2,0.2,0.2,0.3c0,0.2-0.1,0.3-0.3,0.3h-0.1c-0.4-0.1-0.8-0.3-1.1-0.4c-0.1-0.1-0.2-0.2-0.2-0.3c0-0.2,0.1-0.3,0.3-0.3
				c0.1,0,0.1,0,0.2,0C37.3,74.3,37.7,74.4,38,74.5z"/>
		</g>
		<g class="st5">
			<path d="M40.9,70.1c0.1-0.3,0.3-0.5,0.6-0.5s0.5,0.1,0.6,0.4l1.4,3.9c0,0.1,0,0.1,0,0.2c0,0.2-0.2,0.3-0.4,0.3s-0.3-0.1-0.3-0.2
				l-0.5-1.4h-1.6l-0.5,1.4c-0.1,0.1-0.2,0.2-0.3,0.2c-0.3,0-0.4-0.1-0.4-0.3c0-0.1,0-0.1,0-0.2L40.9,70.1z M41.4,70.4
				c-0.1,0.3-0.2,0.7-0.3,1l-0.3,0.9H42l-0.3-0.9C41.7,71.1,41.6,70.8,41.4,70.4L41.4,70.4z"/>
		</g>
		<path class="st6" d="M8.5,78.5h53c1.1,0,2,0.9,2,2v5c0,1.1-0.9,2-2,2h-53c-1.1,0-2-0.9-2-2v-5C6.5,79.4,7.4,78.5,8.5,78.5z"/>
		<g class="st5">
			<path d="M29,81.9c0.2,0,0.3,0.1,0.3,0.3c0,0.1-0.1,0.2-0.2,0.3c-0.4,0.2-0.9,0.4-1.3,0.5h-0.1c-0.2,0-0.3-0.1-0.3-0.3
				c0-0.1,0.1-0.2,0.2-0.3c0.4-0.1,0.9-0.3,1.2-0.4C28.9,82,28.9,81.9,29,81.9z M27.7,81c-0.2,0-0.2-0.1-0.2-0.3
				c0-0.1,0.1-0.3,0.2-0.3h1.6c0.5,0,0.7,0.2,0.7,0.6v1.5c0,0.4-0.2,0.6-0.6,0.6c-0.1,0-0.2,0-0.4,0c-0.2,0-0.3-0.2-0.3-0.3
				c0-0.2,0.1-0.3,0.3-0.3c0.1,0,0.1,0,0.2,0s0.1,0,0.1-0.1v-1.3c0-0.1,0-0.2-0.2-0.2h-1.4V81z M28.7,81.4c0.1,0.1,0.1,0.2,0.1,0.2
				c0,0.2-0.1,0.3-0.3,0.3c-0.1,0-0.1,0-0.2-0.1s-0.2-0.2-0.3-0.3c-0.1-0.1-0.1-0.1-0.1-0.2S28,81,28.2,81c0.1,0,0.1,0,0.2,0
				C28.5,81.2,28.6,81.3,28.7,81.4z M29,86c-0.6,0-0.8-0.2-0.8-0.7v-1.1c0-0.5,0.3-0.7,0.8-0.7h0.8c0-0.1,0.1-0.2,0.1-0.4
				c0-0.2,0.2-0.2,0.3-0.2c0.2,0,0.3,0.1,0.3,0.3v0.1c0,0.1-0.1,0.2-0.1,0.2h1c0.6,0,0.8,0.2,0.8,0.7v1.1c0,0.5-0.3,0.6-0.8,0.7H29z
				 M31.6,84.3c0-0.1-0.1-0.2-0.3-0.2h-2.2c-0.2,0-0.3,0.1-0.3,0.2v0.2h2.7L31.6,84.3L31.6,84.3z M31.3,85.5c0.2,0,0.3-0.1,0.3-0.2
				v-0.2h-2.7v0.2c0,0.2,0.1,0.2,0.3,0.2H31.3z M31.7,81.9c0.2,0,0.3,0.1,0.3,0.3c0,0.1,0,0.2-0.2,0.3c-0.4,0.2-0.8,0.4-1.3,0.5
				h-0.1c-0.2,0-0.3-0.1-0.3-0.3c0-0.1,0.1-0.2,0.2-0.3c0.4-0.1,0.8-0.2,1.2-0.4C31.6,81.9,31.7,81.9,31.7,81.9z M30.5,81
				c-0.2,0-0.2-0.1-0.2-0.3c0-0.1,0.1-0.3,0.2-0.3h1.6c0.5,0,0.7,0.2,0.7,0.6v1.5c0,0.4-0.2,0.6-0.7,0.6c-0.1,0-0.2,0-0.3,0
				c-0.2,0-0.3-0.2-0.3-0.3c0-0.2,0.1-0.3,0.3-0.3c0.1,0,0.1,0,0.2,0c0.1,0,0.1,0,0.1-0.1V81c0-0.1,0-0.2-0.2-0.2h-1.4V81z
				 M31.4,81.4c0.1,0.1,0.1,0.2,0.1,0.2c0,0.2-0.1,0.3-0.3,0.3c-0.1,0-0.1,0-0.2-0.1s-0.2-0.2-0.3-0.3c-0.1-0.1-0.1-0.1-0.1-0.2
				s0.1-0.3,0.3-0.3c0.1,0,0.1,0,0.2,0C31.2,81.2,31.3,81.3,31.4,81.4z"/>
		</g>
		<g class="st5">
			<path d="M33.2,81.6c0.1,0,0.3,0.1,0.2,0.3c0,0.3-0.1,0.7-0.2,0.9c0,0.1-0.1,0.2-0.2,0.2c-0.1,0-0.2-0.1-0.2-0.2v-0.1
				c0.1-0.2,0.1-0.6,0.2-0.8C33,81.7,33.1,81.6,33.2,81.6z M34.2,85.9c0,0.2-0.2,0.3-0.3,0.3c-0.2,0-0.3-0.1-0.3-0.3v-5.4
				c0-0.2,0.2-0.3,0.3-0.3c0.2,0,0.3,0.1,0.3,0.3V85.9z M34.9,82.2c0,0.2-0.1,0.3-0.2,0.3c-0.1,0-0.2-0.1-0.2-0.2
				c0-0.2-0.1-0.4-0.1-0.6v-0.1c0-0.1,0.1-0.2,0.2-0.2c0.1,0,0.2,0.1,0.2,0.2C34.8,81.8,34.8,82,34.9,82.2z M36.1,85.2
				c0.2,0,0.3,0.2,0.3,0.3c0,0.1-0.1,0.2-0.2,0.3c-0.4,0.2-0.8,0.3-1.2,0.4c-0.2,0.1-0.4-0.1-0.4-0.3c0-0.1,0.1-0.2,0.2-0.3
				c0.3-0.1,0.7-0.2,1.1-0.3C36,85.2,36,85.2,36.1,85.2z M35.8,82.4c-0.5,0-0.7-0.2-0.6-0.6v-0.2H35c-0.2,0-0.2-0.1-0.2-0.2
				s0.1-0.2,0.2-0.2h0.3V81c0-0.4,0.1-0.6,0.6-0.6h1.8c0.5,0,0.7,0.2,0.6,0.6v0.2h0.4c0.2,0,0.2,0.1,0.2,0.2s-0.1,0.2-0.2,0.2h-0.4
				v0.2c0,0.4-0.2,0.5-0.6,0.6H35.8z M35.9,85.2c-0.5,0-0.7-0.2-0.7-0.5v-1.5c0-0.4,0.2-0.6,0.7-0.6h1.7c0.5,0,0.7,0.2,0.7,0.6v1.5
				c0,0.4-0.3,0.5-0.7,0.5H35.9z M35.8,81.6v0.2c0,0.1,0,0.1,0.1,0.1h0.5v-0.3C36.4,81.6,35.8,81.6,35.8,81.6z M36,80.8
				c-0.1,0-0.1,0-0.2,0.1v0.2h0.6v-0.3C36.4,80.8,36,80.8,36,80.8z M37.7,83.2c0-0.1,0-0.1-0.2-0.1H36c-0.1,0-0.2,0-0.2,0.1v0.1h1.8
				v-0.1H37.7z M35.9,84h1.8v-0.2h-1.8V84z M37.5,84.7c0.1,0,0.2,0,0.2-0.1v-0.1h-1.8v0.1c0,0.1,0.1,0.1,0.2,0.1H37.5z M37,81.9h0.5
				c0.1,0,0.2,0,0.2-0.1v-0.2H37V81.9z M37,81.1h0.7v-0.2c0-0.1,0-0.1-0.1-0.1H37V81.1z M38.5,85.5c0.2,0,0.2,0.2,0.2,0.3
				c0,0.2-0.1,0.3-0.3,0.3h-0.1c-0.4-0.1-0.8-0.3-1.1-0.4c-0.1-0.1-0.2-0.2-0.2-0.3c0-0.2,0.1-0.3,0.3-0.3c0.1,0,0.1,0,0.2,0
				C37.8,85.3,38.2,85.4,38.5,85.5z"/>
		</g>
		<g class="st5">
			<path d="M41.3,85.6c-0.7,0-1-0.2-1-0.9v-3.2c0-0.6,0.2-0.9,1-0.9h0.8c1,0,1.5,0.5,1.5,1.2c0,0.5-0.3,0.9-0.7,1
				c0.6,0.1,1,0.5,1,1.3c0,0.9-0.6,1.4-1.7,1.4L41.3,85.6L41.3,85.6z M42,82.7c0.5,0,0.8-0.3,0.8-0.7c0-0.5-0.3-0.7-0.8-0.7h-0.6
				c-0.3,0-0.4,0.1-0.4,0.3v1.1C41,82.7,42,82.7,42,82.7z M42.1,85c0.6,0,0.9-0.3,0.9-0.8c0-0.6-0.3-0.8-0.9-0.8h-1v1.3
				c0,0.3,0.1,0.3,0.4,0.3H42.1z"/>
		</g>
	</g>
</g>
</svg>
