<svg width="800" height="801" viewBox="0 0 800 801" fill="none" xmlns="http://www.w3.org/2000/svg">
<path d="M714.286 0.5H85.7143C38.3929 0.5 0 38.8929 0 86.2143V714.786C0 762.107 38.3929 800.5 85.7143 800.5H714.286C761.607 800.5 800 762.107 800 714.786V86.2143C800 38.8929 761.607 0.5 714.286 0.5ZM626.964 284.071C627.321 289.071 627.321 294.25 627.321 299.25C627.321 454.071 509.464 632.464 294.107 632.464C227.679 632.464 166.071 613.179 114.286 579.964C123.75 581.036 132.857 581.393 142.5 581.393C197.321 581.393 247.679 562.821 287.857 531.393C236.429 530.321 193.214 496.571 178.393 450.143C196.429 452.821 212.679 452.821 231.25 448C177.679 437.107 137.5 389.964 137.5 333V331.571C153.036 340.321 171.25 345.679 190.357 346.393C174.293 335.708 161.125 321.212 152.026 304.199C142.928 287.186 138.183 268.186 138.214 248.893C138.214 227.107 143.929 207.107 154.107 189.786C211.786 260.857 298.393 307.286 395.536 312.286C378.929 232.821 438.393 168.357 509.821 168.357C543.571 168.357 573.929 182.464 595.357 205.321C621.786 200.321 647.143 190.5 669.643 177.107C660.893 204.25 642.5 227.107 618.214 241.571C641.786 239.071 664.643 232.464 685.714 223.357C669.821 246.75 649.821 267.464 626.964 284.071Z" fill="#333333"/>
</svg>
