<svg width="801" height="801" viewBox="0 0 801 801" fill="none" xmlns="http://www.w3.org/2000/svg">
<path d="M400.263 266.875C326.814 266.875 266.875 326.815 266.875 400.263C266.875 473.711 326.814 533.65 400.263 533.65C473.711 533.65 533.65 473.711 533.65 400.263C533.65 326.815 473.711 266.875 400.263 266.875ZM800.326 400.263C800.326 345.027 800.826 290.291 797.724 235.154C794.622 171.112 780.012 114.275 733.181 67.4441C686.251 20.5133 629.513 6.00377 565.471 2.90174C510.235 -0.200303 455.499 0.300028 400.363 0.300028C345.126 0.300028 290.391 -0.200303 235.254 2.90174C171.212 6.00377 114.375 20.6134 67.5441 67.4441C20.6133 114.375 6.10375 171.112 3.00171 235.154C-0.100327 290.391 0.400003 345.127 0.400003 400.263C0.400003 455.399 -0.100327 510.235 3.00171 565.371C6.10375 629.413 20.7134 686.251 67.5441 733.081C114.475 780.012 171.212 794.522 235.254 797.624C290.491 800.726 345.227 800.226 400.363 800.226C455.599 800.226 510.335 800.726 565.471 797.624C629.513 794.522 686.351 779.912 733.181 733.081C780.112 686.151 794.622 629.413 797.724 565.371C800.926 510.235 800.326 455.499 800.326 400.263V400.263ZM400.263 605.498C286.688 605.498 195.028 513.837 195.028 400.263C195.028 286.688 286.688 195.028 400.263 195.028C513.837 195.028 605.498 286.688 605.498 400.263C605.498 513.837 513.837 605.498 400.263 605.498ZM613.903 234.554C587.386 234.554 565.972 213.14 565.972 186.622C565.972 160.105 587.386 138.691 613.903 138.691C640.421 138.691 661.835 160.105 661.835 186.622C661.843 192.919 660.608 199.155 658.202 204.974C655.796 210.793 652.266 216.08 647.813 220.533C643.361 224.985 638.074 228.515 632.255 230.921C626.436 233.327 620.2 234.562 613.903 234.554V234.554Z" fill="#333333"/>
</svg>
