<svg width="1096" height="385" viewBox="0 0 1096 385" fill="none" xmlns="http://www.w3.org/2000/svg">
<path d="M265.088 308.958L11.9029 353.601C5.32963 354.76 0.940562 361.028 2.0996 367.602L3.06878 373.098C4.22782 379.671 10.4961 384.06 17.0693 382.901L270.255 338.258C276.828 337.099 281.217 330.831 280.058 324.257L279.089 318.761C277.93 312.188 271.661 307.799 265.088 308.958Z" fill="#54AD9E"/>
<path d="M11.9019 338.255L265.087 382.899C271.661 384.058 277.929 379.669 279.088 373.095L280.057 367.599C281.216 361.026 276.827 354.757 270.254 353.598L17.0684 308.955C10.4951 307.796 4.2269 312.185 3.06786 318.758L2.09868 324.255C0.939647 330.828 5.32872 337.096 11.9019 338.255Z" fill="#54AD9E"/>
<path d="M233.477 113.571C232.719 112.911 231.95 112.252 231.17 111.604C227.779 108.769 224.252 106.096 220.59 103.584C207.25 91.1372 198.122 74.8426 194.474 56.9666C193.472 67.1731 190.675 77.1223 186.212 86.3563C178.597 102.07 166.496 115.176 151.439 124.019C151.846 119.624 152.065 115.23 152.065 110.835C152.076 100.157 150.874 89.5121 148.484 79.105C141.218 47.7388 123.409 19.8156 98.0322 0C98.164 2.49767 98.2299 5.00998 98.2299 7.53695C98.2752 44.5735 83.6606 80.1227 57.5788 106.418C54.4365 108.733 51.4005 111.175 48.4707 113.746C45.9144 115.988 43.4424 118.313 41.0546 120.723C21.234 140.77 7.89562 166.31 2.7703 194.031C-2.35503 221.752 0.969268 250.374 12.3118 276.182C23.6544 301.99 42.4916 323.794 66.3793 338.764C90.267 353.734 118.102 361.179 146.274 360.133C174.445 359.088 201.652 349.6 224.364 332.9C247.077 316.2 264.246 293.06 273.644 266.482C283.042 239.904 284.235 211.115 277.069 183.85C269.903 156.585 254.708 132.104 233.456 113.582L233.477 113.571Z" fill="#54AD9E"/>
<path d="M345.953 195.672V167.125H367.328V124.375H406.984V167.125H431.875V195.672H406.984V276.672C406.984 282.953 407.781 286.891 409.375 288.484C410.969 289.984 415.844 290.734 424 290.734C425.219 290.734 426.484 290.734 427.797 290.734C429.203 290.641 430.562 290.547 431.875 290.453V320.406L412.891 321.109C393.953 321.766 381.016 318.484 374.078 311.266C369.578 306.672 367.328 299.594 367.328 290.031V195.672H345.953ZM542.125 244.469C539.594 246.062 537.016 247.375 534.391 248.406C531.859 249.344 528.344 250.234 523.844 251.078L514.844 252.766C506.406 254.266 500.359 256.094 496.703 258.25C490.516 261.906 487.422 267.578 487.422 275.266C487.422 282.109 489.297 287.078 493.047 290.172C496.891 293.172 501.531 294.672 506.969 294.672C515.594 294.672 523.516 292.141 530.734 287.078C538.047 282.016 541.844 272.781 542.125 259.375V244.469ZM517.797 225.766C525.203 224.828 530.5 223.656 533.688 222.25C539.406 219.812 542.266 216.016 542.266 210.859C542.266 204.578 540.062 200.266 535.656 197.922C531.344 195.484 524.969 194.266 516.531 194.266C507.062 194.266 500.359 196.609 496.422 201.297C493.609 204.766 491.734 209.453 490.797 215.359H452.125C452.969 201.953 456.719 190.938 463.375 182.312C473.969 168.812 492.156 162.062 517.938 162.062C534.719 162.062 549.625 165.391 562.656 172.047C575.688 178.703 582.203 191.266 582.203 209.734V280.047C582.203 284.922 582.297 290.828 582.484 297.766C582.766 303.016 583.562 306.578 584.875 308.453C586.188 310.328 588.156 311.875 590.781 313.094V319H547.188C545.969 315.906 545.125 313 544.656 310.281C544.188 307.562 543.812 304.469 543.531 301C538 307 531.625 312.109 524.406 316.328C515.781 321.297 506.031 323.781 495.156 323.781C481.281 323.781 469.797 319.844 460.703 311.969C451.703 304 447.203 292.75 447.203 278.219C447.203 259.375 454.469 245.734 469 237.297C476.969 232.703 488.688 229.422 504.156 227.453L517.797 225.766ZM617.5 112.422H656.875V224.078L706.797 166.422H756.438L702.859 225.062L758.547 319H710.172L673.469 253.469L656.875 270.766V319H617.5V112.422ZM819.438 147.438H778.797V110.453H819.438V147.438ZM778.797 165.719H819.438V319H778.797V165.719ZM941.219 162.344C961.375 162.344 977.125 169.609 988.469 184.141C999.906 198.672 1005.62 217.422 1005.62 240.391C1005.62 264.203 1000 283.938 988.75 299.594C977.5 315.25 961.797 323.078 941.641 323.078C928.984 323.078 918.812 320.547 911.125 315.484C906.531 312.484 901.562 307.234 896.219 299.734V319H856.984V112H896.922V185.688C901.984 178.562 907.562 173.125 913.656 169.375C920.875 164.688 930.062 162.344 941.219 162.344ZM930.953 290.031C941.266 290.031 949.281 285.859 955 277.516C960.719 269.172 963.578 258.203 963.578 244.609C963.578 233.734 962.172 224.734 959.359 217.609C954.016 204.109 944.172 197.359 929.828 197.359C915.297 197.359 905.312 203.969 899.875 217.188C897.062 224.219 895.656 233.312 895.656 244.469C895.656 257.594 898.562 268.469 904.375 277.094C910.188 285.719 919.047 290.031 930.953 290.031ZM1075.66 147.438H1035.02V110.453H1075.66V147.438ZM1035.02 165.719H1075.66V319H1035.02V165.719Z" fill="#333333"/>
</svg>
