<?xml version="1.0" encoding="utf-8"?>
<!-- Generator: Adobe Illustrator 24.2.0, SVG Export Plug-In . SVG Version: 6.00 Build 0)  -->
<svg version="1.1" id="レイヤー_1" xmlns="http://www.w3.org/2000/svg" xmlns:xlink="http://www.w3.org/1999/xlink" x="0px"
	 y="0px" viewBox="0 0 1920.2 459.7" style="enable-background:new 0 0 1920.2 459.7;" xml:space="preserve">
<style type="text/css">
	.st0{fill:#E7F3F1;}
	.st1{fill:#2F2E41;}
	.st2{fill:#54AD9E;}
	.st3{fill:#FFFFFF;}
	.st4{fill:#3F3D56;}
	.st5{fill:#F5800B;}
	.st6{fill:#44887D;}
</style>
<g id="レイヤー_2_1_">
	<g id="レイヤー_1-2">
		<path class="st0" d="M1920,0.7c0,0,19-20-337,155c-292.9,144-1184,354-1583-28v332h1920V0.7z"/>
	</g>
</g>
<g>
	<ellipse transform="matrix(0.357 -0.9341 0.9341 0.357 39.6154 735.7077)" class="st1" cx="554.2" cy="339.1" rx="8.6" ry="2.7"/>
	
		<ellipse transform="matrix(0.1602 -0.9871 0.9871 0.1602 104.508 827.0281)" class="st1" cx="538.3" cy="352.1" rx="17.2" ry="17.2"/>
	<rect x="530.4" y="365.6" class="st1" width="5.2" height="9.4"/>
	<rect x="540.9" y="365.6" class="st1" width="5.2" height="9.4"/>
	<ellipse class="st1" cx="534.8" cy="375.1" rx="4.4" ry="1.6"/>
	<ellipse class="st1" cx="545.3" cy="374.9" rx="4.4" ry="1.6"/>
	<path class="st2" d="M521.6,336.1c-1.4-6.2,3.1-12.5,9.9-14.1c6.9-1.5,13.6,2.3,15,8.5s-3.2,8.5-10,10.1
		C529.5,342.1,522.9,342.3,521.6,336.1z"/>
	
		<ellipse transform="matrix(0.4285 -0.9035 0.9035 0.4285 -14.3864 665.4485)" class="st1" cx="518.9" cy="344.1" rx="2.7" ry="8.6"/>
</g>
<g>
	<ellipse transform="matrix(0.9341 -0.357 0.357 0.9341 -69.3064 238.5443)" class="st1" cx="611.5" cy="307" rx="2.7" ry="8.6"/>
	<circle class="st1" cx="627.4" cy="320" r="17.2"/>
	<rect x="630" y="333.5" class="st1" width="5.2" height="9.4"/>
	<rect x="619.5" y="333.5" class="st1" width="5.2" height="9.4"/>
	<ellipse class="st1" cx="630.9" cy="343" rx="4.4" ry="1.6"/>
	<ellipse class="st1" cx="620.4" cy="342.8" rx="4.4" ry="1.6"/>
	<circle class="st3" cx="627" cy="315.6" r="5.9"/>
	<circle class="st4" cx="627" cy="315.6" r="2"/>
	<path class="st2" d="M629.3,308.5c-6.9-1.5-11.4-3.8-10-10.1c1.4-6.2,8.1-10,15-8.5s11.3,7.8,9.9,14.1
		C642.7,310.2,636.1,310,629.3,308.5z"/>
	<ellipse transform="matrix(0.9035 -0.4285 0.4285 0.9035 -71.3072 307.2825)" class="st1" cx="646.8" cy="312" rx="8.6" ry="2.7"/>
	<path class="st3" d="M626.7,325.1c-4.8,0-9.3-2-9.3-0.3c0,1.7,4.5,6.4,9.3,6.4c4.8,0,9.2-3.3,9.2-5
		C635.9,324.5,631.5,325.1,626.7,325.1z"/>
</g>
<g>
	<path class="st5" d="M610.6,351l-46.5,8.2c-1.2,0.2-2,1.4-1.8,2.6l0.2,1c0.2,1.2,1.4,2,2.6,1.8l46.5-8.2c1.2-0.2,2-1.4,1.8-2.6
		l-0.2-1C613,351.6,611.8,350.8,610.6,351z"/>
	<path class="st5" d="M564.1,356.4l46.5,8.2c1.2,0.2,2.4-0.6,2.6-1.8l0.2-1c0.2-1.2-0.6-2.4-1.8-2.6l-46.5-8.2
		c-1.2-0.2-2.4,0.6-2.6,1.8l-0.2,1C562.1,355,562.9,356.1,564.1,356.4z"/>
	<path class="st2" d="M604.8,312.4c-0.1-0.1-0.3-0.2-0.4-0.4c-0.6-0.5-1.3-1-1.9-1.5c-2.5-2.3-4.1-5.3-4.8-8.6
		c-0.2,1.9-0.7,3.7-1.5,5.4c-1.4,2.9-3.6,5.3-6.4,6.9c0.1-0.8,0.1-1.6,0.1-2.4c0-2-0.2-3.9-0.7-5.8c-1.3-5.8-4.6-10.9-9.3-14.5
		c0,0.5,0,0.9,0,1.4c0,6.8-2.7,13.3-7.5,18.2c-0.6,0.4-1.1,0.9-1.7,1.3c-0.5,0.4-0.9,0.8-1.4,1.3c-3.6,3.7-6.1,8.4-7,13.5
		s-0.3,10.4,1.8,15.1c2.1,4.7,5.5,8.8,9.9,11.5c4.4,2.8,9.5,4.1,14.7,3.9s10.2-1.9,14.4-5c4.2-3.1,7.3-7.3,9.1-12.2
		c1.7-4.9,1.9-10.2,0.6-15.2S608.7,315.8,604.8,312.4L604.8,312.4z"/>
	<path class="st5" d="M603.8,338.9L603.8,338.9c0.1,0-0.1-0.6-0.3-1.4c-0.4-1.5-1-3-1.8-4.3c-0.1-0.1-0.1-0.2-0.2-0.3
		c-0.1-0.2-0.2-0.4-0.4-0.5c-0.4-0.6-0.9-1.2-1.5-1.7c-0.6-0.5-1.3-0.9-2.1-1.1c-2.8-0.8-6,0.9-9.6,4.9c-3.6-4-6.9-5.7-9.6-4.9
		c-0.8,0.2-1.5,0.6-2.1,1.1c-0.6,0.5-1.1,1-1.5,1.7c-0.1,0.2-0.3,0.4-0.4,0.5c-0.1,0.1-0.1,0.2-0.2,0.3c-0.8,1.3-1.4,2.8-1.8,4.3
		c-0.2,0.8-0.4,1.4-0.4,1.4l0.1,0c-0.4,2.3-0.3,4.7,0.3,7c0.6,2.3,1.7,4.4,3.2,6.2c1.5,1.8,3.4,3.2,5.5,4.2c2.1,1,4.5,1.5,6.8,1.5
		c2.4,0,4.7-0.5,6.8-1.5c2.1-1,4-2.4,5.5-4.2c1.5-1.8,2.6-3.9,3.2-6.2C604.1,343.5,604.2,341.2,603.8,338.9L603.8,338.9z"/>
</g>
<path class="st6" d="M1120.8,264.5c-3.7,0-4.8-3.7-6.6-7.5c-4.9-11-10.6-15.7-16.1-16.1v0c-0.1,0-0.3,0-0.4,0c-0.1,0-0.3,0-0.4,0v0
	c-5.5,0.4-11.2,5.1-16.1,16.1c-1.7,3.8-2.8,7.5-6.6,7.5c-14.2,0-14.9,19.6-13.1,29.9c4.1,23.1,19.9,28.8,35.8,29.8v0.1
	c0.1,0,0.3,0,0.4,0c0.1,0,0.3,0,0.4,0v-0.1c15.9-1,31.6-6.6,35.8-29.8C1135.7,284.1,1134.9,264.5,1120.8,264.5z"/>
<path class="st2" d="M1079.5,283.1c-2.9,0-3.7-2.8-5-5.7c-3.8-8.4-8.1-12-12.4-12.3v0c-0.1,0-0.2,0-0.3,0c-0.1,0-0.2,0-0.3,0v0
	c-4.2,0.3-8.6,3.9-12.4,12.3c-1.3,2.9-2.2,5.7-5,5.7c-10.9,0-11.5,15.1-10.1,23c3.2,17.7,15.3,22.1,27.5,22.8v0c0.1,0,0.2,0,0.3,0
	c0.1,0,0.2,0,0.3,0v0c12.2-0.8,24.3-5.1,27.5-22.8C1091,298.2,1090.4,283.1,1079.5,283.1z"/>
<path class="st2" d="M274.3,251.1c-2.9,0-3.7-2.8-5-5.7c-3.8-8.4-8.1-12-12.4-12.3v0c-0.1,0-0.2,0-0.3,0c-0.1,0-0.2,0-0.3,0v0
	c-4.2,0.3-8.6,3.9-12.4,12.3c-1.3,2.9-2.2,5.7-5,5.7c-10.9,0-11.5,15.1-10.1,23c3.2,17.7,15.3,22.1,27.5,22.8v0c0.1,0,0.2,0,0.3,0
	c0.1,0,0.2,0,0.3,0v0c12.2-0.8,24.3-5.1,27.5-22.8C285.7,266.2,285.2,251.1,274.3,251.1z"/>
</svg>
