<?xml version="1.0" encoding="utf-8"?>
<!-- Generator: Adobe Illustrator 24.2.0, SVG Export Plug-In . SVG Version: 6.00 Build 0)  -->
<svg version="1.1" id="レイヤー_1" xmlns="http://www.w3.org/2000/svg" xmlns:xlink="http://www.w3.org/1999/xlink" x="0px"
	 y="0px" viewBox="0 0 1920.2 459.7" style="enable-background:new 0 0 1920.2 459.7;" xml:space="preserve">
<style type="text/css">
	.st0{fill:#2F2E41;}
	.st1{fill:#FFFFFF;}
	.st2{fill:#3F3D56;}
	.st3{fill:#54AD9E;}
	.st4{fill:#CCCCCC;}
	.st5{fill:#44887D;}
	.st6{fill:#84C2B8;}
</style>
<g>
	<path class="st0" d="M760.7,281.3c-1,3.7-2.8,7.1-5.3,9.9c-0.3,0.3-0.6,0.6-0.9,1l-41.7-11.4c-0.1-0.4-0.2-0.8-0.3-1.3
		c-2.6-13.4,6.2-26.4,19.6-29c13.4-2.6,26.4,6.2,29,19.6C761.9,273.8,761.7,277.6,760.7,281.3L760.7,281.3z"/>
	<circle class="st1" cx="739.1" cy="268.9" r="8.5"/>
	<circle class="st2" cx="740.8" cy="272.5" r="2.8"/>
	<path class="st3" d="M719.7,246.2c0.4-9.2,9-16.2,19.1-15.7c10.1,0.5,18,8.3,17.5,17.5c-0.4,9.2-7.6,10.6-17.7,10.2
		C728.5,257.6,719.3,255.4,719.7,246.2z"/>
</g>
<g id="レイヤー_2_1_">
	<g id="レイヤー_1-2">
		<path class="st3" d="M0.2,0.7c0,0-19-20,337,155c292.9,144,1184,354,1583-28v332H0.2V0.7z"/>
	</g>
</g>
<g>
	<circle class="st0" cx="1383.2" cy="323.9" r="23.1"/>
	
		<rect x="1364.1" y="341.6" transform="matrix(0.8941 -0.4478 0.4478 0.8941 -9.4582 650.1325)" class="st0" width="12.6" height="7"/>
	
		<ellipse transform="matrix(0.5505 -0.8349 0.8349 0.5505 322.831 1293.8856)" class="st0" cx="1362.9" cy="347.2" rx="2.2" ry="5.9"/>
	
		<rect x="1392.5" y="338.8" transform="matrix(0.4478 -0.8941 0.8941 0.4478 462.3822 1438.8173)" class="st0" width="7" height="12.6"/>
	
		<ellipse transform="matrix(0.8349 -0.5505 0.5505 0.8349 40.6694 829.9021)" class="st0" cx="1403.5" cy="347.2" rx="5.9" ry="2.2"/>
	<circle class="st1" cx="1381.6" cy="318.3" r="7.9"/>
	
		<ellipse transform="matrix(0.7071 -0.7071 0.7071 0.7071 176.741 1069.2731)" class="st2" cx="1379.1" cy="321.3" rx="2.6" ry="2.6"/>
	<path class="st3" d="M1401.4,298.8c0.3-8.6-7-15.8-16.5-16.2c-9.4-0.4-17.4,6.2-17.7,14.8c-0.3,8.6,6.2,10.5,15.7,10.9
		C1392.3,308.7,1401.1,307.3,1401.4,298.8z"/>
	
		<ellipse transform="matrix(0.7588 -0.6514 0.6514 0.7588 126.3144 995.5765)" class="st0" cx="1407.2" cy="327.3" rx="3.6" ry="11.6"/>
	
		<ellipse transform="matrix(0.6514 -0.7588 0.7588 0.6514 225.5511 1145.41)" class="st0" cx="1359.2" cy="327.3" rx="11.6" ry="3.6"/>
	<path class="st1" d="M1389.5,333c0.5,2.9-1.4,5.6-4.2,6.1s-5.6-1.4-6.1-4.2l0,0l0,0c-0.5-2.9,1.7-3.9,4.6-4.4
		C1386.6,330,1389,330.2,1389.5,333z"/>
</g>
<g>
	
		<ellipse transform="matrix(0.7667 -0.642 0.642 0.7667 148.8743 1022.4512)" class="st0" cx="1481.4" cy="306.4" rx="3.7" ry="11.9"/>
	<circle class="st0" cx="1457.7" cy="304.6" r="23.7"/>
	<rect x="1460.5" y="323.2" class="st0" width="7.2" height="12.9"/>
	<rect x="1446.1" y="323.2" class="st0" width="7.2" height="12.9"/>
	<ellipse class="st0" cx="1461.7" cy="336.3" rx="6" ry="2.3"/>
	<ellipse class="st0" cx="1447.3" cy="336" rx="6" ry="2.3"/>
	<path class="st4" d="M1450.2,274.8c2.1-8.5,11.5-13.5,20.9-11.2c9.4,2.3,15.3,11.1,13.2,19.7c-2.1,8.5-9.1,8.6-18.5,6.2
		S1448.1,283.4,1450.2,274.8z"/>
	
		<ellipse transform="matrix(0.6207 -0.7841 0.7841 0.6207 293.7402 1241.3679)" class="st0" cx="1429.8" cy="317.1" rx="11.9" ry="3.7"/>
	<circle class="st1" cx="1454.1" cy="299.6" r="7.9"/>
	<circle class="st2" cx="1451.5" cy="302.3" r="2.6"/>
	<circle class="st1" cx="1454.1" cy="316.1" r="3.3"/>
</g>
<g>
	<path class="st5" d="M185.4,61.3c4,0,5.2-4,7.1-8.1c5.3-11.8,11.4-16.9,17.4-17.4v0c0.1,0,0.3,0,0.4,0c0.1,0,0.3,0,0.4,0v0
		c6,0.4,12.1,5.5,17.4,17.4c1.8,4.1,3,8.1,7.1,8.1c15.3,0,16.1,21.2,14.1,32.3c-4.5,25-21.5,31-38.6,32.1v0.1c-0.1,0-0.3,0-0.4,0
		c-0.1,0-0.3,0-0.4,0v-0.1c-17.1-1.1-34.2-7.2-38.6-32.1C169.3,82.5,170.1,61.3,185.4,61.3z"/>
	<path class="st6" d="M230,81.5c3.1,0,4-3,5.4-6.2c4.1-9.1,8.8-13,13.4-13.3v0c0.1,0,0.2,0,0.3,0c0.1,0,0.2,0,0.3,0v0
		c4.6,0.3,9.3,4.2,13.4,13.3c1.4,3.2,2.3,6.2,5.4,6.2c11.7,0,12.4,16.3,10.9,24.8c-3.4,19.2-16.5,23.8-29.7,24.7v0
		c-0.1,0-0.2,0-0.3,0c-0.1,0-0.2,0-0.3,0v0c-13.2-0.8-26.2-5.5-29.7-24.7C217.6,97.8,218.2,81.5,230,81.5z"/>
</g>
<g>
	<path class="st5" d="M1700,212.9c4,0,5.2-4,7.1-8.1c5.3-11.8,11.4-16.9,17.4-17.4v0c0.1,0,0.3,0,0.4,0c0.1,0,0.3,0,0.4,0v0
		c6,0.4,12.1,5.5,17.4,17.4c1.8,4.1,3,8.1,7.1,8.1c15.3,0,16.1,21.2,14.1,32.3c-4.5,25-21.5,31-38.6,32.1v0.1c-0.1,0-0.3,0-0.4,0
		c-0.1,0-0.3,0-0.4,0v-0.1c-17.1-1.1-34.2-7.2-38.6-32.1C1683.8,234.1,1684.7,212.9,1700,212.9z"/>
</g>
</svg>
