<?xml version="1.0" encoding="utf-8"?>
<!-- Generator: Adobe Illustrator 25.0.1, SVG Export Plug-In . SVG Version: 6.00 Build 0)  -->
<svg version="1.1" id="レイヤー_1" xmlns="http://www.w3.org/2000/svg" xmlns:xlink="http://www.w3.org/1999/xlink" x="0px"
	 y="0px" viewBox="0 0 1920 500" style="enable-background:new 0 0 1920 500;" xml:space="preserve">
<style type="text/css">
	.st0{fill:#54AD9E;}
	.st1{fill:#E6E6E6;}
	.st2{fill:#FFFFFF;}
	.st3{fill:#F5800B;}
	.st4{fill:#2F2E41;}
	.st5{fill:#3F3D56;}
</style>
<g id="レイヤー_2_1_">
	<g id="レイヤー_1-2">
		<path class="st0" d="M0,268c0,0,153.1-116.9,477,44c157,78,1044,351,1443-31v219H0V268z"/>
	</g>
</g>
<g>
	<path class="st1" d="M1280.8,398.5v-9.3c-5.9-1.4-10.9-5.1-13.9-10.4l0,0c-0.7,0.5-1.6,0.8-2.4,0.8h-7.4
		C1261.1,389.7,1270.1,396.8,1280.8,398.5z"/>
	<path class="st1" d="M1280.8,388.6v-9c0-2.8-2.2-5-5-5l0,0h-7.2v0.9c0,1.1-0.4,2.2-1.3,2.9C1270.2,383.6,1275.1,387.3,1280.8,388.6
		z"/>
	<path class="st1" d="M1246.2,379.7h-4.7c-2.2,0-4.1-1.8-4.1-4.1v-0.9h-6.7c-2.8,0-5,2.2-5,5l0,0v111.2c0,2.8,2.2,5,5,5l0,0h45.2
		c0.2,0,0.4,0,0.6,0c2.5-0.3,4.4-2.4,4.4-4.9v-81.8C1264.4,407.1,1250.7,395.4,1246.2,379.7z"/>
	<path class="st1" d="M1256.5,379.7h-9.8c4.5,15.5,18,27,34,28.9v-9.4C1269.8,397.4,1260.6,389.9,1256.5,379.7z"/>
	<path class="st2" d="M1230,416.1c-0.3,0-0.7,0.3-0.7,0.7v11.5c0,0.3,0.3,0.7,0.7,0.7h46.3c0.3,0,0.7-0.3,0.7-0.7v-11.5
		c0-0.3-0.3-0.7-0.7-0.7H1230L1230,416.1z"/>
	<circle class="st0" cx="1236.1" cy="422.6" r="3.6"/>
	<path class="st1" d="M1244.3,420.2c-0.3,0-0.6,0.3-0.6,0.6c0,0.3,0.3,0.6,0.6,0.6h28.3c0.3,0,0.6-0.3,0.6-0.6s-0.3-0.6-0.6-0.6
		H1244.3z"/>
	<path class="st1" d="M1244.3,423.8c-0.3,0-0.6,0.3-0.6,0.6c0,0.3,0.3,0.6,0.6,0.6h28.3c0.3,0,0.6-0.3,0.6-0.6s-0.3-0.6-0.6-0.6
		H1244.3z"/>
	<path class="st2" d="M1230,435.9c-0.3,0-0.7,0.3-0.7,0.7v11.5c0,0.3,0.3,0.7,0.7,0.7h46.3c0.3,0,0.7-0.3,0.7-0.7v-11.5
		c0-0.3-0.3-0.7-0.7-0.7H1230z"/>
	<circle class="st0" cx="1236.1" cy="442.3" r="3.6"/>
	<path class="st1" d="M1244.3,439.9c-0.3,0-0.6,0.3-0.6,0.6s0.3,0.6,0.6,0.6h28.3c0.3,0,0.6-0.3,0.6-0.6s-0.3-0.6-0.6-0.6H1244.3z"
		/>
	<path class="st1" d="M1244.3,443.5c-0.3,0-0.6,0.3-0.6,0.6c0,0.3,0.3,0.6,0.6,0.6h28.3c0.3,0,0.6-0.3,0.6-0.6
		c0-0.3-0.3-0.6-0.6-0.6H1244.3z"/>
	<path class="st2" d="M1230,455.6c-0.3,0-0.7,0.3-0.7,0.7v11.5c0,0.3,0.3,0.7,0.7,0.7h46.3c0.3,0,0.7-0.3,0.7-0.7v-11.5
		c0-0.3-0.3-0.7-0.7-0.7H1230z"/>
	<circle class="st0" cx="1236.1" cy="462" r="3.6"/>
	<path class="st1" d="M1244.3,459.6c-0.3,0-0.6,0.3-0.6,0.6s0.3,0.6,0.6,0.6h28.3c0.3,0,0.6-0.3,0.6-0.6c0-0.3-0.3-0.6-0.6-0.6
		H1244.3z"/>
	<path class="st1" d="M1244.3,463.2c-0.3,0-0.6,0.3-0.6,0.6c0,0.3,0.3,0.6,0.6,0.6h28.3c0.3,0,0.6-0.3,0.6-0.6
		c0-0.3-0.3-0.6-0.6-0.6H1244.3z"/>
	<circle class="st3" cx="1253.2" cy="483.1" r="8.6"/>
	<polygon class="st2" points="1258.3,483.1 1253.7,483.1 1253.7,478.5 1252.6,478.5 1252.6,483.1 1248.1,483.1 1248.1,484.1 
		1252.6,484.1 1252.6,488.8 1253.7,488.8 1253.7,484.1 1258.3,484.1 	"/>
</g>
<g>
	<g>
		<path class="st1" d="M1290.9,468.3c-0.2,0.4,0,1,0.3,1.2l12.9,6.7c0.4,0.2,1,0,1.2-0.3l26.6-52c0.2-0.4,0-1-0.3-1.2l-12.9-6.7
			c-0.4-0.2-1,0-1.2,0.3L1290.9,468.3z"/>
		<circle class="st0" cx="1321.3" cy="426.6" r="4.6"/>
		<path class="st2" d="M1297.6,466.4L1297.6,466.4c-0.2,0.3,0,0.9,0.3,1c0.3,0.2,0.9,0,1-0.3l16.3-31.8c0.2-0.3,0-0.9-0.3-1
			c-0.3-0.2-0.9,0-1,0.3L1297.6,466.4z"/>
		<path class="st2" d="M1301.6,468.5c-0.2,0.3,0,0.9,0.3,1s0.9,0,1-0.3l16.3-31.8l0,0c0.2-0.3,0-0.9-0.3-1c-0.3-0.1-0.9,0-1,0.3
			L1301.6,468.5z"/>
	</g>
	<g>
		<path class="st1" d="M1362.8,476.1c0.1,0.4,0.5,0.8,1,0.8l14.3-2.3c0.4-0.1,0.8-0.5,0.8-1l-9.2-57.7c-0.1-0.4-0.5-0.8-1-0.8
			l-14.3,2.3c-0.4,0.1-0.8,0.5-0.8,1L1362.8,476.1z"/>
		<circle class="st0" cx="1362.9" cy="424.5" r="4.6"/>
		<path class="st2" d="M1367.2,470.7c0.1,0.4,0.4,0.7,0.9,0.7s0.7-0.4,0.7-0.9l-5.6-35.3l0,0c-0.1-0.4-0.4-0.7-0.9-0.7
			c-0.4,0.1-0.7,0.4-0.7,0.9L1367.2,470.7z"/>
		<path class="st2" d="M1371.6,470L1371.6,470c0.1,0.4,0.4,0.7,0.9,0.7c0.4-0.1,0.7-0.4,0.7-0.9l-5.6-35.3c-0.1-0.4-0.4-0.7-0.9-0.7
			c-0.4,0.1-0.7,0.4-0.7,0.9L1371.6,470z"/>
	</g>
	<g>
		<ellipse class="st4" cx="1341.2" cy="494.2" rx="4.9" ry="1.9"/>
		<ellipse class="st4" cx="1329.3" cy="493.9" rx="4.9" ry="1.9"/>
		
			<ellipse transform="matrix(0.4994 -0.8664 0.8664 0.4994 258.2139 1370.665)" class="st4" cx="1315.2" cy="461.9" rx="3.1" ry="9.8"/>
		<ellipse class="st4" cx="1337.3" cy="468.1" rx="19.5" ry="19.5"/>
		<rect x="1340.2" y="483.4" class="st4" width="5.9" height="10.6"/>
		<rect x="1328.4" y="483.4" class="st4" width="5.9" height="10.6"/>
		<ellipse class="st2" cx="1336.7" cy="463.1" rx="6.7" ry="6.7"/>
		<circle class="st5" cx="1336.7" cy="463.1" r="2.2"/>
		<path class="st1" d="M1339.4,455.1c-7.7-1.7-13-4.4-11.3-11.5c1.5-7.1,9.2-11.3,16.9-9.6c7.7,1.7,12.9,8.8,11.2,15.9
			C1354.6,457,1347.1,456.8,1339.4,455.1z"/>
		
			<ellipse transform="matrix(0.9035 -0.4285 0.4285 0.9035 -65.6129 626.701)" class="st4" cx="1359.1" cy="459.1" rx="9.8" ry="3.1"/>
		<path class="st2" d="M1336.5,473.9c-5.5,0-10.6-2.3-10.6-0.3s5.1,7.3,10.6,7.3c5.5,0,10.4-3.8,10.4-5.7
			C1346.9,473.3,1342,473.9,1336.5,473.9z"/>
	</g>
</g>
</svg>
