<?xml version="1.0" encoding="utf-8"?>
<!-- Generator: Adobe Illustrator 25.0.1, SVG Export Plug-In . SVG Version: 6.00 Build 0)  -->
<svg version="1.1" id="レイヤー_1" xmlns="http://www.w3.org/2000/svg" xmlns:xlink="http://www.w3.org/1999/xlink" x="0px"
	 y="0px" viewBox="0 0 1920 500" style="enable-background:new 0 0 1920 500;" xml:space="preserve">
<style type="text/css">
	.st0{fill:#C8E4DF;}
	.st1{fill:#2F2E41;}
	.st2{fill:#FFFFFF;}
	.st3{fill:#3F3D56;}
	.st4{fill:#54AD9E;}
	.st5{fill:#E6E6E6;}
</style>
<g>
	<g id="レイヤー_2_1_">
		<g id="レイヤー_1-2">
			<path class="st0" d="M0,271c0,0,153.1-116.9,477,44c157,78,1044,351,1443-31v216H0V271z"/>
		</g>
	</g>
	<g>
		<circle class="st1" cx="1386.5" cy="470.3" r="17.8"/>
		<circle class="st2" cx="1385.1" cy="466" r="6.1"/>
		<circle class="st3" cx="1382.7" cy="464.5" r="2"/>
		<path class="st4" d="M1385.8,458.3c-7.3,0-12.4-1.3-12.3-7.9c0-6.6,5.9-11.9,13.2-11.9c7.3,0,13.2,5.4,13.1,12
			C1399.8,457,1393.1,458.3,1385.8,458.3z"/>
		<path class="st5" d="M1414.4,473.3c-2.1,7.2-8.2,12.3-14.5,16.6c-0.9,0.6-1.8,1.2-2.6,1.8l0,0c0,0-0.1,0-0.1,0.1
			c-0.2,0.1-0.4,0.2-0.5,0.4l0.1,0c0,0,0.1,0,0,0c0,0-0.1,0-0.1,0c-3.7-1.5-7.4-3.1-10.3-5.9c-2.9-2.9-4.7-7.4-3.1-11.2
			c0.2-0.5,0.5-1,0.8-1.4c0.1-0.2,0.2-0.4,0.4-0.5c2.7-3.3,7.6-3.8,10.9-1.1c1.1,0.9,1.9,2.1,2.4,3.5c0.5-4.3-3.1-8-6.6-10.6
			c-3.5-2.7-7.4-5.6-8-9.9c-0.4-2.4,0.5-4.7,2-6.6c0,0,0.1-0.1,0.1-0.2c1.9-2.2,4.5-3.6,7.3-3.9c5.3-0.5,10.4,2.3,14.3,5.9
			C1413,456,1416.8,465,1414.4,473.3z"/>
		<path class="st2" d="M1404.5,463.8c1,1.6,1.8,3.3,2.3,5.1c0.5,1.6,0.6,3.3,0.6,5c-0.1,3.4-1.1,6.8-2.8,9.8
			c-1.3,2.3-2.8,4.4-4.7,6.2c-0.9,0.6-1.8,1.2-2.6,1.8l0,0c0,0-0.1,0-0.1,0.1c-0.2,0.1-0.4,0.2-0.5,0.4c0,0,0.2,0.1,0.1,0
			c0,0-0.1,0-0.1,0c0.7-5.5-1.4-11-5.4-14.7c-2-1.8-4.5-3.1-7.1-3.8c0.1-0.2,0.2-0.4,0.4-0.5c1,0.3,2,0.7,2.9,1.1
			c3.4,1.6,6.1,4.3,7.9,7.6c1.6,3,2.2,6.4,1.9,9.8c0.2-0.1,0.3-0.3,0.5-0.4c2.8-2.6,5.3-5.6,7-9.1c1.4-2.9,2.2-6.2,2.1-9.5
			c-0.1-3.6-1.6-6.9-3.6-9.7c-2.3-3.1-4.9-5.8-7.9-8.2c-3-2.4-6.4-4.5-9.9-6.1c-0.2-0.1-0.2-0.3-0.2-0.5c0-0.1,0.1-0.1,0.1-0.2
			c0.1,0,0.2,0,0.2,0c0.5,0.2,0.9,0.4,1.3,0.6c3.5,1.8,6.9,4,9.9,6.6C1399.7,457.7,1402.4,460.5,1404.5,463.8z"/>
		<ellipse class="st1" cx="1240.4" cy="491.7" rx="4.5" ry="1.7"/>
		<ellipse class="st1" cx="1251.2" cy="491.4" rx="4.5" ry="1.7"/>
		
			<ellipse transform="matrix(0.8664 -0.4994 0.4994 0.8664 -61.9661 693.0618)" class="st1" cx="1264.1" cy="462.3" rx="8.9" ry="2.8"/>
		<ellipse class="st1" cx="1244" cy="467.9" rx="17.8" ry="17.8"/>
		<rect x="1235.9" y="481.8" class="st1" width="5.4" height="9.7"/>
		<rect x="1246.7" y="481.8" class="st1" width="5.4" height="9.7"/>
		<circle class="st2" cx="1244.4" cy="463.4" r="6.1"/>
		<circle class="st3" cx="1244.4" cy="463.4" r="2"/>
		<path class="st5" d="M1226.8,451.4c-1.4-6.4,3.1-12.9,10.2-14.5s14,2.4,15.4,8.7c1.4,6.4-3.3,8.8-10.4,10.4
			C1235,457.6,1228.2,457.8,1226.8,451.4z"/>
		
			<ellipse transform="matrix(0.4285 -0.9035 0.9035 0.4285 284.1635 1368.6023)" class="st1" cx="1224" cy="459.7" rx="2.8" ry="8.9"/>
		<path class="st2" d="M1235.3,474.3c0,1.7,4.5,5.2,9.5,5.2c5,0,9.6-4.9,9.6-6.6c0-1.7-4.7,0.3-9.6,0.3
			C1239.8,473.2,1235.3,472.6,1235.3,474.3z"/>
		<ellipse class="st1" cx="1306" cy="491.7" rx="4.5" ry="1.7"/>
		<ellipse class="st1" cx="1295.2" cy="491.4" rx="4.5" ry="1.7"/>
		
			<ellipse transform="matrix(0.4994 -0.8664 0.8664 0.4994 241.3749 1342.3286)" class="st1" cx="1282.2" cy="462.3" rx="2.8" ry="8.9"/>
		<circle class="st1" cx="1302.4" cy="467.9" r="17.8"/>
		<rect x="1305.1" y="481.8" class="st1" width="5.4" height="9.7"/>
		<rect x="1294.3" y="481.8" class="st1" width="5.4" height="9.7"/>
		<circle class="st2" cx="1298.2" cy="463.4" r="6.1"/>
		<ellipse class="st3" cx="1295.3" cy="462.6" rx="2" ry="2"/>
		<path class="st4" d="M1304.3,456c-7.1-1.6-11.8-4-10.4-10.4c1.4-6.4,8.3-10.4,15.4-8.7c7.1,1.6,11.7,8.1,10.2,14.5
			S1311.4,457.6,1304.3,456z"/>
		
			<ellipse transform="matrix(0.9665 -0.2567 0.2567 0.9665 -77.1986 354.349)" class="st1" cx="1318.7" cy="472.9" rx="2.8" ry="8.9"/>
		<path class="st2" d="M1298.3,473.2c-3.3,0-6.3-2.1-6.3-0.3s3.1,6.6,6.3,6.6s6.2-3.4,6.2-5.2
			C1304.5,472.6,1301.6,473.2,1298.3,473.2z"/>
		<path class="st4" d="M1275.4,438.4h-1.6c-2.9,0-5.3-2.4-5.3-5.3v-1.3c0-3.3,0.6-6,1.9-8.2c1.5-2.5,3.2-4.8,5.2-7
			c1.3-1.3,2.5-2.7,3.5-4.3c0.7-1.2,1.2-2.6,1.1-4c0-3.3-2.1-4.9-6.6-4.9c-2.4,0-4.9,0.4-7.2,1.1c-3.2,0.9-6.6-0.9-7.5-4.2
			c-0.2-0.5-0.2-1.1-0.2-1.7v-2.6c0-2.4,1.4-4.5,3.5-5.5c4.1-1.8,8.6-2.6,13.1-2.6c4.7,0,9,0.8,12.7,2.4c3.7,1.6,6.6,3.8,8.7,6.6
			c2.1,2.8,3.1,6.1,3.1,9.6c0,3.7-1,6.9-3,9.6c-2,2.6-4.8,5.5-8.4,8.6c-1.9,1.6-3.7,3.3-5.4,5.1c-1.1,1.2-1.9,2.6-2.2,4.2
			C1280.2,436.6,1278,438.5,1275.4,438.4z"/>
		<path class="st4" d="M1274.5,463.5h-0.2c-5.4,0-9.9-4.4-9.9-9.9c0-5.4,4.4-9.9,9.9-9.9h0.2c5.4,0,9.9,4.4,9.9,9.9
			C1284.4,459.1,1280,463.5,1274.5,463.5C1274.5,463.5,1274.5,463.5,1274.5,463.5z"/>
		
			<ellipse transform="matrix(0.9998 -1.955377e-02 1.955377e-02 0.9998 -9.095 27.1307)" class="st1" cx="1382.8" cy="478.6" rx="8.9" ry="2.8"/>
	</g>
</g>
</svg>
