<?xml version="1.0" encoding="utf-8"?>
<!-- Generator: Adobe Illustrator 25.0.1, SVG Export Plug-In . SVG Version: 6.00 Build 0)  -->
<svg version="1.1" id="レイヤー_1" xmlns="http://www.w3.org/2000/svg" xmlns:xlink="http://www.w3.org/1999/xlink" x="0px"
	 y="0px" viewBox="0 0 1920 230" style="enable-background:new 0 0 1920 230;" xml:space="preserve">
<style type="text/css">
	.st0{fill:#2F2E41;}
	.st1{fill:#FFFFFF;}
	.st2{fill:#3F3D56;}
	.st3{fill:#274E48;}
	.st4{fill:#84C2B8;}
	.st5{fill:#CCCCCC;}
	.st6{fill:#54AD9E;}
	.st7{fill:#44887D;}
	.st8{fill:#3A746A;}
	.st9{fill:#E7F3F1;}
	.st10{font-family:'DNPShueiMGoStd-B-83pv-RKSJ-H';}
	.st11{font-size:27.8992px;}
</style>
<g>
	<g>
		<path class="st0" d="M483,113.4c-0.7,3.9-2.7,7.5-5.8,10c-0.3,0.2-0.6,0.4-0.9,0.7l-23-3.8c-0.2-0.3-0.4-0.6-0.6-0.9
			c-1.2-2-2-4.2-2.3-6.5l0,0c-0.2-1.6-0.2-3.2,0.1-4.8c0.1-0.7,0.3-1.3,0.4-1.9c2.6-8.7,11.7-13.7,20.4-11.2
			c7.2,2.1,12.1,8.9,11.8,16.5C483.2,112.1,483.1,112.7,483,113.4z"/>
		<circle class="st1" cx="466.3" cy="106.6" r="5.6"/>
		<ellipse class="st2" cx="464.2" cy="107.3" rx="1.9" ry="1.9"/>
		<path class="st3" d="M482.5,95.2c1.2-6-3.1-11.9-9.7-13.3c-6.6-1.4-12.9,2.4-14.2,8.3s3.1,8.1,9.7,9.5
			C475,101,481.3,101.1,482.5,95.2z"/>
		<path class="st1" d="M470.2,117.9c0,2.1-1.6,3.8-3.7,3.8s-3.8-1.6-3.8-3.7l0,0c0-2.1,1.6-2.5,3.7-2.6S470.1,115.8,470.2,117.9z"/>
		<ellipse transform="matrix(0.855 -0.5186 0.5186 0.855 7.8751 267.6361)" class="st0" cx="482.6" cy="119.7" rx="2.6" ry="8.2"/>
	</g>
	<g id="レイヤー_2_1_">
		<g id="レイヤー_1-2">
			<path class="st4" d="M0,99.8c0,0,153.1-53.8,477,20.2c157,35.9,1044,161.5,1443-14.2V230H0V99.8z"/>
		</g>
	</g>
	<g>
		<path class="st0" d="M425.8,183.5c23.2,0.4,23.2,34.9,0,35.3C402.6,218.4,402.6,183.9,425.8,183.5z"/>
		<rect x="417.7" y="215" class="st0" width="5.4" height="9.6"/>
		<rect x="428.4" y="215" class="st0" width="5.4" height="9.6"/>
		<path class="st0" d="M422.2,223.1c5.8,0,5.8,3.4,0,3.4C416.4,226.5,416.4,223,422.2,223.1z"/>
		<path class="st0" d="M432.9,222.8c5.8,0,5.8,3.4,0,3.4C427.1,226.2,427.1,222.8,432.9,222.8z"/>
		<path class="st1" d="M426.2,190.7c7.9,0,7.9,12,0,12.1C418.3,202.7,418.3,190.7,426.2,190.7z"/>
		<path class="st2" d="M426.2,194.7c2.6,0,2.6,4.1,0,4C423.6,198.8,423.6,194.7,426.2,194.7z"/>
		<path class="st5" d="M408.6,184.8c-3.3-15.1,22.1-20.8,25.5-5.7c1.4,6.4-3.2,8.7-10.3,10.3C416.8,191,410.1,191.1,408.6,184.8z"/>
		<path class="st0" d="M433.4,136.1c4.1-10.8,9.3-8.8,5.2,2C434.5,148.9,429.3,146.9,433.4,136.1z"/>
		<path class="st0" d="M402.3,147.6c4.1-22.8,38.2-17.3,34.8,5.7C433,176.1,399,170.6,402.3,147.6z"/>
		<rect x="411.7" y="164.3" class="st0" width="5.4" height="9.6"/>
		<rect x="422.4" y="164.3" class="st0" width="5.4" height="9.6"/>
		<path class="st0" d="M416.1,172.4c5.8,0,5.8,3.4,0,3.4C410.4,175.8,410.4,172.3,416.1,172.4z"/>
		<path class="st0" d="M426.9,172.1c5.8,0,5.8,3.4,0,3.4S421.1,172.1,426.9,172.1z"/>
		<path class="st6" d="M402.6,134.1c-3.3-15.1,22.1-20.8,25.5-5.7c1.4,6.4-3.2,8.7-10.3,10.3C410.8,140.2,404,140.4,402.6,134.1z"/>
		<path class="st0" d="M391.9,138.5c1.2-3.4,17.8,4.5,15.9,7.6C406.6,149.4,390.1,141.6,391.9,138.5z"/>
	</g>
	
		<ellipse transform="matrix(0.6514 -0.7588 0.7588 0.6514 67.0337 380.4125)" class="st0" cx="447.5" cy="117.3" rx="8.6" ry="2.7"/>
	<path class="st7" d="M1801.3,123.2c-2.5,0-3.3-2.5-4.4-5c-3.3-7.4-7.1-10.5-10.8-10.8l0,0c-0.1,0-0.2,0-0.3,0c-0.1,0-0.2,0-0.3,0
		l0,0c-3.7,0.3-7.5,3.4-10.8,10.8c-1.2,2.6-1.9,5-4.4,5c-9.5,0-10,13.2-8.8,20.1c2.8,15.5,13.4,19.3,24,20l0,0c0.1,0,0.2,0,0.3,0
		c0.1,0,0.2,0,0.3,0l0,0c10.7-0.7,21.3-4.5,24-20C1811.4,136.4,1810.8,123.2,1801.3,123.2z"/>
	<g>
		
			<ellipse transform="matrix(0.7667 -0.642 0.642 0.7667 279.2114 1122.5941)" class="st0" cx="1684.2" cy="177.1" rx="3" ry="9.6"/>
		<circle class="st0" cx="1663.8" cy="173.9" r="19.2"/>
		<rect x="1666.1" y="189" class="st0" width="5.8" height="10.5"/>
		<rect x="1654.5" y="189" class="st0" width="5.8" height="10.5"/>
		<ellipse class="st0" cx="1667.1" cy="199.6" rx="4.9" ry="1.8"/>
		<ellipse class="st0" cx="1655.4" cy="199.3" rx="4.9" ry="1.8"/>
		<path class="st5" d="M1657.8,149.7c1.7-6.9,9.3-11,16.9-9.1c7.6,1.9,12.4,9,10.7,15.9c-1.7,6.9-7.4,6.9-15,5
			C1662.8,159.7,1656.1,156.7,1657.8,149.7z"/>
		
			<ellipse transform="matrix(0.4285 -0.9035 0.9035 0.4285 789.3621 1578.0686)" class="st0" cx="1642.2" cy="165" rx="3" ry="9.6"/>
		<circle class="st1" cx="1661" cy="169.8" r="6.4"/>
		<circle class="st2" cx="1658.3" cy="167.5" r="2.1"/>
		<circle class="st1" cx="1660.9" cy="183.2" r="2.7"/>
	</g>
	<path class="st8" d="M1671.7,128c-7.8,2.1-15.4,1.8-22.8-0.8c-7.8-2.8-20.6,3.5-21,6.1l-0.3,3.8l-7.3-41.2l0.1-0.2
		c0.2-0.4,5.2-9.7,26.4-4.2c16.1,4.2,26.5-2.6,30.2-5.8c0.6-0.5,1.5-0.3,2,0.4c0.1,0.2,0.2,0.4,0.3,0.7l6.8,33
		c0.1,0.7-0.1,1.3-0.6,1.7C1681.4,124.4,1676.7,126.6,1671.7,128z"/>
	<path class="st3" d="M1618.5,94.6c-1.2,0.3-1.9,1.5-1.6,2.7l19.3,71.8c0.3,1.2,1.5,1.9,2.7,1.6s1.9-1.5,1.6-2.7l-19.3-71.8
		C1620.9,95,1619.7,94.3,1618.5,94.6z"/>
	<text transform="matrix(0.9533 -0.3021 0.3021 0.9533 1648.5747 121.3286)" class="st9 st10 st11">2</text>
</g>
</svg>
