<?xml version="1.0" encoding="utf-8"?>
<!-- Generator: Adobe Illustrator 25.0.1, SVG Export Plug-In . SVG Version: 6.00 Build 0)  -->
<svg version="1.1" id="レイヤー_1" xmlns="http://www.w3.org/2000/svg" xmlns:xlink="http://www.w3.org/1999/xlink" x="0px"
	 y="0px" viewBox="0 0 1920 230" style="enable-background:new 0 0 1920 230;" xml:space="preserve">
<style type="text/css">
	.st0{fill:#A6D3CC;}
	.st1{fill:#3F3D56;}
	.st2{fill:#2F2E41;}
	.st3{fill:#FFFFFF;}
	.st4{fill:#54AD9E;}
	.st5{fill:#274E48;}
	.st6{fill:#E7F3F1;}
	.st7{font-family:'DNPShueiMGoStd-B-83pv-RKSJ-H';}
	.st8{font-size:27.8992px;}
	.st9{fill:#44887D;}
	.st10{fill:#F5800B;}
</style>
<g>
	<g id="レイヤー_2_1_">
		<g id="レイヤー_1-2">
			<path class="st0" d="M1920,230H0V62.9C399,238.6,1286,113,1443,77.1c323.8-74,477-20.2,477-20.2V230z"/>
		</g>
	</g>
	<path class="st1" d="M1434.9,220.6h1.1l-2.2-145.9h-1.1v2.9h-24.5v-2.9h-1.1l-2.2,145.9h1.1l0.1-9.5h28.5L1434.9,220.6z
		 M1433.3,115.5h-25.6l0.3-17.8h25.1L1433.3,115.5z M1433.3,116.6l0.3,17.8h-26.2l0.3-17.8C1407.7,116.6,1433.3,116.6,1433.3,116.6z
		 M1433.6,135.5l0.3,17.8h-26.7l0.3-17.8H1433.6z M1433.9,154.4l0.3,17.8h-27.3l0.3-17.8C1407.2,154.4,1433.9,154.4,1433.9,154.4z
		 M1434.2,173.3l0.3,17.8h-27.9l0.3-17.8H1434.2z M1432.8,78.8l0.3,17.8h-25l0.3-17.8H1432.8z M1406.3,210.1l0.3-17.8h27.9l0.3,17.8
		H1406.3z"/>
	<circle class="st2" cx="1415.1" cy="107.2" r="17.8"/>
	<rect x="1421.1" y="119.9" transform="matrix(0.984 -0.1781 0.1781 0.984 0.545 255.5719)" class="st2" width="5.4" height="9.7"/>
	
		<rect x="1410.4" y="121.9" transform="matrix(0.984 -0.1781 0.1781 0.984 1.840208e-02 253.7009)" class="st2" width="5.4" height="9.7"/>
	
		<ellipse transform="matrix(0.7631 -0.6463 0.6463 0.7631 249.0724 944.689)" class="st2" cx="1413.1" cy="132.6" rx="4.5" ry="1.7"/>
	
		<ellipse transform="matrix(0.7631 -0.6463 0.6463 0.7631 252.762 950.9537)" class="st2" cx="1423.5" cy="130.7" rx="4.5" ry="1.7"/>
	<circle class="st3" cx="1413.9" cy="102.9" r="6.1"/>
	<circle class="st1" cx="1411.4" cy="100.7" r="2"/>
	<path class="st4" d="M1429.1,87.9c0.3-6.6-5.4-12.2-12.7-12.5c-7.3-0.3-13.4,4.8-13.6,11.4c-0.3,6.6,4.8,8.1,12.1,8.4
		C1422.1,95.5,1428.9,94.5,1429.1,87.9z"/>
	
		<ellipse transform="matrix(0.2234 -0.9747 0.9747 0.2234 984.8213 1444.0951)" class="st2" cx="1398.7" cy="104" rx="2.8" ry="8.9"/>
	
		<ellipse transform="matrix(0.2234 -0.9747 0.9747 0.2234 1006.2149 1482.6243)" class="st2" cx="1433.5" cy="109.8" rx="2.8" ry="8.9"/>
	<path class="st3" d="M1420,114.2c0.4,2.2-1.1,4.3-3.3,4.7c-2.2,0.4-4.3-1.1-4.7-3.3l0,0c-0.4-2.2,1.3-3,3.5-3.4
		C1417.7,111.9,1419.6,112,1420,114.2z"/>
	<path class="st5" d="M1345.7,65.1c-0.8,0.5-1.1,1.5-0.6,2.3L1360,93l0,0c0.5,0.8,1.5,1.1,2.3,0.6l19.1-11.2l16.8,28.7l0,0
		c0.3,0.5,0.9,0.7,1.4,0.4s0.7-0.9,0.4-1.4l-16.8-28.7l19.1-11.2c0.8-0.5,1.1-1.5,0.6-2.3L1388,42.3c-0.5-0.8-1.5-1.1-2.3-0.6
		l-19.1,11.2l-2.5-4.2c-0.3-0.5-0.9-0.7-1.4-0.4s-0.7,0.9-0.4,1.4l2.5,4.2L1345.7,65.1L1345.7,65.1z"/>
	<g>
		<ellipse transform="matrix(0.357 -0.9341 0.9341 0.357 792.3002 1281.4987)" class="st2" cx="1327" cy="65.2" rx="8.6" ry="2.7"/>
		<circle class="st2" cx="1311.1" cy="78.3" r="17.2"/>
		<rect x="1303.3" y="91.8" class="st2" width="5.2" height="9.3"/>
		<rect x="1313.7" y="91.8" class="st2" width="5.2" height="9.3"/>
		<ellipse class="st2" cx="1307.6" cy="101.2" rx="4.3" ry="1.6"/>
		<ellipse class="st2" cx="1318.1" cy="101" rx="4.3" ry="1.6"/>
		<circle class="st3" cx="1311.5" cy="73.9" r="5.9"/>
		<circle class="st1" cx="1311.5" cy="73.9" r="2"/>
		<path class="st4" d="M1294.5,62.3c-1.4-6.2,3-12.5,9.9-14s13.5,2.3,14.9,8.5s-3.2,8.5-10,10S1295.8,68.5,1294.5,62.3z"/>
		
			<ellipse transform="matrix(0.4285 -0.9035 0.9035 0.4285 674.588 1207.3151)" class="st2" cx="1291.7" cy="70.4" rx="2.7" ry="8.6"/>
		<path class="st3" d="M1302.7,84.5c0,1.7,4.3,5,9.1,5c4.8,0,9.3-4.7,9.3-6.4s-4.5,0.3-9.3,0.3S1302.7,82.8,1302.7,84.5z"/>
	</g>
	<text transform="matrix(0.8573 -0.5148 0.5148 0.8573 1371.3992 81.7929)" class="st6 st7 st8">3</text>
	<g>
		<path class="st9" d="M97.3,78.4c3.3,0,4.3-3.2,5.8-6.6c4.3-9.7,9.4-13.8,14.2-14.2l0,0c0.1,0,0.2,0,0.4,0c0.1,0,0.2,0,0.4,0l0,0
			c4.9,0.4,9.9,4.5,14.2,14.2c1.5,3.4,2.5,6.6,5.8,6.6c12.5,0,13.2,17.3,11.6,26.4c-3.6,20.4-17.6,25.4-31.6,26.3l0,0
			c-0.1,0-0.2,0-0.4,0c-0.1,0-0.2,0-0.4,0l0,0c-14-0.9-27.9-5.9-31.6-26.3C84.1,95.7,84.8,78.4,97.3,78.4z"/>
		<path class="st4" d="M133.7,94.8c2.5,0,3.3-2.5,4.4-5.1c3.3-7.4,7.2-10.6,10.9-10.9l0,0c0.1,0,0.2,0,0.3,0s0.2,0,0.3,0l0,0
			c3.7,0.3,7.6,3.5,10.9,10.9c1.2,2.6,1.9,5.1,4.4,5.1c9.6,0,10.1,13.3,8.9,20.3c-2.8,15.7-13.5,19.5-24.2,20.2l0,0
			c-0.1,0-0.2,0-0.3,0s-0.2,0-0.3,0l0,0c-10.8-0.7-21.4-4.5-24.2-20.2C123.6,108.1,124.1,94.8,133.7,94.8z"/>
	</g>
	<g>
		<path class="st10" d="M302.7,144.5l-34.9,6.6c-0.9,0.2-1.5,1-1.3,2l0.1,0.8c0.2,0.9,1,1.5,2,1.3l34.9-6.6c0.9-0.2,1.5-1,1.3-2
			l-0.1-0.8C304.5,144.9,303.6,144.3,302.7,144.5z"/>
		<path class="st10" d="M267.7,148.9l35.1,5.8c0.9,0.2,1.8-0.5,1.9-1.4l0.1-0.8c0.2-0.9-0.5-1.8-1.4-1.9l-35.1-5.8
			c-0.9-0.2-1.8,0.5-1.9,1.4l-0.1,0.8C266.2,147.9,266.8,148.8,267.7,148.9z"/>
		<path class="st4" d="M298,115.5c-0.1-0.1-0.2-0.2-0.3-0.3c-0.5-0.4-1-0.8-1.5-1.1c-1.9-1.7-3.2-3.9-3.7-6.4
			c-0.1,1.4-0.5,2.8-1.1,4.1c-1,2.2-2.7,4-4.8,5.3c0-0.6,0.1-1.2,0.1-1.8c0-1.5-0.2-2.9-0.5-4.4c-1.1-4.3-3.6-8.2-7.1-10.9
			c0,0.3,0,0.7,0,1c0.1,5.1-1.9,10.1-5.5,13.7c-0.4,0.3-0.8,0.7-1.2,1c-0.4,0.3-0.7,0.6-1,1c-2.7,2.8-4.5,6.4-5.2,10.2
			s-0.2,7.8,1.4,11.3c1.6,3.6,4.2,6.5,7.6,8.6c3.3,2,7.2,3,11.1,2.8s7.6-1.5,10.8-3.9c3.1-2.3,5.5-5.6,6.7-9.3
			c1.3-3.7,1.4-7.7,0.3-11.4C303.1,121.4,301,118.1,298,115.5L298,115.5z"/>
		<path class="st10" d="M297.4,135.4L297.4,135.4c0,0,0-0.4-0.2-1.1c-0.3-1.1-0.8-2.2-1.4-3.2c0-0.1-0.1-0.2-0.1-0.2
			c-0.1-0.1-0.2-0.3-0.3-0.4c-0.3-0.5-0.7-0.9-1.1-1.2c-0.5-0.4-1-0.7-1.6-0.8c-2.1-0.5-4.5,0.7-7.2,3.8c-2.8-3-5.2-4.2-7.3-3.6
			c-0.6,0.2-1.1,0.5-1.6,0.9c-0.4,0.4-0.8,0.8-1.1,1.3c-0.1,0.1-0.2,0.3-0.3,0.4c0,0.1-0.1,0.2-0.1,0.2c-0.6,1-1.1,2.1-1.3,3.2
			c-0.2,0.6-0.3,1-0.3,1.1l0,0c-0.3,1.7-0.2,3.5,0.3,5.2c0.5,1.7,1.3,3.3,2.5,4.6c1.2,1.3,2.6,2.4,4.2,3.1c1.6,0.7,3.4,1.1,5.1,1.1
			c1.8,0,3.5-0.4,5.1-1.2c1.6-0.8,3-1.9,4.1-3.2c1.1-1.4,1.9-3,2.4-4.7C297.7,139,297.8,137.2,297.4,135.4L297.4,135.4z"/>
	</g>
	<g>
		<circle class="st2" cx="337.3" cy="129.3" r="18.7"/>
		
			<rect x="321.4" y="143.4" transform="matrix(0.9038 -0.428 0.428 0.9038 -31.178 153.8195)" class="st2" width="10.2" height="5.7"/>
		
			<ellipse transform="matrix(0.5687 -0.8226 0.8226 0.5687 16.6335 327.3206)" class="st2" cx="320.4" cy="147.8" rx="1.8" ry="4.7"/>
		
			<rect x="344.5" y="141.6" transform="matrix(0.4673 -0.8841 0.8841 0.4673 55.3723 385.2097)" class="st2" width="5.7" height="10.2"/>
		
			<ellipse transform="matrix(0.8468 -0.532 0.532 0.8468 -24.8623 210.7115)" class="st2" cx="353.3" cy="148.5" rx="4.7" ry="1.8"/>
		<circle class="st3" cx="336.1" cy="124.7" r="6.4"/>
		<ellipse transform="matrix(0.7225 -0.6914 0.6914 0.7225 8.9772 266.3125)" class="st1" cx="336.2" cy="122" rx="2.1" ry="2.1"/>
		<path class="st4" d="M352.5,109.3c0.4-6.9-5.4-12.9-13.1-13.4s-14.2,4.8-14.6,11.7s4.9,8.6,12.5,9.1
			C345,117.1,352.1,116.2,352.5,109.3z"/>
		
			<ellipse transform="matrix(0.7729 -0.6345 0.6345 0.7729 -3.0306 256.3838)" class="st2" cx="356.7" cy="132.4" rx="2.9" ry="9.4"/>
		
			<ellipse transform="matrix(0.6679 -0.7443 0.7443 0.6679 7.6197 280.2421)" class="st2" cx="317.8" cy="131.6" rx="9.4" ry="2.9"/>
		<path class="st3" d="M342.3,136.8c0.4,2.3-1.2,4.5-3.5,4.9c-2.3,0.4-4.5-1.2-4.9-3.5l0,0l0,0c-0.4-2.3,1.4-3.1,3.8-3.5
			C340.1,134.3,341.9,134.5,342.3,136.8z"/>
	</g>
</g>
</svg>
