<?xml version="1.0" encoding="utf-8"?>
<!-- Generator: Adobe Illustrator 24.2.0, SVG Export Plug-In . SVG Version: 6.00 Build 0)  -->
<svg version="1.1" id="レイヤー_1" xmlns="http://www.w3.org/2000/svg" xmlns:xlink="http://www.w3.org/1999/xlink" x="0px"
	 y="0px" viewBox="0 0 144 162" style="enable-background:new 0 0 144 162;" xml:space="preserve">
<style type="text/css">
	.st0{fill:#54AD9E;}
	.st1{fill:#44887D;}
	.st2{fill:#3A746A;}
	.st3{fill:#F6CA51;}
	.st4{fill:#25B9FF;}
	.st5{fill:#F5800B;}
</style>
<path class="st0" d="M70.4,73.5c-1.1-0.3-2.3-0.4-3.6-0.1L7,85.4c-4.1,0.8-6.7,4.8-5.9,8.8L13.2,154c0.8,4.1,4.8,6.7,8.8,5.9
	l59.8-12.1c4.1-0.8,6.7-4.8,5.9-8.8l-5.8-28.8"/>
<path class="st1" d="M74.2,58.8l-3.8,14.7c2.6,0.7,4.7,2.9,5.3,5.7l6.3,31l37.6,9.9c4,1.1,8.1-1.3,9.2-5.3l13.1-50.3
	c1.1-4-1.3-8.1-5.3-9.2L97.9,45.1"/>
<path class="st0" d="M81.9,110.2l-6.3-31c-0.6-2.8-2.7-5-5.3-5.7"/>
<path class="st2" d="M86.4,42.1l11.8,3.1l3.3-1.9c3.6-2,4.9-6.6,2.8-10.2L88.2,4.8C86.2,1.2,81.6-0.1,78,2L49.6,18
	c-3.6,2-4.9,6.6-2.8,10.2l16.1,28.3c2,3.6,6.6,4.9,10.2,2.8l1.1-0.6l3-11.3C78.3,43.5,82.4,41.1,86.4,42.1z"/>
<path class="st1" d="M98.1,45.2l-11.8-3.1c-4-1.1-8.1,1.3-9.2,5.3L74.2,59L98.1,45.2z"/>
<path class="st3" d="M52.7,100.3c2.6-0.5,4.3-3.1,3.8-5.7c-0.5-2.6-3.1-4.3-5.7-3.8c-2.6,0.5-4.3,3.1-3.8,5.7
	C47.6,99.2,50.1,100.9,52.7,100.3z"/>
<path class="st3" d="M52.2,112.7c0.7,0.7,1.6,1.2,2.6,1.3c1,0.2,2,0,2.9-0.4l7.4-3.5l-2.1-4.3l-7.4,3.5l-4.2-4.2
	c-0.9-0.9-2.1-1.4-3.4-1.4h-9.4c-1.1,0-2.1,0.4-2.9,1s-1.4,1.5-1.7,2.6l-2.3,8.6l4.7,1.3l2.3-8.6h4.8l-8,22.4L25,133.1l1,4.7
	l10.5-2.1c1.6-0.3,3-1.5,3.6-3.1l3-8.5h12.7l6.9,12l4.2-2.4l-6.9-12c-0.4-0.7-1-1.3-1.8-1.8c-0.7-0.4-1.6-0.6-2.4-0.6h-7.5l2.8-7.8
	L52.2,112.7z"/>
<path class="st4" d="M107.9,63.6c0,0-17.3,11.5-20.1,22.2c-2.2,8.4,1.5,15.1,9.7,17.2c8.2,2.2,14.7-1.8,16.9-10.2
	C117.3,82.1,107.9,63.6,107.9,63.6z M100.3,98.4l0.6-2.3c1.5,0.4,3,0.2,4.4-0.6c1.3-0.8,2.3-2.1,2.7-3.6l2.2,0.6
	c-0.6,2.1-1.9,3.9-3.8,5C104.6,98.6,102.4,99,100.3,98.4z"/>
<path class="st5" d="M65.5,27l-3.1,1.8c-0.4,0.2-0.5,0.9-0.3,1.4l6.7,11.9c0.3,0.5,0.9,0.7,1.3,0.5l3.1-1.8c0.4-0.2,0.5-0.9,0.3-1.4
	l-6.7-11.9C66.5,26.9,65.9,26.7,65.5,27z"/>
<path class="st5" d="M61.6,33l-1,0.6c-0.4,0.2-0.4,0.7-0.2,1.1l3.6,6.4c0.2,0.4,0.7,0.6,1.1,0.4l1-0.6c0.4-0.2,0.4-0.7,0.2-1.1
	l-3.6-6.4C62.5,33,62,32.8,61.6,33z"/>
<path class="st5" d="M78.1,26.7l-7.9,4.5l1.8,3.2l7.9-4.5L78.1,26.7z"/>
<path class="st5" d="M80.1,18.7L77,20.5c-0.4,0.2-0.5,0.9-0.3,1.4l6.7,11.9c0.3,0.5,0.9,0.7,1.3,0.5l3.1-1.8
	c0.4-0.2,0.5-0.9,0.3-1.4l-6.7-11.9C81.1,18.7,80.5,18.4,80.1,18.7z"/>
<path class="st5" d="M85.1,19.7l-1,0.6c-0.4,0.2-0.4,0.7-0.2,1.1l3.6,6.4c0.2,0.4,0.7,0.6,1.1,0.4l1-0.6c0.4-0.2,0.4-0.7,0.2-1.1
	l-3.6-6.4C85.9,19.7,85.4,19.5,85.1,19.7z"/>
</svg>
