<svg width="87" height="123" viewBox="0 0 87 123" fill="none" xmlns="http://www.w3.org/2000/svg">
<path d="M81.0545 98.8366L3.63942 112.487C1.62956 112.841 0.287536 114.758 0.641928 116.768L0.938269 118.448C1.29266 120.458 3.20927 121.8 5.21913 121.446L82.6342 107.796C84.6441 107.441 85.9861 105.525 85.6317 103.515L85.3354 101.834C84.981 99.8242 83.0644 98.4822 81.0545 98.8366Z" fill="#F5800B"/>
<path d="M3.63919 107.796L81.0543 121.446C83.0642 121.801 84.9808 120.459 85.3352 118.449L85.6315 116.768C85.9859 114.758 84.6439 112.842 82.634 112.487L5.2189 98.8371C3.20904 98.4827 1.29243 99.8247 0.938042 101.835L0.641701 103.515C0.287309 105.525 1.62933 107.442 3.63919 107.796Z" fill="#F5800B"/>
<path d="M71.39 34.7259C71.1582 34.5243 70.923 34.3227 70.6845 34.1245C69.6476 33.2578 68.5692 32.4404 67.4494 31.6722C63.3706 27.8665 60.5795 22.8842 59.4642 17.4184C59.1576 20.5391 58.3024 23.5813 56.9379 26.4047C54.6093 31.2094 50.9095 35.2167 46.3055 37.9206C46.4298 36.5769 46.497 35.2331 46.497 33.8894C46.5001 30.6244 46.1327 27.3696 45.4018 24.1875C43.1802 14.5968 37.7349 6.05891 29.9756 0C30.0159 0.763698 30.0361 1.53188 30.0361 2.30453C30.0499 13.629 25.5813 24.4987 17.6064 32.5389C16.6456 33.2466 15.7173 33.9935 14.8215 34.7796C14.0398 35.4649 13.284 36.176 12.5539 36.9128C6.49342 43.0423 2.41503 50.8518 0.847889 59.3279C-0.719252 67.804 0.297199 76.5554 3.76535 84.4467C7.23351 92.3379 12.9933 99.0047 20.2973 103.582C27.6013 108.159 36.1124 110.436 44.7262 110.116C53.34 109.796 61.6589 106.895 68.6035 101.789C75.5481 96.6829 80.7978 89.6074 83.6714 81.4808C86.545 73.3541 86.9099 64.5514 84.7187 56.2148C82.5275 47.8782 77.8814 40.3926 71.3832 34.7292L71.39 34.7259Z" fill="#54AD9E"/>
<path d="M69.6297 78.6733L69.7338 78.6531C69.7338 78.6195 69.5356 77.699 69.1224 76.3251C68.455 73.8157 67.4264 71.4166 66.0687 69.2032C65.9679 69.0352 65.8638 68.8672 65.7563 68.6993C65.5615 68.3902 65.3565 68.0845 65.1415 67.7855C64.4268 66.7644 63.5846 65.8387 62.6354 65.0308C61.621 64.1598 60.4304 63.518 59.1451 63.1496C54.5595 61.8831 49.1845 64.6244 43.1376 71.2793C37.0908 64.6244 31.7158 61.873 27.1302 63.1362C25.8496 63.5064 24.6638 64.148 23.6533 65.0174C22.7041 65.8253 21.8619 66.751 21.1472 67.7721C20.9322 68.0711 20.7272 68.3768 20.5324 68.6858C20.4249 68.8538 20.3208 69.0218 20.22 69.1897C18.8611 71.4074 17.8325 73.811 17.1663 76.3251C16.7531 77.699 16.5616 78.6195 16.5549 78.6531L16.659 78.6733C16.001 82.5294 16.1927 86.4827 17.2208 90.2571C18.2489 94.0315 20.0885 97.5359 22.6113 100.526C25.1341 103.515 28.2791 105.918 31.8268 107.567C35.3744 109.215 39.2392 110.069 43.1511 110.069C47.063 110.069 50.9277 109.215 54.4754 107.567C58.023 105.918 61.1681 103.515 63.6908 100.526C66.2136 97.5359 68.0533 94.0315 69.0813 90.2571C70.1094 86.4827 70.3011 82.5294 69.6431 78.6733H69.6297Z" fill="#F5800B"/>
</svg>
