<svg xmlns="http://www.w3.org/2000/svg" width="223.97" height="178.81" viewBox="0 0 223.97 178.81"><defs><style>.cls-1{fill:#54ad9e;}.cls-2{fill:#a6d3cc;}.cls-3{fill:none;stroke:#a6d3cc;stroke-linecap:round;stroke-miterlimit:10;stroke-width:4.25px;}.cls-4{fill:#f6ca51;}.cls-5{fill:#25b9ff;}.cls-6{fill:#f43325;}.cls-7{fill:#f5800b;}</style></defs><g id="レイヤー_2" data-name="レイヤー 2"><g id="レイヤー_3" data-name="レイヤー 3"><rect class="cls-1" x="8.96" y="19.83" width="206.04" height="139.15" rx="27" transform="translate(-20.77 35.45) rotate(-16.48)"/><circle class="cls-2" cx="48.33" cy="78.18" r="21"/><circle class="cls-2" cx="103.94" cy="61.73" r="21"/><circle class="cls-2" cx="159.56" cy="45.27" r="21"/><circle class="cls-2" cx="64.79" cy="133.8" r="21"/><path class="cls-2" d="M120.1,100.92a16.25,16.25,0,1,1-4.62.67,16.45,16.45,0,0,1,4.62-.67m0-4.25h0a20.6,20.6,0,0,0-5.83.84A20.53,20.53,0,0,0,100.43,123,20.5,20.5,0,1,0,120.1,96.67Z"/><line class="cls-3" x1="17.64" y1="87.26" x2="189.29" y2="36.47"/><line class="cls-3" x1="34.1" y1="142.88" x2="72.46" y2="131.53"/><path class="cls-4" d="M44.45,63.67a3.33,3.33,0,1,1-2.25,4.14A3.31,3.31,0,0,1,44.45,63.67ZM64.51,78.59l-1-3.2a11.85,11.85,0,0,1-10.21-1.63l-2.9-1.93a3.33,3.33,0,0,0-2.79-.42L46,71.89a3.31,3.31,0,0,0-2.14,1.89L42.49,77a11.93,11.93,0,0,1-7.69,6.94l.94,3.19a15.15,15.15,0,0,0,9.65-8.5l1.07,3.59L41,86.51a3,3,0,0,0-1,3.18,3,3,0,0,0,3.71,2l3.53-1-.23-.8a4.12,4.12,0,0,1,.33-3.17,4.17,4.17,0,0,1,2.48-2l4.79-1.42a.84.84,0,1,1,.48,1.6l-4.8,1.42a2.49,2.49,0,0,0-1.69,3.1l.24.8,11.52-3.41a3,3,0,0,0,2-3.7,3,3,0,0,0-2.58-2.13l-6.93-.64-1.07-3.59A15.2,15.2,0,0,0,64.51,78.59Z"/><path class="cls-5" d="M99.34,46.55S93,60.22,95.22,67.88c1.79,6.05,6.62,8.76,12.51,7s8.46-6.65,6.67-12.69C112.13,54.54,99.34,46.55,99.34,46.55ZM107.74,71l-.49-1.65a4.07,4.07,0,0,0,2.47-2A4.34,4.34,0,0,0,110,64.1l1.6-.48a6.09,6.09,0,0,1-.44,4.55A5.76,5.76,0,0,1,107.74,71Z"/><path class="cls-6" d="M163.53,34.28a3.08,3.08,0,1,0-3.83-2.08A3.09,3.09,0,0,0,163.53,34.28Z"/><path class="cls-6" d="M163.89,42.16a3.05,3.05,0,0,0,1.73.7,3.1,3.1,0,0,0,1.81-.41L172,39.77l-1.56-2.65-4.54,2.67-2.94-2.45a3.13,3.13,0,0,0-2.26-.71l-6,.55a3.09,3.09,0,0,0-1.81.8,3,3,0,0,0-1,1.73l-1,5.63,3,.54,1-5.63L158,40,154.2,54.73l-6.56,1.94.88,2.95,6.55-1.94a3.07,3.07,0,0,0,2.11-2.18l1.44-5.57,8.09-.73,5.07,7.26,2.53-1.76-5.07-7.26a3,3,0,0,0-1.23-1,3.05,3.05,0,0,0-1.58-.28l-4.75.43L163,41.42Z"/><path class="cls-7" d="M56.57,128.22l-3.52,1a1,1,0,0,0-.56,1.28l3.93,13.29a1,1,0,0,0,1.17.77l3.52-1a1,1,0,0,0,.56-1.29L57.73,129A1,1,0,0,0,56.57,128.22Z"/><path class="cls-7" d="M51.38,133.26l-1.1.33a.83.83,0,0,0-.47,1.07l2.13,7.17a.82.82,0,0,0,1,.64l1.1-.32a.84.84,0,0,0,.46-1.07l-2.12-7.17A.83.83,0,0,0,51.38,133.26Z"/><path class="cls-7" d="M69.12,130.87l-8.8,2.6,1.08,3.64,8.8-2.61-1.08-3.63Z"/><path class="cls-7" d="M72.93,123.37l-3.52,1a1,1,0,0,0-.56,1.28L72.78,139a1,1,0,0,0,1.17.78l3.52-1a1,1,0,0,0,.56-1.29L74.1,124.15A1,1,0,0,0,72.93,123.37Z"/><path class="cls-7" d="M77.61,125.5l-1.1.33A.83.83,0,0,0,76,126.9l2.12,7.17a.84.84,0,0,0,1,.64l1.1-.32a.85.85,0,0,0,.46-1.08l-2.12-7.16A.83.83,0,0,0,77.61,125.5Z"/></g></g></svg>